<!-- cc-by-sa-4.0 Por: Afonso Gomes http://afonsogomes.com https://github.com/AfonsoFG/PortugalSVG -->
<svg width="375" height="550" viewBox="0 0 12969 26674">
<path class="zEsp" d="M11215 1114l5-7m-2495 518l130-97 64 97 33-97 97-65 65-97 65-97-65-130-12-128 44-66 130 129-33-129 46 56 52-24 32 97 65-35-3-88 68 59 64 97 98-33h129l97-97 130 97 227 65 162-32 97-33 32-97V848l162 32 65 227h97l97 32 98 65 162-97 1 1 161-163 64 65 98 64v130l-112-22h1l143 216 97 33-32 129v130l-65 97v130l-32 97-33 97 33 97 64 227 195 97 97-65-29-129h256l-54 73 119 24h162l-57 97h57l226-32 130 129 130 162 97 33 32 97-97 130-65 129-65 130-97 97-65 97-32 97v130l-97 32 65 98-98 64-97-32-97 97-32 97-98 98-32 97-65 97-129 32-33 130-97-65-97 97-65 98-97-65-97 32h-130l-65 130-97 65v129l-96 96-163 163 32 130-32 97-65-65v195l-97 129-97 65-130 32-194-64-33 97 33 97 129 97 33 97 97 130 32 162 65 97 130 130-65 97v162l-32 130v162l56 70 41 221v324l-130 195v129l130 65 32 97 32 130-97 97-97 194 33 130 32 130 97 97 97 65-32 194-97 32-85 57-110 105 33 97-70 142-27-44h-195l-129 97-98-33-97 195-32 129 32 98 33 129 32 97 130 33h129l33 97 64 130 98 32 32 97 32 97v130l-32 97v130l-32 97-33 97v130l-32 162-97 65-33 97-97 32-65 130 65 129-65 98 33 129-98 130-32 162-194 65-98-33h-129l-97 65-195-32-194-33-162 33-130 64h-194l-130 33-97-33-97-64h-324l32 97 33 97 32 97 65 97 129 65 65 130 162 97 65 97 32 97 98 65h129l130 97-33 97v130l-74 185 42 42v162l130 97 64 97 130 97-65 130 33 97v130l129 129h65l130 33 97 32v130l-33 97 162 130 162-65 98-33 194 98 97 162v129l65 97-130 227-129 195-33 97-97 65 65 97v129l-97 33-65 129-65 98h-129l-98 97-32 97-97 32-97 130-130 65-32 97-33 97-32 292 97 64-32 98-33 97-97 162-32 162-65 162-33 97 98-32-33 97-97 97 97 32 97 65 65 162 97 130 195 194 65 162 64 97 98 33 32 194 65 97 65 98 97 129 65-97h162l64-97 130-33 97-32 97 32-97 130-32 97v130l-33 129-64 292-33 130-97 32-97 65-97-97-98-33-97 33-32 129-130 97-97-32h-130l-129 32v130l-33 97v130l-32 97-65 129-32 98-33 97-97 129-97 65-65 97-97 65-97 65-33 97-32 97-32 98-65 129 32 97-65 98-64 97-33 97-65 97-32 97v130l32 97 98 97 64 98 33 162 65 162 32 129v324l32 195 33 97-33 129 65 98 33 226 14 83-176-50-227 65-389 194-194 194-260 130-324 259-97 97-194 130h-324v-65l-551-356-129-65-292-97h-130l-97 32-97 32-162 33-162-130-97-32-97 32-195 65-97-32-97-33-97-32-98-32-129-65h-130l-227 32-97 65-30 70-35-70-97 97-162 65-129 32-227 33-97 97h-130l-72 102-57 24-60 8-70-37-97-32v-162l129-98v-129l97-162 33-97 32-97-32-130 97-32 97-195 33-129-33-130-32-97 97-162 65-130 129-227v-129l33-97v-130l32-97v-130l-32-129-33-98-64-129 32-97 32-98 33-97v-421l-33-130v-162l33-194 32-97-32-259-33-97-129-65-97-33-98-32 33-97 65-130 97-162 65-194 97-292 65-324v-421l-33-324-65-227-32-129-97-162-162-162-97-98-65-162-65 130h-130l-97 65-65 97-97 65-97 32h-129l-98-32-97 65h-129l-98 64-129 33 65-130 32-97 32-97 33-97v-162l-33-162-129-292-33-97-64-97-17-49 195-32 227-65-17 81 98 32 97 33 97-65 65-97 65-162 97-65v-130h129l-97-64 97-98h130l-130-32h-32l-33-130-97-162-64 98-98 64-97 98v226l-32 130-97 97-98 32-259 65-65-32h-129l-162 65-130 32-129-65-98-65-97 33H366l-129-65 64-129v-65l-64-97v-162l64-98 33-97 65-129 32-162 32-98 65-162-32-97 32-97-32-97 32-130h65l-65-97v-162l97-194 65-162 65-130 65-162 32-97-32-97 32-98v-129l-32-97 27-36-92-62v-129l-130-33 65-97 97 65 65-97h130l129-97 195-195 97-162 65-97 129-97 98-97 64-97 98-162 64-98-64-129 97-227 129-454 292-777 227-681 129-486-32-97-130-129 33-162 63 12 99-466 97-389 259-1069 65-291 97-519 162-680c67-266 96-475 130-745l-33-130-32-97v-195l-65-194-152-306c-15-178-51-367-107-536v-130l-33-97-64-97-65-195 32-194v-130l-65-129v-259l-64-292-98-356-129-227-34-127 1-262 33-97-33-130 33-97 194-259 227-97 32-162 130-97 194-98 65-194 195-97 194 32 65-129 162-33 259 33 194-65 130 32 32-97 292-194 194-98 33 98-33 129 65 227 97-65h130l97 33 33 97v129l-65 98-97 32-33 97-97 65-32 97-98 65-32 97-32 130 64 97 130 97v194l97 33h97l130 32 97-32 65-97 97 32 33-97 64-130 98-32h129l65-162 65-97 32 97v129l-32 130 129-32 65-98 194-32 357-97 97 65 194 64h130l-32 98-65 162h162l194-65 33-130 97 33 129-33 65 162 33 97 97-32 65-65 64-97 130 32 130-32h32z"/>
<path data-z="74" class="z z74" d="M5550 491h-137l-90 65-105 53c-42 75-52 129-80 186-50 98-386 485-517 452-60-15-140-34-174 35-67 133 154 157 239 178 27 7 32 136 41 173 5 20 63 18 85 18 44 0 50 8 66 41 33 64-150 157-126 253 18 72 97 173 179 133 67-34 91-115 174-94 89 22 67 160 19 224-56 75 35 27 94 42 24 6-89 141-94 151-19 38-9 54 0 87 35 140 106 243 234 147 257-193 413-109 544-174 37-19 30-118 45-179 27-106 245-210 326-271 35-26 32-46 32-87l120-299 32-130v-129l-32-97-65 97-65 162h-129l-98 32-64 130-33 97-97-32-65 97-97 32-130-32h-97l-97-33v-194l-130-97-64-97 64-227 96-57 34-105 97-65 33-97 97-32 65-98V621l-33-97-97-33z"/>
<path data-z="75" class="z z75" d="M3994 1562c-18 9-37 50-53 66-13 13-25 51-33 66-17 34 6 47 33 54 31 7 57 13 93 13 29 0 57-24 73-40 22-23 28-56 40-80 14-28-10-71-14-86-5-23-57-33-79-33-17 0-50 32-60 40z"/>
<path data-z="76" class="z z76" d="M2967 3106l23 107v259l65 129v130l-32 194c52-26 143-41 162-60 27-27 30-30 48-67 11-21 27-53 19-87-31-122-57-249-57-377 0-47-23-165-49-199-56-75-190-77-179-29z"/>
<path data-z="77" class="z z77" d="M10539 847v130l-32 97-97 33-162 32-227-65-130-97-97 97h-129l-98 33-64-97-68-59 3 88-65 35-32-97-52 24-46-56 33 129-130-129-44 66 12 128 65 130-130 194c191-14 388 225 551 271 224 62 343-11 578 27 226 36 144-20 319-7l30 111-16 128c172-44 69-18 192-106 121-85 217-68 342 22 181 131 254 166 466 202l65-194v-130l65-97v-130l32-129-97-33-144-216 112 22v-130l-98-64-64-65-167 169-157 90-98-65-97-32h-97l-65-227-162-33z"/>
<path data-z="78" class="z z78" d="M6907 4010c15-30-60 32-93 40-14 4-67-7-93-7-20 0-56 32-73 40-36 18-41 31-73 47-26 12-55 21-79 33-27 13-45 18-73 33-30 15-49 22-67 40-25 25-49 35-66 53-19 19-22 46-13 79 9 37 68 13 92 7 44-11 54-26 100-26 17 0 56 38 73 46l80 40c43 22 37 13 86 13 28 0 50-27 60-46 15-32 25-55 33-87 7-27 24-69 26-73 19-37 50-42 73-66 20-19 35-35 47-60 13-27 6-68 6-99 0-22-33-7-46-7z"/>
<path data-z="79" class="z z79" d="M10065 3148c-22 5-67 53-93 66-20 10-46 34-59 46-20 20-38 45-53 60-16 16-20 58-20 86 0 29 37 58 59 80s35 26 73 26c44 0 53-3 87 14 16 8 40 53 53 66 23 23 58-55 59-60 9-34 18-57 27-92 8-32 27-49 40-73 12-24 23-46 33-67 12-25 26-45 40-73 15-30 22-46 13-79-6-24-34-48-53-67s-61 7-73 13c-31 16-45 27-73 34-22 5-25 13-60 20z"/>
<path data-z="80" class="z z80" d="M12681 2601c-284 86-859 830-1002 1079-71 124-416 386-576 392-221 8-340 239-420 442-98 245-132 448-355 624-275 217-322 293-581 523-108 96-100-1-207 115-64 112 19 209 94 284-41 168-76 192 81 285 77 46 166 91 224 161 205 296 138 95 214 445l32 71c44 7 112 12 151 59 47 56 6 113 193 133l108-16v-162l32-130v-162l65-97-130-130-65-97-32-162-97-130-33-97-129-97-33-97 33-97 194 64 130-32 97-65 97-129v-195l62 65 35-97-32-130 259-259v-129l97-65 65-135 130 5 97-32 97 65 65-98 97-97 97 65 33-130 129-32 65-97 32-97 98-98 32-97 97-97 97 32 98-64-65-98 97-32v-130l32-97 65-97 97-97 130-259 97-130-32-97-97-33-159-190z"/>
<path data-z="81" class="z z81" d="M3185 7846l-17 77c2 0 141 57 147 48 9-10 52-100 59-111-1-18 0-79 0-95v-99l-144-59-45 239z"/>
<path data-z="82" class="z z82" d="M8161 8078c-20-40-67 59-106 79-113 57-222 197-332 252-26 13-68 18-99 34-119 59-304 164-392 252-32 32-54 34-73 73-34 67-59 42-86 152l-100 160c-59 117-180 117-139 199 11 23 14 95 66 165 71 94 42 85-6 133-70 69-52 74 26 93 140 35 54 57 93 212 22 88 120-79 232 34 12 11 53 26 67 33 73 37 71 87 166 40 106-54 106-98 219-127 107-26 62-135 119-192 78-78 61-50 113-153 29-58 113-66 172-185 33-66 60-51 60-160 0-66 138-83 166-139 35-69 14-180 159-325 75-75 291-142 199-325-38-77-122 13-46-140 44-89 55-157-33-245-55-55-76-58-146-93-72-35-186 51-233 113-23 31-24 43-66 60z"/>
<path data-z="83" class="z z83" d="M9737 9522c-21 21-257 121-305 145-71 35-144 78-165 160-15 60 28 116 53 166 13 27 198 42 259 73 29 15 163 12 186 0l88 24 71 23 31-124 98-200 98 33 129-97c5-5-50-30-132-97-15-29-107-23-151-67-11-10-61-128-74-153-39-79-166 95-186 114z"/>
<path data-z="84" class="z z84" d="M10442 11604l-328 216-199 228-40 344-135 156-202 53-253-21-78-181 78-252-135 9-349 399-144 101-234 28-269-48c12-95 22-190 35-285l89-140-43-60-202 140-132 287 79 225h324l194 97 130-33h194l134-65 158-32 389 65 97-65h129l98 33 194-65 32-162 98-130-33-129 65-98-65-129 65-130 97-32 33-97 97-65 32-162z"/>
<path data-z="85" class="z z85" d="M2724 13207l-232 544c-105 210-115 774 40 464 43-87 94-76 132-152 77-153 144-67 213-67 62 0-19-74 46-139 14-14 65 31 73 40 38 37 110-31 133-53 89-89 141-11 186 79 7 15 92 62 152-59 30-59 23-123 126-226 23-23 31-44 53-66 26-26 140 33 219-126 31-62 23-110 7-173-10-39-122 13-173 13-66 0-155 122-192 160-47 46-212-73-239-87-26-13-20-156-20-186 0-72-134-138-239-112-109 27-230 53-285 146z"/>
<path data-z="86" class="z z86" d="M194 13935c107 0 194 91 194 203s-87 203-194 203-194-91-194-203 87-203 194-203z"/>
<path data-z="87" class="z z87" d="M8297 13317l-67 131c-37 229-229 486-103 681l195 424 14 292 135-32 48-101 71 32 101 156 23 144 149 74 163 165 389 144h185v-130l-227-65h-65l-129-129v-130l-33-97 65-130-130-97-64-97-130-97v-162l-42-42 74-185v-130l33-97-130-97h-129l-98-65-32-97-65-97-162-97-39-69z"/>
<path data-z="88" class="z z88" d="M528 16528l-2 6-63 156-33 105-31 155-65 129-33 97-64 98v161l64 98v65l-64 129 129 65h162l97-33c2 1-57-45-90-53-30-8-127 2-108-76 8-31 16-45 48-61 61-30 116 0 159-22 29-14 49-25 66-59 19-36 86-227 53-260-17-16-53-25-66-52-53-107 57-265 34-358-31-123-141-158-193-290z"/>
<path data-z="89" class="z z89" d="M2297 16501c-19 29-40 56-57 85-9 45-16 89-25 133-42 45-88 86-131 129-20 16-50 25-58 52-8 17-17 32-25 49-19 37-36 56-55 93-4 13-21 121-25 134l98-64 64-98 97 162 33 130h32l130 32 68 37 116-11c12-21 33-43 9-64-10-25-39-45-30-74-2-27 13-61-14-80l-108-124c-11-4-33-12-41-18-17-47-38-93-55-140 13-13 31-26 39-42-5-21-3-47-11-66-16-11-37-20-51-32 6-48 15-95 7-142-2-27-5-54-7-81z"/>
<path data-z="90" class="z z90" d="M1192 17970l17 49 64 97 33 97 84 189c7-4 75-61 77-63 20-20 27-40 27-73 0-26-100-197-107-328 0 0-174 26-195 32z"/>
<path data-z="91" class="z z91" d="M2536 18357c-21 3-81 45-92 60-36 47-86 112-133 147-41 30-104 92-145 112-60 30-121 62-181 92-51 25-98 84-112 140-7 27-14 52-46 59-35 9-52 16-87 7-27-6-42-16-78-7-52 15-88 51-150 36-32-60-42-17-81-65-21 52-41 129-60 182l-65 130 129-33 98-64h129l97-65 98 32h129l97-32 97-65 65-97 97-65h130l65-130c32-64 107-101 107-195 0-38 0-162-42-172-13-3-44-10-66-7z"/>
<path data-z="92" class="z z92" d="M3141 18463c-112 28-143 197-167 291-8 34-6 129-2 147 10 48 126 41 156 11 138-109 12-168 27-231 11-14 22-29 30-44 35 43 55 50 110 73 8 3-4 11-7 58 9 98 17 196 26 294 40 26 80 53 121 80 19 62-157 59-197 14-48-47-267-96-326-90-160-89-160-177-268-255-30-21-43-15-75 1l33 81 97 98 162 162 48 81c36-10 39-17 79-7 59 14 78 59 153 78 76 19 216-51 357-24 88 22 182-22 272-22 13 0 112-59 67-119-2-3-372-51-372-345 0-40-4-65-18-94-24-46-103-194-133-225-46-45-121-26-173-13z"/>
<path data-z="93" class="z z93" d="M3033 20690l-10 50-97 292-65 194-31 52-33 55 42 23c8 4 53 38 80 18 98-74 54-75 105-126 30-30 84-92 94-133 15-57-1-113 60-159 20-14 40-26 60-45 31-31 2-17-7-53-6-24 6-81 0-94-33-66-86-57-154-67l-44-7z"/>
<path data-z="94" class="z z94" d="M3066 21718l-78 14 35 110 32 259-32 97-33 194v162l33 130v421l-33 97-32 98-32 97 61 123 36 104 32 129v130l-32 97-2 131-31 96-3 135-191 351-97 162 65 227-33 129-97 195-97 32 32 130-65 194-97 162v129l-129 98v162l167 69 60-8 57-24 72-102h130l97-97 227-33 167-47-203-191-154 46-131-126 126-304 154-305 66-165 223-731 98-263 28-327-66-314 353-113-94-358-85-133-252-186-80-144 20-473-94-238-98-28z"/>
<path data-z="95" class="z z95" d="M7542 21920l-117 39-28 85-158 67-94 59-85-25-112-140-74-7-108 225 7 193 55 140 113 133 73 39 53 154 39 158 67 53 112 140 73 52 46 53 165 161 161 66 158-27 156-21 7-94-103-124 21-179 27-165 85-147-99-225-66-174-14-239-151-165-209-85z"/>
<path data-z="96" class="z z96" d="M8108 25510l-241 147-293 168-259 182-191 129-571 120-65 11-208-144-159 125 401 259v65h324l194-130 97-97 324-259 260-130 194-194 284-142-91-110z"/>
<path data-z="97" class="z z97" d="M8595 25146l-78 41c-26 26-38 40-46 73-12 47-2 48-28 74-8 8-69 20-80 25-27 13-26 44-18 73 6 25 81-5 85-6 20-5 45-26 80-26l97 6 67-65-14-97-65-98z"/>
<path data-z="98" class="z z98" d="M1997 14992s-66 96-81 127c-13 26-43 89-69 102-23 12-65 10-89 16-27 7-26 49-20 73 9 37 37 46 66 53s61 7 93 7h100c39 0 62-9 86-33 20-20 27-49 33-73 8-30 13-59 20-87 9-35 25-65 33-99 10-39 2-58-20-80-23-24-31-24-66-33l-86 27z"/>
</svg>