<!-- cc-by-sa-4.0 Por: Afonso Gomes http://afonsogomes.com https://github.com/AfonsoFG/PortugalSVG -->
<svg width="375" height="550" viewBox="0 0 12969 26674">
<ellipse data-z="25" class="z z25" cx="95" cy="14144" rx="95" ry="100"/>
<path data-z="24" class="z z24" d="M6472 26674l0 -65 65 -163 66 -98 98 32 98 -98 130 0 196 0 98 -98 0 -195 131 -33 98 -65 130 0 98 -66 98 -65 98 -98 131 -33 130 -32 131 -131 163 -32 98 -66 33 -130 65 98 33 228 14 84 -178 -51 -228 65 -392 196 -196 196 -261 130 -327 262 -98 98 -195 130 -327 0z"/>
<path data-z="23" class="z z23" d="M6603 26348l-66 98 -65 163 -555 -359 -131 -66 -293 -97 -131 0 -98 32 -98 33 -163 32 -163 -130 -98 -33 -98 33 -196 65 -98 -32 -98 -33 -98 -33 -98 -32 -131 -66 -130 0 -229 33 -98 65 -31 70 -34 -70 98 -98 0 -163 196 -65 98 -66 130 33 229 33 98 32 131 -65 163 -33 98 -65 32 98 -98 65 -65 98 -163 66 130 32 164 -98 130 -32 131 -164 98 -65 98 65 -66 131 -163 33 -32 98 130 0 0 130 98 -32 98 32 131 -98 98 -32 -33 -131 98 -65 98 163 196 65 163 0 65 131 98 33 131 0 98 65 163 -33 98 -98 98 -32 -65 163 0 196zm-4310 98l71 37 60 -8 58 -24 -69 -96 -98 -31 -13 71 -9 51zm3787 -588l-65 -98 131 -131 65 98 -33 98 -98 33z"/>
<path data-z="22" class="z z22" d="M5917 25923l-163 0 -196 -65 -98 -163 -98 65 33 131 -98 32 -131 98 -98 -32 -98 32 0 -130 -130 0 32 -98 163 -33 66 -131 -98 -65 -98 65 -131 164 -130 32 -164 98 -130 -32 163 -66 65 -98 98 -65 -32 -98 -98 65 -163 33 -131 65 -98 -32 -229 -33 -130 -33 -98 66 -196 65 0 163 -98 98 -98 98 -163 65 -131 33 -228 33 -98 98 -131 0 -72 103 -69 -96 -98 -31 -13 71 -9 51 -98 -33 0 -163 131 -98 196 -33 97 -32 131 32 98 -32 98 -229 196 -131 163 -32 65 -131 98 98 164 -33 163 -130 163 98 327 -33 163 -65 228 -131 98 -32 98 -98 98 -33 163 0 131 -33 98 -32 98 65 98 -33 196 66 98 32 196 -32 359 261 98 32 163 66 294 65 490 -33 326 -32 98 -33 131 -98 163 -32 196 -98 98 -33 -33 131 -163 32 -131 131 -130 32 -131 33 -98 98 -98 65 -98 66 -130 0 -98 65 -131 33 0 195 -98 98 -163 0 -163 0 -98 98 -98 -32 0 -196 65 -163 -98 32 -98 98 -163 33 -98 -65 -131 0 -98 -33 -65 -131zm229 -294l-131 131 65 98 98 -33 33 -98 -65 -98z"/>
<path data-z="21" class="z z21" d="M3566 25107l-98 -65 0 -131 131 0 131 -98 163 -32 98 -33 130 0 98 33 131 130 -163 98 -98 65 -255 -23 -170 56 -98 0z"/>
<path data-z="20" class="z z20" d="M2619 21581l196 0 164 65 130 98 163 131 98 130 131 327 65 98 196 228 98 66 163 98 360 163 163 33 326 163 131 98 163 130 196 164 294 326 32 98 98 229 131 130 33 98 -66 131 -163 0 -98 -33 -196 -131 -489 -32 -131 32 -229 98 -130 33 -327 163 -36 33 -94 0 -98 33 -163 32 -139 98 -123 0 0 131 98 65 33 131 -163 293 -49 49 -17 -16 -65 131 -163 32 -196 131 -98 229 -98 32 -131 -32 -97 32 -196 33 0 -131 98 -163 32 -98 33 -98 -33 -131 98 -32 98 -196 33 -131 -33 -130 -33 -98 98 -163 66 -131 130 -229 0 -130 33 -98 0 -131 33 -98 0 -130 -33 -131 -33 -98 -65 -130 33 -98 32 -98 33 -98 0 -131 0 -130 0 -164 -33 -130 0 -164 33 -195 33 -98 -33 -262 -33 -97 -130 -66 -98 -32 -98 -33 32 -98z"/>
<path data-z="19" class="z z19" d="M5427 23638l-261 -229 -163 -130 -131 -98 -326 -163 -163 -33 -360 -163 -163 -98 -98 -66 -130 -163 -131 -163 -131 -327 -98 -130 -97 -65 -196 -164 -164 -65 -196 0 66 -131 98 -163 65 -196 98 -294 65 -326 0 -196 0 -229 -32 -326 -66 -229 -32 -130 -98 -163 -164 -164 -97 -98 -66 -163 98 -32 65 -98 33 -131 98 -98 33 -131 98 -130 98 -98 -164 -98 -65 -98 98 33 65 -98 -98 -98 -32 -131 130 -32 33 -131 65 -98 98 -33 98 -130 131 65 98 33 65 98 229 228 130 65 131 33 163 33 163 0 229 130 -33 131 33 98 -163 -33 -98 66 -66 130 164 -33 0 196 -33 196 65 98 98 -65 0 163 -130 0 -33 131 130 32 98 98 -32 98 163 66 131 0 -33 -98 196 65 0 196 65 98 33 98 130 196 229 -66 98 33 98 98 261 163 131 131 21 65 -21 65 -98 98 -33 131 -163 261 130 65 164 -98 -33 164 -163 0 -229 522 -163 229 -98 228 -163 33 -33 98 -98 196 0 196 196 359 65 196 98 228 0 163 -32 131 32 196zm-196 -6726l-98 131 -130 32 -131 -32 -130 65 0 131 -98 98 32 196 -32 163 -164 -131 -130 -32 -229 -33 -359 -131 131 0 294 0 201 81 125 50 -33 -131 -163 -32 -261 -131 -196 -33 -130 -65 -164 -98 -130 -98 0 -163 261 -98 228 0 196 65 98 66 33 -131 163 -33 131 98 130 -32 164 65 130 0 261 163z"/>
<path data-z="18" class="z z18" d="M3664 25107l196 -65 229 32 261 -163 -131 -130 -78 -16 -85 -17 392 -196 130 -33 229 -98 131 -32 489 32 196 131 98 33 163 0 66 -131 -33 -98 -131 -130 -98 -229 -32 -98 -229 -261 -32 -196 32 -131 0 -163 -98 -228 -65 -196 -196 -359 0 -196 98 -196 33 -98 163 -33 98 -228 163 -229 229 -522 163 0 33 -164 -164 98 -130 -65 163 -261 33 -131 98 -98 32 -98 66 -98 228 -228 98 -131 163 -32 131 -98 228 -33 98 98 196 -33 196 66 131 130 130 98 196 98 163 163 98 66 98 -33 196 0 196 -65 523 32 261 33 196 -33 65 98 65 98 98 131 65 -98 164 0 65 -98 131 -33 98 -32 98 32 -98 131 -33 98 0 130 -33 131 -65 294 -33 131 -98 32 -98 65 -98 -97 -97 -33 -98 33 -33 130 -131 98 -98 -33 -130 0 -131 33 0 131 -32 98 0 130 -33 98 -65 131 -33 98 -33 98 -98 130 -98 66 -65 97 -98 66 -98 65 -32 98 -33 98 -33 98 -65 131 33 97 -66 98 -65 98 -33 98 -65 98 -33 98 0 131 33 98 98 98 65 98 33 163 65 163 33 131 0 163 0 163 33 196 32 98 -32 131 -33 130 -98 66 33 -131 -98 33 -196 98 -163 32 -131 98 -98 33 -326 32 -490 33 -294 -65 -163 -66 -98 -32 -359 -261 -196 32 -280 -93 -112 28 -98 -65 -98 32 -131 33 -163 0 -98 33 -98 98 -98 32 -228 131 -163 65 -327 33 -163 -98 -163 130 -164 33 -81 -82 49 -49 163 -293 -33 -131 98 0z"/>
<path data-z="17" class="z z17" d="M9672 20144l-196 33 -261 -33 -523 -32 -196 65 -196 0 -98 33 -98 -66 -163 -163 -196 -98 -130 -98 -131 -130 -196 -66 -196 33 -98 -98 -228 33 -131 98 -163 32 -98 131 -228 228 -77 131 -21 -65 -131 -131 -261 -163 -98 -98 -98 -33 -229 66 -130 -196 -33 -98 -65 -98 0 -196 -196 -65 33 98 -131 0 -163 -66 32 -98 -98 -98 -130 -32 33 -131 130 0 0 -163 -98 65 -65 -98 33 -196 0 -196 -164 33 66 -130 98 -66 163 33 -33 -98 33 -131 65 -98 18 -44 15 12 32 -163 -32 -196 98 -98 0 -131 130 -65 131 32 130 -32 98 -131 54 37 12 -4 98 -33 -33 -98 33 -98 196 33 65 98 130 -65 66 -98 -196 -66 0 -163 98 -98 130 131 98 -33 -98 -228 33 -131 131 -33 130 -98 33 -196 196 -195 32 -98 98 -131 33 -98 131 -65 -262 -98 -163 -33 -32 -98 130 -65 196 0 131 -98 261 0 130 -131 131 -65 229 -65 424 -33 131 0 293 196 98 33 98 32 33 98 163 164 131 0 98 130 163 98 131 0 130 0 131 33 98 32 0 131 -33 98 163 131 164 -66 97 -32 196 98 98 163 0 130 66 98 -131 229 -131 196 -32 98 -98 65 65 98 0 131 -98 32 -65 131 -65 98 -131 0 -98 98 -33 98 -98 32 -97 131 -131 65 -33 98 -32 98 -33 294 98 65 -33 98 -32 98 -98 163 -33 164 -65 163 -33 98 98 -33 -33 98 -98 98 98 33 98 65 66 163 98 131 195 196 66 163 65 98 98 33 33 195z"/>
<path data-z="16" class="z z16" d="M4252 16553l-33 65 33 33 -33 131 -98 -66 -196 -65 -228 0 -261 98 0 163 130 98 164 98 130 65 196 33 261 131 163 32 33 131 -326 -131 -294 0 -131 0 359 131 229 33 130 32 149 119 -18 44 -65 98 -229 -130 -163 0 -163 -33 -131 -33 -130 -65 -229 -228 -65 -98 -98 -33 -131 -65 -98 130 -98 33 -65 98 -33 131 -130 32 32 131 98 98 -65 98 -98 -33 65 98 164 98 -98 98 -98 130 -33 131 -98 98 -33 131 -65 98 -98 32 -163 0 -131 65 -293 0 -229 131 -294 0 33 -98 0 -163 -33 -163 -130 -294 -33 -98 -65 -98 -17 -49 196 -33 229 -65 -17 82 98 32 98 33 98 -65 66 -98 65 -164 98 -65 0 -130 130 0 0 0 -98 -66 98 -98 131 0 -131 -32 98 -164 -130 164 -33 -131 -98 -163 -65 98 -98 65 -98 98 0 229 -33 130 -98 98 -98 33 -261 65 -65 -33 65 -196 33 -195 98 -131 32 -98 98 -33 66 -130 261 -229 -14 -20 47 -78 293 -392 0 -130 -32 -131 32 -98 98 -32 -32 -131 32 -98 33 147 33 147 130 -33 131 -32 -33 -164 163 33 131 -33 98 -65 65 -98 98 -294 -65 -163 -131 -196 66 -130 32 98 131 98 33 130 97 33 98 -163 66 -131 65 -98 98 -131 -65 -98 -33 -98 0 -163 163 -32 98 -33 33 -131 65 -98 -33 -130 -97 -65 32 -98 163 0 66 98 98 97 98 -65 65 -196 98 33 0 196 65 130 98 66 0 163 -130 65 -98 131 163 98 98 130 -131 66 -163 -33 -98 33 -131 130 -32 131 -66 98 -32 163 -98 98 -98 131 0 130 98 -32 65 -98 98 -66 196 -98 98 -32 65 98 -98 65 -130 163 -262 131 -97 32 -33 262 -131 196 -32 97 130 98 196 33 131 -98 98 -65 261 -196 261 0 163 -33 196 -130 131 65 130 33 33 98 33 98 32 97 -130 66 -131 -66 -98 33 -163 -98 -163 33 -131 65 -98 33 -65 98 -98 65z"/>
<path data-z="15" class="z z15" d="M2391 18904l-131 0 -98 65 -65 98 -98 65 -98 33 -130 0 -98 -33 -98 66 -131 0 -98 65 -130 33 65 -131 33 -98 32 -98 163 0 131 0 229 -131 293 0 131 -65 163 0 -65 131z"/>
<path data-z="14" class="z z14" d="M4252 16553l98 -65 65 -98 98 -33 131 -65 163 -33 163 98 98 -33 131 66 130 -66 -32 -97 -33 -98 -33 -98 -130 -33 -131 -65 -196 130 -163 33 -261 0 -261 196 -98 65 -131 98 -196 -33 -130 -98 32 -97 131 -196 33 -262 97 -32 262 -131 130 -163 98 -65 -65 -98 -98 32 -98 49 -196 115 -65 98 -98 32 0 -130 98 -131 98 -98 32 -163 66 -98 32 -131 131 -130 98 -33 163 33 131 -66 -98 -130 -163 -98 98 -131 130 -65 0 -163 -98 -66 -65 -130 0 -196 -98 -33 -65 196 -98 65 -98 -97 -66 -98 -163 0 -32 98 97 65 33 130 -65 98 -33 131 -98 33 -163 32 0 163 33 98 65 98 -98 131 -65 98 -66 131 -98 163 -97 -33 -33 -130 -131 -98 -32 -98 -66 130 131 196 65 163 -98 294 -65 98 -98 65 -131 33 -163 -33 33 164 -261 65 -66 -294 -32 98 32 131 -196 -196 -32 -229 -66 -130 196 -294 33 -131 0 -392 33 -98 163 -65 196 -196 130 -32 98 65 131 -98 98 -33 -65 -98 -33 -98 131 -65 130 -32 229 -98 98 -131 228 -294 131 -98 65 -228 98 -66 131 131 98 33 130 -66 65 229 33 98 -130 163 32 98 98 98 196 98 98 -33 65 -130 66 -98 97 -33 164 -98 32 -131 33 -130 -65 -98 163 33 98 98 33 130 32 163 0 131 98 65 0 131 114 33 115 32 130 -32 262 0 195 163 98 -33 229 -98 228 0 164 -130 32 98 -98 130 -65 163 -98 33 -196 261 -32 98 98 33 195 -33 229 98 -131 65 -130 131 -261 0 -131 98 -196 0 -130 65 32 98 163 33 262 98 -131 65 -33 98 -98 131 -32 98 -196 195 -33 196 -130 98 -131 33 -33 131 98 228 -98 33 -130 -131 -98 98 0 163 196 66 -66 98 -130 65 -65 -98 -196 -33 -33 98 33 98 -110 37 -315 -200 -130 0 -164 -65 -130 32 -131 -98 -163 33 -33 -33 33 -65z"/>
<path data-z="13" class="z z13" d="M10357 9533l33 -130 -65 -131 98 -65 98 163 0 131 32 98 -70 143 -126 -209zm-1547 4734l-53 -65 -32 -196 -98 131 -33 -131 -65 -130 -33 98 -98 -33 -65 131 -33 -196 -98 32 0 196 -98 -32 23 53 173 143 33 163 -131 0 0 130 -163 -163 -65 -98 -98 -65 -163 -163 -327 -425 -130 0 -98 66 -164 130 -228 0 -229 98 -98 33 -195 -163 -131 0 -131 0 -130 32 -229 -65 0 -131 -98 -65 0 -131 -32 -163 -33 -130 0 -131 -33 -98 -130 -33 0 -130 -33 -163 33 -98 0 -131 65 -98 65 -98 164 -98 97 -33 229 -195 131 -66 163 -65 65 0 0 33 -98 261 98 -33 98 -130 98 -33 98 98 65 98 131 -196 98 -65 0 -131 98 -65 65 98 65 -131 131 -33 33 -98 65 -130 0 -294 65 131 98 -66 33 -163 98 33 98 261 163 0 163 -65 98 130 65 -196 -32 -98 0 -130 65 -98 196 -131 -33 -228 327 -131 -65 -196 97 -32 164 32 163 -32 98 65 196 -65 130 98 66 163 -33 163 33 131 -66 196 98 32 98 -98 98 98 -65 -98 65 -130 98 32 163 164 98 -33 -98 -131 -163 -130 -32 -98 -98 -98 -33 -196 131 -33 65 -98 98 -163 -98 -33 -229 164 -98 32 -130 -32 -66 -98 -97 32 0 -130 130 -66 261 -32 131 -66 98 -65 98 33 228 196 -130 98 -98 -33 -98 196 -33 131 33 97 32 131 33 98 131 33 130 0 33 98 65 130 98 33 33 98 33 98 0 130 -33 98 0 131 -33 98 -32 98 0 130 -33 164 -98 65 -33 98 -98 33 -65 130 65 131 -65 98 33 130 -98 131 -33 163 -196 65 -98 -32 -130 0 -98 65 -196 -33 -196 -32 -163 32 -131 66 -196 0 -130 32 -98 -32 -98 -66 -327 0 33 98 33 98 32 98 65 98 131 65 65 131 164 98 65 98 33 98 98 65 130 0 131 98 -33 98 0 131 -78 195zm-248 -5419l98 228 0 164 -131 65 -98 -65 33 -98 -196 0 -33 -131 65 -130 98 -33 164 0z"/>
<path data-z="12" class="z z12" d="M9280 15247l-196 0 -163 -98 -98 -130 -131 0 -163 -164 -33 -98 -98 -32 -98 -33 -293 -196 -131 0 -424 33 -229 65 -229 -98 -195 33 -98 -33 32 -98 98 -130 98 -131 98 -33 65 -163 98 -130 -32 -98 98 -66 130 0 327 425 163 163 98 65 65 98 163 163 0 -130 131 0 -33 -163 -179 -147 -17 -49 98 32 0 -196 98 -32 33 196 65 -131 98 33 33 -98 65 130 33 131 98 -131 32 196 98 98 0 163 131 98 65 98 131 98 -65 131 32 98 0 130 131 131zm424 -5648l-261 32 -130 66 0 130 97 -32 66 98 130 32 98 -32 83 -59 146 -105 98 33 -98 163 -65 98 -131 33 33 196 98 98 32 98 163 130 98 131 -98 33 -163 -164 -98 -32 -65 130 65 98 -98 -98 -98 98 -98 -32 66 -196 -33 -131 33 -163 -66 -163 -130 -98 -196 65 -98 -65 -163 32 -164 -32 -97 32 65 196 -163 65 -164 66 33 228 -196 131 -65 98 0 130 32 98 -32 98 -33 98 -98 -130 -163 65 -163 0 -98 -261 -98 -33 -33 163 -98 66 -65 -131 0 294 -65 130 -33 98 -131 33 -65 131 -65 -98 -98 65 0 131 -98 65 -131 196 -65 -98 -98 -98 -98 33 -98 130 -98 33 98 -261 33 -131 98 33 98 -33 98 33 65 -164 -98 -65 -33 -98 -98 131 -261 98 -98 -98 33 -98 131 32 97 -97 66 -98 65 -98 131 32 130 -32 163 -131 66 -131 98 -65 98 -130 196 -98 32 -164 98 -98 -32 -98 0 -163 97 -65 -32 -163 98 -164 163 -130 294 -359 65 -98 98 -33 33 131 196 0 -33 98 98 65 131 -65 0 -164 -98 -228 130 0 163 33 33 195 33 98 32 229 66 98 163 0 261 -131 229 66 163 97 -131 66z"/>
<path data-z="11" class="z z11" d="M236 17239l131 -33 98 65 98 -32 0 196 -131 0 -65 98 -164 32 -65 -98 0 -163 98 -65z"/>
<path data-z="10" class="z z10" d="M1183 17826l-131 0 -163 66 -131 32 -130 -65 -98 -65 -98 32 -163 0 -131 -65 65 -131 164 -97 65 -98 131 0 0 -196 -98 32 -98 -65 -131 33 -98 65 65 -98 33 -98 65 -131 33 -163 33 -98 65 -163 -33 -98 33 -98 -33 -98 33 -130 131 0 98 -66 97 -130 0 163 0 131 98 65 33 98 98 -33 98 131 98 65 33 98 163 33 130 0 164 0 98 32 65 98 -261 229 -66 130 -98 33 -32 98 -98 131 -33 195 -32 98 -33 98z"/>
<path data-z="9" class="z z9" d="M3370 6595l98 98 98 163 33 261 65 164 98 196 -37 61 -28 -29 -33 131 -98 33 -65 130 -65 98 -33 229 -65 195 65 229 65 359 131 0 163 -163 98 98 -33 98 -130 196 0 196 -98 65 -98 -33 -98 66 -29 208 29 118 -98 131 0 228 98 33 65 -98 98 -33 196 -196 98 33 98 -65 98 -33 33 -98 98 33 98 -33 -33 163 65 196 -130 98 -33 98 -65 294 -272 103 -185 93 -131 -33 -131 -65 -98 -163 -97 -98 -131 -66 -65 -98 -98 -65 -196 -65 -100 -20 100 -470 98 -392 261 -1077 65 -294 98 -522 163 -686zm-2350 7607l0 196 -66 98 66 131 98 196 -131 -33 -65 -163 -98 -66 -66 98 -97 -65 0 -131 -131 -32 65 -98 98 65 65 -98 131 0 131 -98zm1632 -3787l98 98 196 33 98 -33 65 98 66 228 130 33 98 -98 98 65 65 98 98 -65 196 -98 0 131 -130 98 32 261 -130 163 -33 98 -98 33 -131 98 -98 98 -65 98 -65 130 65 98 -98 -33 -130 33 -98 65 65 98 98 -65 131 33 -66 98 33 130 -98 66 -98 98 -98 -131 -98 65 -33 163 33 229 -131 65 0 164 -97 -33 -123 0 57 -98 98 -163 131 -359 -131 -33 -98 98 -98 98 -196 98 -228 98 32 98 131 -33 98 -98 98 33 -33 98 -98 65 -65 98 -65 163 -131 65 -32 131 -98 196 -33 163 -131 261 -65 294 -65 196 -66 98 -130 33 -98 -33 -33 -98 196 -131 98 -97 33 -131 -66 -98 0 -131 66 -163 98 -130 228 -294 -32 -131 65 -98 -65 -130 98 -229 130 -457 294 -784 229 -685 130 -490z"/>
<path data-z="8" class="z z8" d="M1869 16716l-47 78 -51 -78 -98 -32 -196 0 -98 0 -163 -33 -33 -98 -98 -65 -98 -131 -98 33 -33 -98 -98 -65 0 -294 -97 130 -98 66 -66 0 -65 -98 0 -164 98 -195 65 -164 66 -130 65 -164 32 -98 -32 -97 32 -98 0 -131 -32 -98 98 -131 98 66 65 163 131 33 -98 -196 -66 -131 66 -98 0 -196 196 -196 98 -163 65 -98 130 -98 98 -98 66 -98 98 -163 32 131 -228 294 -98 130 -66 163 0 131 66 98 -33 131 -98 97 -196 131 33 98 98 33 130 -33 66 -98 65 -196 65 -294 131 -261 33 -163 98 -196 32 -131 131 -65 65 -163 65 -98 98 -65 33 -98 -98 -33 -98 98 -131 33 -32 -98 228 -98 196 -98 98 -98 98 -98 131 33 -131 359 -98 163 -65 98 131 0 97 33 0 -164 131 -65 -33 -229 33 -163 98 -65 98 131 98 -98 98 -66 -33 -130 66 -98 -131 -33 -98 65 -65 -98 98 -65 130 -33 98 33 -65 -98 65 -130 65 -98 98 -98 131 -98 98 -33 33 -98 130 -163 -32 -261 130 -98 0 -131 -196 98 -98 65 -65 -98 -98 -65 -98 98 -130 -33 -66 -228 -65 -98 -98 33 -196 -33 -98 -98 -33 -98 -130 -131 33 -163 163 33 196 65 98 65 65 98 131 66 97 98 98 163 131 65 131 33 195 -98 262 -98 65 -294 33 -98 130 -98 -65 -196 33 -163 -98 33 -98 -33 -33 98 -98 33 -98 65 -98 -33 -98 98 -98 98 -98 33 -65 98 -98 -33 0 -228 98 -131 -33 -131 33 -195 98 -66 98 33 98 -65 0 -196 130 -196 33 -98 -98 -98 -163 163 -131 0 -65 -359 -65 -229 65 -195 33 -229 65 -98 65 -130 98 -33 33 -131 98 98 -33 131 0 457 33 98 32 98 98 98 66 98 -33 294 33 163 98 98 98 32 187 -80 41 113 0 261 0 131 0 359 33 196 0 130 65 229 33 522 65 719 65 163 0 326 0 457 -98 196 -130 49 -33 49 -130 66 -98 -33 -131 -131 -98 66 -65 228 -131 98 -228 294 -98 131 -229 98 -130 32 -131 65 33 98 65 98 -98 33 -131 98 -98 -65 -130 32 -196 196 -163 65 -33 98 0 392 -33 131 -196 294 66 130 32 229 196 196 -98 32 -32 98 32 131 0 130 -293 392z"/>
<path data-z="7" class="z z7" d="M7517 9795l32 163 -97 65 0 163 32 98 -98 98 -32 164 -196 98 -98 130 -98 65 -66 131 -163 131 -130 32 -131 -32 -65 98 -66 98 -97 97 -131 -32 -33 98 98 98 261 -98 98 -131 33 98 98 65 -65 164 -98 -33 -98 33 -98 -33 -33 98 -65 0 -294 131 -229 195 -97 33 -164 98 -130 196 0 131 -33 98 33 163 0 130 130 33 33 98 0 131 -98 -98 -163 -33 65 98 -65 261 -164 98 -97 33 -66 98 -65 130 -98 33 -196 -98 -98 -98 -32 -98 130 -163 -33 -98 -65 -229 33 -49 130 -49 98 -196 0 -424 0 -359 -65 -163 -65 -719 -33 -522 -65 -229 0 -130 -33 -196 0 -359 0 -131 0 -261 -41 -113c94,-40 172,-67 270,-116l196 262 65 163 98 33 294 -294 65 -164 163 33 163 -98 164 98 65 98 33 98 -66 98 -261 294 -130 98 -66 163 -130 98 -33 131 0 228 -163 294 -16 83 -17 15 33 196 -33 163 33 163 98 33 228 -98 66 -163 98 -98 65 98 130 -66 164 -32 196 -66 98 -65 65 -196 98 -65 -66 131 0 130 98 -32 98 65 33 98 33 -98 32 -131 196 -163 131 -65 98 -131 32 -131 164 -163 65 -98 131 -98 65 -32z"/>
<path data-z="6" class="z z6" d="M11957 3036l33 66 98 130 0 131 -131 -33 -33 -163 -65 -98 98 -33zm-260 523l-132 0 -196 -33 -195 33 -164 -66 0 164 66 130 -66 98 -359 131 -33 98 0 163 -65 98 163 0 -32 98 -163 33 65 98 130 -33 131 65 -98 65 -98 -32 -130 32 -33 164 -98 32 -131 0 -32 -98 98 -32 -33 -98 -131 65 -130 -33 -98 33 -98 33 -131 98 -98 98 33 98 163 65 33 130 -163 66 32 65 196 65 33 98 130 98 33 -130 65 -98 -130 -33 0 -131 -177 -209 209 -19 144 -161 -19 95 6 66 98 65 98 -65 98 33 -98 98 65 195 -65 294 163 -65 98 -33 -65 -163 65 -98 98 33 65 65 33 -98 -38 -152 -22 -114 256 -256 98 -196 98 -33 163 -98 33 -32 130 65 196 -131 33 -98 130 -65 66 -131 130 -97 33 -131 98 -65 98 -33 98 -196 98 -196 103 -181 125 -178 164 -228 -98 -33 -131 98 -33 -131 -98 -130 0 -131 -228 33 -57 0 -132 31 26 -129 -120 -24 -92 44 -82 12 -98 66 -196 -98 0 130 33 229 0 130 -66 262 0 163 -65 98 196 -98 -12 -162 38 -53 59 8 45 109 -65 163 -64 229zm-50 179l-147 49 -65 -98 -98 164 -45 85 -86 -85 -32 32 -98 131 98 32 65 -48 98 16 65 -98 196 -65 49 -115zm-1159 82l0 33 -65 293 -98 98 -66 -98 33 -163 33 -98 -66 -130 -98 -33 0 -131 229 -163 163 33 -32 98 -164 98 0 130 131 33zm-2351 -359l-33 -98 -97 65 0 -130 32 -98 131 32 32 98 -65 131zm2384 6040l0 -131 -98 -163 -98 65 65 131 -33 130 98 164 -196 0 -228 -196 -98 -33 -98 65 -163 -97 -229 -66 -261 131 -163 0 -66 -98 -32 -229 -33 -98 -33 -195 0 -131 131 -392 65 -130 0 -131 0 -261 -130 -294 -490 -784 -196 -457 -33 -130 98 -294 66 -98 32 -98 -32 -196 130 33 -32 -131 -164 -163 -163 0 -65 -98 -65 -98 97 -33 164 -32 32 32 164 164 65 97 228 66 98 65 131 -98 229 98 32 131 -130 32 -98 98 98 66 130 -33 33 98 -131 65 -65 131 33 98 130 32 33 -163 98 -33 65 98 -33 131 -130 163 -65 98 0 163 98 33 32 -98 98 -98 -33 131 0 130 66 229 -33 98 66 4 -22 254 54 36 0 294 131 32 32 -98 -32 -196 130 0 0 164 -32 130 65 131 98 -98 0 -229 -33 -98 98 -32 116 89 49 105 64 67 -33 98 -33 98 33 228 -229 327 131 196 98 32 -33 196 131 66 65 -164 0 131 98 33 0 -196 -98 -196 -32 -131 65 -163 33 -196 98 65 -33 229 98 33 -33 97 33 131 98 33 -98 196 32 130 33 131 98 98 98 65 -33 196 -98 33 -85 56 -110 107zm-1927 -6008l131 -32 98 32 32 -98 -125 -50 -65 33 -71 115zm294 -195l65 130 0 196 -98 163 -32 98 -131 98 -98 -32 -32 -98 -131 0 -131 163 -98 -163 -130 -66 -33 -163 98 -33 33 98 163 -98 131 0 0 -130 -131 98 -98 -33 33 -196 98 -65 -98 -33 -98 -32 32 -164 98 -65 0 -131 33 -195 33 -164 130 -32 66 -164 98 164 32 98 98 130 -33 131 -97 32 -131 -130 -131 98 -32 98 98 163 0 131 326 65 98 33zm1517 3818l45 -227 5 -163 -29 -233 127 135 33 98 0 130 -65 196 0 196 97 24 -32 41 32 98 0 164 -195 65 -90 -119 -22 -81 -19 -94 58 -33 25 -117 -116 19 0 -130 -326 -261 -131 -33 -163 -196 0 -196 65 -163 98 -98 98 33 327 359 74 169 104 417zm-2261 -3049l-72 112 32 98 -65 131 131 -66 130 -32 -65 228 -65 131 -131 65 -98 98 -98 -65 33 -163 -33 -196 -98 -66 33 -98 65 -163 131 -33 170 19zm3389 -2957l-164 -33 66 -163 98 65 0 131zm-2808 1012l98 -32 98 -229 130 65 33 131 -131 163 -65 196 -65 -98 -98 -33 0 -163zm686 -1178l-66 35 -32 -97 -52 24 -46 -57 32 130 66 131 65 131 -65 98 83 59 -18 104 -33 98 0 163 -130 196 0 131 -98 97 -66 294 164 -65 98 -261 130 -196 163 -131 98 66 -228 326 -131 229 131 32 98 66 -33 130 -196 0 -32 196 -33 98 101 58 62 -123 196 -98 131 32 -33 98 65 131 -196 65 -65 131 65 98 -98 65 -130 33 -33 98 131 -33 98 131 -33 98 -131 293 -163 -65 -196 33 -98 65 -32 98 130 0 -130 425 -98 32 65 -261 -98 -98 -98 -33 -32 131 -98 65 -33 164 -163 130 98 65 32 131 131 -33 33 131 130 0 65 -98 33 -131 98 66 33 65 65 98 131 65 163 -196 -33 -98 33 -163 -98 -65 -65 -98 98 -98 -33 -163 130 32 164 -163 32 98 0 131 66 261 98 65 0 -228 98 65 97 33 -97 -131 0 -163 -66 -131 33 -98 98 33 130 359 0 -196 66 -228 -98 -196 -163 0 -98 -131 98 -65 130 -98 163 -33 98 -294 164 -228 130 -33 261 0 229 131 -33 -131 0 -228 98 -33 33 -131 -65 -196 -33 -195 -98 -229 65 -131 98 33 66 98 97 392 33 98 0 228 -65 261 32 196 0 164 98 -33 33 -196 65 -131 -32 -163 -33 -196 33 -98 98 -261 -33 -98 33 -98 32 -98 0 -130 66 -98 0 -131 32 -130 -98 -33 -98 65 33 98 -33 98 -65 98 33 131 -98 -33 -131 65 0 -130 -65 -131 130 -98 0 -163 98 -65 -163 -229 -65 98 0 163 -98 -32 0 -131 -98 -65 -98 -33 0 163 -131 0 -32 131 -196 0 -33 98 98 65 163 -65 98 -131 131 0 0 229 0 196 -98 -33 -65 -98 -33 98 65 196 -196 65 0 131 -97 130 32 131 98 65 131 -130 32 130 0 131 -98 65 -32 98 -98 33 -65 -98 -98 -65 -98 32 -98 131 -131 33 -33 -131 -32 -196 130 -65 66 -131 -98 -130 -164 -33 -65 98 -98 98 -32 -98 163 -131 0 -130 -229 -196 -122 -184 -67 -131 59 -12 -37 -111 -61 -183 0 -163 -68 -59 3 89z"/>
<path data-z="5" class="z z5" d="M9802 6791l131 33 246 196 80 65 0 130 -40 86 73 45 41 175 90 119 195 -65 0 -164 -32 -98 32 -41 -97 -24 0 -196 65 -196 0 -130 -33 -98 -127 -135 29 233 -5 163 -45 227 -104 -417 -74 -169 -327 -359 -98 -33 -98 98 -65 163 0 196 163 196zm-392 -131l0 -130 33 -131 -98 98 -32 98 -98 -33 0 -163 65 -98 130 -163 33 -131 -65 -98 -98 33 -33 163 -130 -32 -33 -98 65 -131 131 -65 -33 -98 -130 33 -98 -66 98 -98 130 -32 -32 -131 -229 -98 -131 98 -98 -65 -228 -66 -65 -97 -98 -98 -98 -98 -164 32 -97 33 65 98 65 98 163 0 164 163 32 131 -130 -33 -262 -131 -195 -195 -98 65 65 130 -98 66 -196 -98 -33 98 98 196 0 130 -130 66 -131 0 33 -196 -33 -196 -98 -164 -196 0 -130 0 -66 98 66 131 163 229 -33 98 -130 -66 -33 131 -33 130 -97 -32 32 -131 0 -130 -98 -66 -196 196 -130 -32 65 -164 196 -163 65 -98 -32 -131 32 -97 -98 -66 98 -228 -65 -131 65 -98 -98 -65 66 -98 130 163 33 -98 -33 -163 261 -163 66 130 -66 98 33 131 -65 163 -66 98 131 0 0 131 -33 98 131 -66 65 -98 98 -65 131 163 0 -163 163 -33 -98 -130 33 -98 0 -163 -66 -164 -32 -163 98 -98 0 -130 98 -66 32 164 33 97 0 196 -33 98 98 66 33 196 -33 163 98 65 98 -98 131 -65 65 -131 65 -228 0 -131 -156 -112 -105 -84 -65 -130 -65 -164 0 -130 98 -131 97 -65 33 98 -98 163 33 163 130 66 98 163 131 -163 131 0 32 98 98 32 131 -98 32 -98 98 -163 0 -196 -65 -130 -98 -33 -326 -65 0 -131 -98 -163 32 -98 131 -98 131 130 97 -32 33 -131 -98 -130 -32 -98 -98 -131 0 -131 32 -130 66 -98 97 -65 33 98 -30 118 -35 12 0 163 98 33 65 98 65 -196 131 -163 -33 -131 -98 -130 -130 -131 65 -130 33 -98 98 -66 65 -98 65 -98 0 131 -65 196 -65 98 65 163 98 -33 33 -130 0 -131 -33 -130 33 -131 -66 -131 -32 -228 130 130 66 131 65 131 -65 98 83 59 -18 104 -33 98 0 163 -130 196 0 131 -98 97 -66 294 164 -65 98 -261 130 -196 163 -131 98 66 -228 326 -131 229 131 32 98 66 -33 130 -196 0 -32 196 -33 98 101 58 62 -123 196 -98 131 32 -33 98 65 131 -196 65 -65 131 65 98 -98 65 -130 33 -33 98 131 -33 98 131 -33 98 -131 293 -163 -65 -196 33 -98 65 -32 98 130 0 -130 425 -98 32 65 -261 -98 -98 -98 -33 -32 131 -98 65 -33 164 -163 130 98 65 32 131 131 -33 33 131 130 0 65 -98 33 -131 98 66 98 163 131 65 163 -196 -33 -98 33 -163 -98 -65 -65 -98 98 -98 -33 -163 130 32 164 -163 32 98 0 131 66 261 98 65 0 -228 98 65 97 33 -97 -131 0 -163 -66 -131 33 -98 98 33 130 359 0 -196 66 -228 -98 -196 32 -131 98 -33 0 131 98 33 66 130 -33 98 -33 163 66 98 98 -98 65 -293 65 98 98 65 -33 98 0 163 -65 98 163 0 -32 98 -163 33 65 98 130 -33 131 65 -98 65 -98 -32 -130 32 -33 164 -98 32 -131 0 -32 -98 98 -32 -33 -98 -131 65 -130 -33 -98 33 -98 33 -131 98 -98 98 33 98 163 65 33 130 -163 66 32 65 98 33 98 32 33 98 130 98 33 -130 65 -98 -130 -33 0 -131 -177 -209 209 -19 144 -161 -19 95 6 66 98 65 98 -65 98 33 -98 98 65 195 -32 147 -33 147 163 -65 98 -33 -65 -163 65 -98 98 33 0 196 -98 130 -98 66 -130 32 -196 -65 -33 98 33 98 130 98 33 98 98 130 33 164 65 97 130 131 -65 98 0 163 -33 131 0 163 57 71 41 223 0 326 -130 196 0 131 130 65 33 98 33 131 -98 98 -98 -33 -33 -131 33 -97 -98 -33 33 -229 -98 -65 -33 196 -65 163 32 131 98 196 0 196 -98 -33 0 -131 -65 164 -131 -66 33 -196 -98 -32 -131 -196 229 -327 -33 -228 66 -196 -64 -67 -49 -105 -116 -89 -98 32 33 98 0 229 -98 98 -65 -131 32 -130 0 -164 -130 0 32 196 -32 98 -131 -32 0 -294 -54 -36 22 -254 -66 -4 33 -98 -66 -229zm1404 -1501l-27 -136 256 -256 98 -196 98 -33 163 -98 33 -32 130 65 196 -131 33 -98 130 -65 66 -131 130 -97 33 -131 98 -65 98 -33 98 -196 98 -196 103 -181 125 -178 164 -228 32 97 -98 131 -65 131 -65 130 -98 98 -66 98 -32 98 0 131 -98 32 65 98 -98 66 -98 -33 -98 98 -32 98 -98 98 -33 98 -65 98 -131 32 -33 131 -97 -65 -98 98 -66 98 -98 -66 -98 33 -130 0 -65 130 -98 66 0 130 -98 97 -164 165zm1274 -1796l-131 -33 -33 -163 -65 -98 98 -33 33 66 98 130 0 131zm-490 -1012l0 130 33 229 0 130 -66 262 0 163 -65 98 196 -98 -12 -162 38 -53 59 8 45 109 -65 163 -64 229 -132 0 -196 -33 -195 33 -164 -66 0 -326 98 -65 -65 -98 -33 -131 0 -228 98 -33 33 -131 -65 -196 -33 -195 -98 -229 65 -131 98 33 66 98 97 392 33 98 0 228 -64 270 31 187 0 164 98 -33 33 -196 65 -131 -32 -163 -33 -196 33 -98 98 -261 65 229z"/>
<path data-z="4" class="z z4" d="M8137 3461l65 -131 -32 -98 -131 -32 -32 98 0 130 -98 131 0 130 65 164 65 130 105 84 -170 -19 -131 33 -65 163 0 -196 -33 -97 0 0 -32 -164 -98 66 0 130 -98 98 32 163 66 164 -98 -66 -65 -228 -33 -98 -65 -131 0 -130 0 -131 98 -228 522 -556 163 -130 98 -261 131 -196 0 -229 65 -130 163 -131 66 -131 32 -97 131 -98 65 98 -65 130 130 131 98 130 -130 -65 -98 229 -63 20 30 -118 -33 -98 -97 65 -66 98 -32 130 0 98 -66 164 -130 32 -66 359 0 131 -98 65 22 116 142 113 -98 65 -33 196 98 33 131 -98 0 130 -131 0 -163 98 -33 -98 -98 33 98 -163zm4212 -1110l-57 98 -132 31 26 -129 163 0zm326 326l-98 -130 0 -131 131 131 131 163 -131 98 -33 -131zm-1306 -1828l66 65 -62 155 48 19 144 218 -98 65 33 98 -33 98 -65 98 33 131 -98 -33 -131 65 0 -130 -65 -131 130 -98 0 -163 98 -65 -168 -221 168 -171zm-751 1077l0 131 -97 130 32 131 98 65 131 -130 32 130 0 131 -98 65 -32 98 -98 33 -65 -98 -98 -65 -98 32 -98 131 -131 33 -33 -131 -32 -196 130 -65 66 -131 -98 -130 -164 -33 -65 98 -98 98 -32 -98 163 -131 0 -130 163 98 131 98 98 32 98 -65 65 -98 130 -33zm131 -914l98 0 0 163 -131 0 -32 131 -196 0 -33 98 -130 -98 -196 -163 -33 98 0 163 -228 -131 -131 66 -98 -66 -65 98 -98 -294 0 -163 65 98 98 -33 131 0 98 -97 130 97 229 66 163 -33 98 -33 33 -97 0 -131 163 33 65 228zm-1632 -163l32 228 66 131 -33 131 33 130 0 131 -33 130 -98 33 -65 -163 65 -98 65 -196 0 -33 0 -98 -65 -130 -12 -129 45 -67zm-387 2496l125 51 -32 97 -98 -32 -131 32 71 -115 65 -33zm1124 1702l209 -19 144 -161 -469 0 116 180zm1385 -1047l-65 48 -98 -32 98 -131 32 -32 86 85 45 -85 98 -164 65 98 147 -49 -49 115 -196 65 -65 98 -98 -16zm1147 -609l112 32 150 -274 -77 -109 -22 -96 -46 -117 -44 -158 -64 -127 -204 0 16 77 26 140 30 76 35 155 3 111 40 64 0 145 45 81zm-494 -1008l82 -12 92 -44 55 -74 -259 0 30 130zm-686 -1371l-65 98 0 163 -98 -32 0 -131 163 -98zm-952 2513l-93 66 -98 33 -32 131 -163 0 -98 -131 98 -65 130 -98 163 -33 93 97zm-1954 785l-130 32 -131 66 65 -131 -32 -98 72 -112 156 112 0 131z"/>
<path data-z="3" class="z z3" d="M11043 3004l65 98 -98 65 0 131 0 195 0 164 66 130 -66 98 -359 131 -98 -65 -65 -98 0 -33 -131 -33 0 -130 164 -98 32 -98 -163 -33 -177 126 -52 -126 98 -294 164 -228 130 -33 261 0 229 131zm-824 4297l73 45 58 -33 25 -117 -116 19 -40 86zm-732 -56l247 -56 -8 -176 -217 -22 -22 254zm968 -5841l98 65 163 -65 98 -131 131 0 0 229 0 196 -98 -33 -65 -98 -33 98 65 196 -196 65 -130 33 -65 98 -98 65 -98 -32 -131 -98 -163 -98 -229 -196 -94 -142 -28 -42 -67 -131 59 -12 65 -98 98 66 131 -66 228 131 0 -163 33 -98 326 261z"/>
<path data-z="1" class="z z1" d="M2587 1861l32 -98 -32 -131 32 -97 196 -262 229 -98 33 -163 130 -98 196 -98 65 -196 196 -98 196 33 65 -131 164 -32 261 32 196 -65 130 33 33 -98 294 -196 196 -98 32 98 -163 131 -65 195 32 98 -293 66 -98 130 -131 0 -65 -130 -98 32 -98 131 -33 98 66 98 98 32 195 -130 66 98 -66 98 0 130 -130 66 65 130 33 131 98 -65 98 -229 163 0 98 -65 65 130 33 -163 -66 -163 98 -65 33 130 98 -65 131 -196 65 -98 0 131 -33 98 -98 65 -32 98 -98 65 -33 98 -33 131 66 98 130 98 -98 32 -196 229 -130 32 -65 98 -98 131 -262 65 0 0 98 65 66 98 294 -195 163 -66 98 -130 130 -33 98 -98 98 0 131 65 -261 98 -98 98 -131 66 -163 97 -98 66 -163 98 -66 98 66 98 293 -164 131 66 131 -98 130 32 164 0 130 -65 131 -131 163 -65 65 131 -130 196 -229 0 -130 65 -98 -33 -98 33 -131 131 -33 98 98 32 196 98 98 98 -32 98 -196 65 32 98 229 196 32 98 -32 131 98 65 65 -131 131 -163 0 -163 130 -163 33 98 -33 163 98 33 66 -98 163 -131 32 -131 131 -32 -65 -196 163 0 98 -65 33 163 -33 163 130 -65 33 -98 131 -66 98 -163 130 -98 101 30 95 -128 33 -98 130 -130 131 -163 229 -66 65 -130 32 -164 33 -98 33 98 98 -32 65 -66 -65 196 -33 98 -33 196 -228 229 -196 32 -65 98 -98 66 228 65 -14 221 -149 171 -98 -33 33 -131 -98 -32 -131 -65 -65 97 -98 33 -65 98 -98 98 -66 98 -130 65 -163 33 -327 294 98 98 229 -33 -33 196 -33 131 66 130 -33 131 -65 98 -66 -98 -130 0 -33 163 -98 65 33 98 32 131 -97 32 32 98 65 98 -97 33 -98 -65 -131 -98 -65 130 -98 33 -98 65 -33 98 0 131 33 98 98 32 130 -130 131 -33 0 -130 98 -33 33 98 -98 98 98 65 65 -98 130 -32 98 32 -32 131 -229 163 -196 33 -196 163 -98 -98 -130 0 -163 65 -229 0 33 98 98 33 130 -33 98 131 131 65 -98 33 32 98 164 0 -33 130 -163 33 -33 98 33 98 130 130 -98 33 -97 -65 -131 -131 -261 -65 -164 33 -130 -33 -98 33 0 293 -131 66 -32 130 98 33 98 -65 65 -98 392 -131 65 98 -98 98 65 98 -32 131 98 65 130 0 66 98 97 -66 33 -130 0 -196 98 -33 33 -163 130 -33 33 -98 -33 -97 164 -33 228 -98 131 65 81 -49 82 -49 98 131 -98 33 98 32 33 131 97 -33 98 -65 -32 98 65 98 -98 65 -98 33 -163 -98 0 130 33 98 130 -32 261 65 196 -131 229 66 130 -66 66 98 130 0 33 131 131 196 130 65 -65 163 65 131 33 131 130 0 131 65 0 163 -196 261 -457 196 33 98 -131 33 -33 130 -98 33 -65 98 -130 98 -33 130 33 131 -294 196 228 0 33 98 -65 98 -131 0 -131 65 -65 -98 -163 0 -98 65 131 66 -294 65 -33 131 -196 32 -65 98 -131 33 -65 131 -424 261 -98 -33 0 131 -131 0 -277 246 16 -83 163 -294 0 -228 33 -131 130 -98 66 -163 130 -98 261 -294 66 -98 -33 -98 -65 -98 -164 -98 -163 98 -163 -33 -65 164 -294 294 -98 -33 -65 -163 -196 -262 -270 116 -187 80 -98 -32 -98 -98 -33 -163 33 -294 -66 -98 -98 -98 -32 -98 -33 -98 0 -457 33 -131 -70 -69 37 -61 -98 -196 -65 -164 -33 -261 -98 -163 -98 -98c67,-268 97,-478 131,-751l-33 -130 -32 -98 0 -196 -66 -196 -153 -308c-15,-180 -51,-371 -108,-541l0 -131 -32 -98 -66 -98 -65 -195 33 -196 0 -131 -66 -130 0 -131 0 -131 -65 -294 -98 -359 -131 -228 -34 -128 2 -264zm3050 5574l-46 9 -131 -98 -98 -33 -131 0 -98 131 98 65 98 -65 98 65 -130 66 -98 32 -33 98 98 33 65 98 131 65 -98 33 -163 -131 -196 -33 -65 98 65 98 130 66 -65 130 -33 163 131 33 98 66 98 -33 98 -66 98 -97 -65 -98 98 -98 32 -164 131 -163 65 -130 -65 -164 -117 24z"/>
<path data-z="2" class="z z2" d="M4252 1600l-131 65 -130 131 -164 32 -97 -32 65 -131 -131 -65 -32 -98 98 -65 32 -98 163 -33 -98 -65 -32 -98 -33 -131 33 -130 -65 -131 130 -65 33 98 294 163 32 163 33 490 0 0zm4440 -65l-32 97 -66 131 -163 131 -65 130 0 229 -131 196 -98 261 -163 130 -522 556 -98 228 0 131 0 130 65 131 33 98 65 228 98 66 0 163 -33 98 98 130 -163 33 0 163 -131 -163 -98 65 -65 98 -131 66 33 -98 0 -131 -131 0 66 -98 65 -163 -33 -131 66 -98 -66 -130 -261 163 33 163 -33 98 -130 -163 -66 98 98 65 -65 98 65 131 -98 228 98 66 -32 97 32 131 -65 98 -196 163 -65 164 130 32 196 -196 98 66 0 130 -32 131 97 32 33 -130 33 -131 130 66 33 -98 -163 -229 -66 -131 66 -98 326 0 98 164 33 196 -33 196 131 0 130 -66 0 -130 -98 -196 33 -98 196 98 98 -66 -65 -130 98 -65 195 195 262 131 32 196 -32 98 -66 98 -98 294 33 130 196 457 490 784 130 294 0 261 0 131 -65 130 -131 392 0 131 -163 -33 -130 0 -164 0 -98 33 -65 130 -98 33 -65 98 -294 359 -163 130 -98 164 -65 32 -131 98 -65 98 -164 163 -32 131 -98 131 -131 65 -196 163 -32 131 -33 98 -33 -98 -98 -65 -98 32 0 -130 66 -131 -98 65 -65 196 -98 65 -196 66 -164 32 -130 66 -65 -98 -98 98 -66 163 -228 98 -98 -33 -33 -163 33 -163 -33 -196 294 -261 131 0 0 -131 98 33 424 -261 65 -131 131 -33 65 -98 196 -32 33 -131 294 -65 -131 -66 98 -65 163 0 65 98 131 -65 131 0 65 -98 -33 -98 -228 0 294 -196 -33 -131 33 -130 130 -98 65 -98 98 -33 33 -130 131 -33 -33 -98c149,-64 305,-145 457,-196l196 -261 0 -163 -131 -65 -130 0 -33 -131 -65 -131 65 -163 -130 -65 -131 -196 -33 -131 -130 0 -66 -98 -130 66 -229 -66 -196 131 -261 -65 -130 32 -33 -98 0 -130 163 98 98 -33 98 -65 -65 -98 32 -98 -98 65 -97 33 -33 -131 -98 -32 98 -33 -98 -131 -163 98 -131 -65 -228 98 -164 33 33 97 -33 98 -130 33 -33 163 -98 33 0 196 -33 130 -97 66 -66 -98 -130 0 -98 -65 32 -131 -65 -98 98 -98 -65 -98 -392 131 -65 98 -98 65 -98 -33 32 -130 131 -66 0 -130 0 -163 98 -33 130 33 164 -33 261 65 131 131 97 65 98 -33 -130 -130 -33 -98 33 -98 163 -33 33 -130 -164 0 -32 -98 98 -33 -131 -65 -98 -131 -130 33 -98 -33 -33 -98 229 0 163 -65 130 0 98 98 196 -163 196 -33 131 -98 98 -65 32 -131 -98 -32 -130 32 -65 98 -98 -65 98 -98 -33 -98 -98 33 0 130 -131 33 -130 130 -98 -32 -33 -98 0 -131 33 -98 98 -65 98 -33 65 -130 131 98 98 65 97 -33 -65 -98 -32 -98 97 -32 -32 -131 -33 -98 98 -65 33 -163 130 0 66 98 65 -98 33 -131 -66 -130 33 -131 33 -196 -229 33 -98 -98 327 -294 163 -33 130 -65 66 -98 98 -98 65 -98 98 -33 65 -97 131 65 98 32 -33 131 98 33 149 -171 14 -221 -228 -65 98 -66 65 -98 196 -32 130 -131 98 -98 33 -196 33 -98 65 -196 65 -97 131 32 131 -32 32 0 0 0zm-555 97l-33 98 -32 164 -65 130 -98 33 -131 33 -131 163 -130 130 -33 98 -98 131 -98 -33 -130 98 -98 163 -131 66 -33 98 -130 65 33 -163 -33 -163 -98 65 -163 0 32 98 33 98 -131 32 -32 131 -163 131 -66 98 -98 -33 33 -163 -33 -98 -130 163 0 163 -131 163 -65 131 -98 -65 32 -131 -32 -98 -229 -196 -32 -98 196 -65 32 -98 -98 -98 -196 -98 -98 -32 33 -98 131 -131 98 -33 98 33 130 -65 229 0 130 -196 -65 -131 -163 65 -131 131 -130 65 -164 0 -130 -32 -131 98 -131 -66 -293 164 -66 -98 66 -98 163 -98 98 -66 163 -97 131 -66 98 -98 261 -98 -131 -65 131 33 98 -33 65 -98 98 33 33 -98 65 -131 98 -32 131 0 65 -164 65 -98 33 98 0 131 -33 131 131 -33 65 -98 196 -33 359 -98 98 66 196 65 130 0 -32 98 -65 163 163 0 196 -65 32 -131 98 33 131 -33 65 163 0 0zm-4767 -293l-130 32 0 -130 -65 -98 65 -98 130 98 33 98 -33 98 0 0zm1861 5974l131 0 98 33 131 98 163 -33 65 164 -65 130 -131 163 -32 164 -98 98 65 98 -98 97 -98 66 -98 32 -98 -65 -131 -33 33 -163 65 -130 -130 -66 -65 -98 65 -98 196 33 163 131 98 -33 -131 -65 -65 -98 -98 -33 33 -98 98 -32 130 -66 -98 -65 -98 65 -98 -65 98 -131zm3461 -5778l0 0 0 0 0 0zm-3265 228l-98 98 -130 33 -98 130 -163 66 -294 195 -66 -98 -98 -65 262 -65 98 -131 65 -98 130 -32 196 -229 98 -32 0 195 98 33 0 0zm2710 -131l0 0 0 0 0 0zm-2677 -848l0 -131 -65 98 -66 98 -65 98 -98 65 -33 -130 -98 65 66 163 -33 163 -65 -130 -98 65 -163 0 -98 229 -98 65 -33 -131 -65 -130 130 -66 0 -130 66 -98 -66 -98 -195 130 -98 -32 -66 -98 33 -98 98 -131 98 -32 65 130 131 0 98 -130 293 -66 -32 -98 65 -195 163 -131 -32 131 65 228 98 -65 131 0 98 32 32 98 0 131 -65 98 -98 33 0 0zm-1110 1501l-98 196 -33 -130 -130 -33 -131 33 33 -98 0 -131 130 -98 33 -98 131 66 0 130 65 163 0 0zm0 0l0 0 0 0 0 0zm-98 -685l0 0 0 0 0 0zm-1371 653l-98 -33 -66 -98 0 -163 98 -65 66 98 65 98 -65 163 0 0zm457 -686l32 98 -32 131 -33 130 -196 -65 -98 -98 0 -163 98 -65 98 65 33 -98 98 65 0 0z"/>
</svg>