<!-- cc-by-sa-4.0 Por: Afonso Gomes http://afonsogomes.com https://github.com/AfonsoFG/PortugalSVG -->
<svg width="375" height="550" viewBox="0 0 12969 26674">
<path data-z="389" class="z z999" d="M11215 1114l5-7m-2495 518l130-97 64 97 33-97 97-65 65-97 65-97-65-130-12-128 44-66 130 129-33-129 46 56 52-24 32 97 65-35-3-88 68 59 64 97 98-33h129l97-97 130 97 227 65 162-32 97-33 32-97V848l162 32 65 227h97l97 32 98 65 162-97 1 1 161-163 64 65 98 64v130l-112-22h1l143 216 97 33-32 129v130l-65 97v130l-32 97-33 97 33 97 64 227 195 97 97-65-29-129h256l-54 73 119 24h162l-57 97h57l226-32 130 129 130 162 97 33 32 97-97 130-65 129-65 130-97 97-65 97-32 97v130l-97 32 65 98-98 64-97-32-97 97-32 97-98 98-32 97-65 97-129 32-33 130-97-65-97 97-65 98-97-65-97 32h-130l-65 130-97 65v129l-96 96-163 163 32 130-32 97-65-65v195l-97 129-97 65-130 32-194-64-33 97 33 97 129 97 33 97 97 130 32 162 65 97 130 130-65 97v162l-32 130v162l56 70 41 221v324l-130 195v129l130 65 32 97 32 130-97 97-97 194 33 130 32 130 97 97 97 65-32 194-97 32-85 57-110 105 33 97-70 142-27-44h-195l-129 97-98-33-97 195-32 129 32 98 33 129 32 97 130 33h129l33 97 64 130 98 32 32 97 32 97v130l-32 97v130l-32 97-33 97v130l-32 162-97 65-33 97-97 32-65 130 65 129-65 98 33 129-98 130-32 162-194 65-98-33h-129l-97 65-195-32-194-33-162 33-130 64h-194l-130 33-97-33-97-64h-324l32 97 33 97 32 97 65 97 129 65 65 130 162 97 65 97 32 97 98 65h129l130 97-33 97v130l-74 185 42 42v162l130 97 64 97 130 97-65 130 33 97v130l129 129h65l130 33 97 32v130l-33 97 162 130 162-65 98-33 194 98 97 162v129l65 97-130 227-129 195-33 97-97 65 65 97v129l-97 33-65 129-65 98h-129l-98 97-32 97-97 32-97 130-130 65-32 97-33 97-32 292 97 64-32 98-33 97-97 162-32 162-65 162-33 97 98-32-33 97-97 97 97 32 97 65 65 162 97 130 195 194 65 162 64 97 98 33 32 194 65 97 65 98 97 129 65-97h162l64-97 130-33 97-32 97 32-97 130-32 97v130l-33 129-64 292-33 130-97 32-97 65-97-97-98-33-97 33-32 129-130 97-97-32h-130l-129 32v130l-33 97v130l-32 97-65 129-32 98-33 97-97 129-97 65-65 97-97 65-97 65-33 97-32 97-32 98-65 129 32 97-65 98-64 97-33 97-65 97-32 97v130l32 97 98 97 64 98 33 162 65 162 32 129v324l32 195 33 97-33 129 65 98 33 226 14 83-176-50-227 65-389 194-194 194-260 130-324 259-97 97-194 130h-324v-65l-551-356-129-65-292-97h-130l-97 32-97 32-162 33-162-130-97-32-97 32-195 65-97-32-97-33-97-32-98-32-129-65h-130l-227 32-97 65-30 70-35-70-97 97-162 65-129 32-227 33-97 97h-130l-72 102-57 24-60 8-70-37-97-32v-162l129-98v-129l97-162 33-97 32-97-32-130 97-32 97-195 33-129-33-130-32-97 97-162 65-130 129-227v-129l33-97v-130l32-97v-130l-32-129-33-98-64-129 32-97 32-98 33-97v-421l-33-130v-162l33-194 32-97-32-259-33-97-129-65-97-33-98-32 33-97 65-130 97-162 65-194 97-292 65-324v-421l-33-324-65-227-32-129-97-162-162-162-97-98-65-162-65 130h-130l-97 65-65 97-97 65-97 32h-129l-98-32-97 65h-129l-98 64-129 33 65-130 32-97 32-97 33-97v-162l-33-162-129-292-33-97-64-97-17-49 195-32 227-65-17 81 98 32 97 33 97-65 65-97 65-162 97-65v-130h129l-97-64 97-98h130l-130-32h-32l-33-130-97-162-64 98-98 64-97 98v226l-32 130-97 97-98 32-259 65-65-32h-129l-162 65-130 32-129-65-98-65-97 33H366l-129-65 64-129v-65l-64-97v-162l64-98 33-97 65-129 32-162 32-98 65-162-32-97 32-97-32-97 32-130h65l-65-97v-162l97-194 65-162 65-130 65-162 32-97-32-97 32-98v-129l-32-97 27-36-92-62v-129l-130-33 65-97 97 65 65-97h130l129-97 195-195 97-162 65-97 129-97 98-97 64-97 98-162 64-98-64-129 97-227 129-454 292-777 227-681 129-486-32-97-130-129 33-162 63 12 99-466 97-389 259-1069 65-291 97-519 162-680c67-266 96-475 130-745l-33-130-32-97v-195l-65-194-152-306c-15-178-51-367-107-536v-130l-33-97-64-97-65-195 32-194v-130l-65-129v-259l-64-292-98-356-129-227-34-127 1-262 33-97-33-130 33-97 194-259 227-97 32-162 130-97 194-98 65-194 195-97 194 32 65-129 162-33 259 33 194-65 130 32 32-97 292-194 194-98 33 98-33 129 65 227 97-65h130l97 33 33 97v129l-65 98-97 32-33 97-97 65-32 97-98 65-32 97-32 130 64 97 130 97v194l97 33h97l130 32 97-32 65-97 97 32 33-97 64-130 98-32h129l65-162 65-97 32 97v129l-32 130 129-32 65-98 194-32 357-97 97 65 194 64h130l-32 98-65 162h162l194-65 33-130 97 33 129-33 65 162 33 97 97-32 65-65 64-97 130 32 130-32h32z"/>
</svg>