<!-- cc-by-sa-4.0 Por: Afonso Gomes http://afonsogomes.com https://github.com/AfonsoFG/PortugalSVG -->
<svg width="375" height="550" viewBox="0 0 12969 26674">
<g id="D18-Faro">
<path data-z="376" class="z z376" d="M8112 25289l0 131 33 130 120 112 -288 144 -30 -126 33 -98 0 -130 0 -130 -66 -98 198 65zm382 308l-84 -82 12 -132 217 46 33 219 -178 -51z"/>
<path data-z="375" class="z z375" d="M8265 25662l-120 -112 -33 -130 0 -131 -198 -65 -99 -65 -99 -65 -33 -98 132 -391 165 -65 428 131 118 -21 0 163 23 138 42 150 -32 137 65 98 15 93 -217 -46 -12 132 84 82 -229 65z"/>
<path data-z="374" class="z z374" d="M7678 26054l-262 130 -96 78 -65 -61 -66 -195 -33 -98 -132 0 -131 -65 0 -130 65 -131 -32 -97 65 -98 66 -98 -99 -32 -131 0 -99 -33 -133 -4 -83 -205 17 -154 33 -97 66 -98 66 -98 105 33 125 0 99 -33 99 33 67 70 33 97 33 98 66 98 33 97 99 -32 66 97 131 0 66 -32 198 130 66 98 0 130 0 130 -33 98 30 126 -104 52 -195 196z"/>
<path data-z="373" class="z z373" d="M6992 26544l-101 -22 -99 33 -98 -65 -66 -98 0 -130 33 -98 98 33 66 -98 -33 -98 0 -97 101 -61 131 65 131 -4 34 102 66 195 65 61 -230 184 -98 98z"/>
<path data-z="372" class="z z372" d="M6628 26262l0 130 66 98 98 65 99 -33 101 22 -196 130 -327 0 0 -65 -129 -84 -156 -101 15 -162 99 -33 0 -97 -99 -66 -66 -97 99 -65 99 -66 99 -32 99 65 99 33 98 -66 66 66 0 97 33 98 -66 98 -98 -33 -33 98z"/>
<path data-z="371" class="z z371" d="M6827 25257l131 0 99 32 -66 98 -65 98 32 97 -65 131 0 130 -101 61 -66 -66 -98 66 -99 -33 -99 -65 -66 -98 0 -130 -33 -98 99 -65 99 -65 -33 -98 99 -32 133 4 99 33z"/>
<path data-z="370" class="z z370" d="M5376 25969l98 32 16 86 -114 12 -213 53 -163 32 -96 -77 -67 -53 11 -183 231 -65c33,-98 66,-195 99,-293l99 -33 197 65 33 98 -131 326z"/>
<path data-z="369" class="z z369" d="M4053 25989l-130 -66 36 -52 99 -65 33 -98 197 33 264 32 33 98 -33 98 55 96 -162 54 -207 -69 -185 -61z"/>
<path data-z="368" class="z z369" d="M3923 25923l-131 0 -229 33 1 -118 -33 -97 -66 -98 -66 -98 -99 -65 99 -195 296 -65 107 57 124 8 0 98 66 97 33 98 99 33 -33 97 -33 98 -99 65 -36 52z"/>
<path data-z="367" class="z z367" d="M3400 26021l-98 98 -163 65 -131 33 -70 -151 -33 -97 -99 -65 -99 -66 -99 -65 99 -97 99 -65 99 -163 164 -33 99 -65 99 33 33 97 99 65 66 98 66 98 33 97 -1 118 -98 65 -30 70 -35 -70z"/>
<path data-z="366" class="z z366" d="M2608 25773l99 65 99 66 99 65 33 97 70 151 -228 33 -98 98 -131 0 -72 103 -118 32 -169 -70 0 0 0 -163 131 -98 0 -131 98 -163 187 -85z"/>
<path data-z="365" class="z z365" d="M7815 24605l-132 391 33 98 -66 32 -131 0 -66 -97 -99 32 -33 -97 -66 -98 -66 -195 -67 -70 -99 -33 -99 33 -132 0 -98 -33 -99 -65 0 -130 66 -98 98 -32 99 -33 99 -33 99 -65 99 -65 99 -32 98 -33 99 -33 132 0 99 33 99 -33 99 -65 197 -65 156 15 98 98 65 98 33 163 65 163 32 131 0 163 -118 21 -428 -131 -165 65z"/>
<path data-z="364" class="z z364" d="M6199 26066l99 66 0 97 -99 33 -15 162 -270 -174 -130 -66 -294 -97 -16 -86 -98 -32 131 -326 -33 -98 -197 -65 -66 -228 66 -97 66 -98 0 -130 66 -98 98 32c132,0 264,0 396,0l91 -60 74 -102 65 -98 33 -98 99 -65 99 33 231 -98 0 130 99 65 -66 98 -66 98 -33 97 -17 154 83 205 -99 32 33 98 -99 65 -99 65 33 98 0 33 0 97 66 98 -99 32 -99 66 -99 65 66 97z"/>
<path data-z="363" class="z z363" d="M4848 25871l-11 183 -98 -33 -132 44 -55 -96 33 -98 -33 -98 -264 -32 -197 -33 33 -97 -99 -33 -33 -98 -66 -97 0 -98 99 32 99 -32 98 -196 99 -65 99 -195 -33 -130 -66 -98 99 -33 0 -130 99 -65 99 -65 99 65 99 -33 131 0 99 131 -33 65 99 32 297 261 -66 98 0 130 -66 98 -66 97 66 228 -99 33c-33,98 -66,195 -99,293l-231 65z"/>
<path data-z="362" class="z z362" d="M4190 24601l131 0 66 98 33 130 -99 195 -99 65 -98 196 -99 32 -99 -32 -124 -8 -107 -57 -296 65 -99 195 -33 -97 -99 -33 -99 65 -33 -98 66 -195 -33 -98 132 -195 33 -98 99 -32 33 -98 66 -65 132 0 197 -65 99 32 99 65 231 33z"/>
<path data-z="361" class="z z361" d="M2910 24421l0 -130 126 82 33 98 198 65 99 65 -33 98 -99 32 -33 98 -132 195 33 98 -66 195 33 98 -164 33 -99 163 -99 65 -99 97 -187 85 65 -196 -33 -131 98 -32 98 -196 33 -131 -66 -228 98 -163 66 -131 130 -229z"/>
</g>
<g id="D17-Beja">
<path data-z="360" class="z z360" d="M6957 24177l-99 33 -99 33 -98 32 -66 -195 -66 -98 -33 -195 33 -98 33 -130 -33 -98 99 -130 33 -196 -33 -163 33 -97 0 -131 -66 -195 -99 -98 132 -130 98 -33 132 0 198 -97 33 97 33 98 99 33 197 -131 99 33 66 0 66 65 -33 98 1 129 230 34 95 -41 102 41 132 -98 297 163 66 32 -45 143 -63 123 30 105 -54 85 -76 111 -33 98 -56 85 -42 111 0 131 33 98 -156 -15 -197 65 -99 65 -99 33 -99 -33 -132 0 -99 33 -98 33 -99 32 -99 65 -99 65z"/>
<path data-z="359" class="z z359" d="M5507 23559l33 -98 33 -98 99 -32 99 65 231 32 98 -32 66 130 -33 98 99 32 198 -97 132 0 -33 130 -33 98 33 195 66 98 66 195 -66 98 -231 98 -99 -33 -99 65 -33 98 -65 98 -66 97 -99 65c-132,0 -264,0 -396,0l-98 -32 -297 -261 -99 -32 33 -65 165 -326c-33,-98 -66,-196 -99,-293l-33 -98 33 -98 132 0 66 -97 197 0z"/>
<path data-z="358" class="z z358" d="M6529 23461l33 98 -132 0 -198 97 -99 -32 33 -98 -66 -130 -98 32 -231 -32 -99 -65 -99 32 0 -65 -66 -195 -131 -196 -33 -97 33 -261 -33 -98 99 0 197 98 297 -195 99 -33 461 130 99 98 66 195 0 131 -33 97 33 163 -33 196 -99 130z"/>
<path data-z="357" class="z z357" d="M5112 23656l-33 98 33 98c33,97 66,195 99,293l-165 326 -99 -131 -131 0 -99 33 -99 -65 -33 -98 0 -293 198 -261 33 -130 -66 -326 33 -97 -99 -33 -132 0 -66 -98 -99 -32 -33 -130 99 -33 132 -195 -66 -98 33 -98 -66 -260 99 0 99 32 99 65 65 196 99 65 198 0 99 -65 99 32 33 98 -33 261 33 97 131 196 66 195 -4 78 -29 85 -33 98 -197 0 -66 97 -132 0z"/>
<path data-z="356" class="z z356" d="M4585 24210l33 98 -99 65 -99 65 0 130 -99 33 -131 0 -231 -33 -99 -65 -99 -32 -197 65 -132 0 -66 65 -99 -65 -198 -65 -33 -98 -126 -82 33 -98 0 -131 33 -98 0 -130 -66 -229 -65 -130 98 -294 0 -425 -33 -130 0 -164 60 -11 99 -65 99 33 33 97 99 66 33 97 99 -65 99 65 98 33 99 -33 33 -228 66 -97 33 -98 99 -65 165 0 131 -65 231 0 66 260 -33 98 66 98 -132 195 -99 33 33 130 99 32 66 98 132 0 99 33 -33 97 66 326 -33 130 -198 261 0 293z"/>
<path data-z="355" class="z z355" d="M8868 21377l99 32 66 98 179 107 0 130 -32 98 -67 134 -64 193 -98 130 -98 66 -65 97 -196 131 -53 151 -66 -32 -297 -163 -132 98 -102 -41 -95 41 -231 -33 0 -130 33 -98 -66 -65 0 -163 0 -130 33 -98 -66 -98 -99 -65c74,-217 130,-281 165,-521l-66 -97 0 -163 165 -196 33 -97 119 -119 144 21 132 391 297 97 230 66 99 195 99 33z"/>
<path data-z="354" class="z z354" d="M6035 22321l-99 33 -33 -131 -33 -130 -66 -98 33 -195 99 -65 0 -131 0 -130c93,-229 113,-421 263,-619l99 33 231 -130 296 -131 66 196 -33 98 198 97 99 -32 0 -131 197 0 198 131 0 163 66 97c-35,240 -91,304 -165,521l99 65 66 98 -33 98 0 130 0 163 -66 0 -99 -33 -197 131 -99 -33 -33 -98 -33 -97 -198 97 -132 0 -98 33 -132 130 -461 -130z"/>
<path data-z="353" class="z z353" d="M5442 22451l-99 0 -99 -32 -99 65 -198 0 -99 -65 -65 -196 0 -130 98 -195 0 -131 66 -130 0 -130c257,-127 406,144 725,65l66 -98 198 0 0 130 0 131 -99 65 -33 195 66 98 33 130 33 131 -297 195 -197 -98z"/>
<path data-z="352" class="z z352" d="M5738 20693l428 -163 33 130 0 195c-150,198 -170,390 -263,619l-198 0 -66 98c-319,79 -468,-192 -725,-65l-99 -130 -98 -33c-141,-46 -174,-114 -297,-195l99 -294 99 33 99 -228 98 65 99 33 0 -131 66 -97 165 -33 329 -163 99 -65 132 424z"/>
<path data-z="351" class="z z351" d="M10518 20242l-69 157 -61 72 0 119 -50 204 -185 61 -99 33 -132 0 -98 33 -33 -98 -99 32 -66 -97 -99 -33 -99 -32 99 -33 99 -65 -33 -98 132 -65 128 -26 45 65 65 -98 163 0 196 -131 196 0z"/>
<path data-z="350" class="z z350" d="M9428 20693l99 32 99 33 66 97 99 -32 33 98 98 -33 132 0 99 -33 185 -61 -86 355 -99 97 -99 65 -189 -187 -98 33 -32 130 -131 98 -98 -33 -131 0 -130 33 0 131 -33 98 -179 -107 -66 -98 -99 -32 -99 -33 -99 -195 -230 -66 -297 -97 -132 -391 165 0 66 -98 -33 -98 99 -65 33 -97 99 -66 33 -97 99 -65 32 -98 99 -33 99 -65 99 -32 99 -66 99 66 33 97 33 98 65 98 99 32 99 33 -33 98 66 97 66 98 66 65 33 98 -99 65 -99 33z"/>
<path data-z="349" class="z z349" d="M7880 20432l329 -33 33 98 -66 98 -165 0 -144 -21 -119 119 -33 97 -165 196 -198 -131 -197 0 0 131 -99 32 -198 -97 33 -98 -66 -196 -33 -130 -66 -98 -98 -65 98 -32 33 -98 -33 -98c144,36 345,60 462,98l66 98 296 97 330 33z"/>
<path data-z="348" class="z z348" d="M6265 20465l99 -33 33 -98 -33 -97 0 -131 0 -130 66 -33 99 33 99 65 98 65 33 98 -33 98 -98 32 98 65 66 98 33 130 -296 131 -231 130 -99 -33 0 -195 -33 -130 99 -65z"/>
<path data-z="347" class="z z347" d="M6298 19878l132 65 -66 33 0 130 0 131 33 97 -33 98 -99 33 -99 65 -428 163 -132 -424 0 -130 -66 -228 33 -65 0 0 99 -33 132 -32 132 0 66 97 98 33 99 -65 99 32z"/>
</g>
<g id="D16-Evora">
<path data-z="346" class="z z346" d="M9539 19916l98 33 32 195 184 262 -128 26 -132 65 -66 -65 -66 -98 -66 -97 33 -98 -99 -33 -99 -32 -65 -98 -33 -98 -33 -97 -99 -66 -99 66 -99 32 -99 65 -99 33 -32 98 -99 -98 33 -98 -33 -130 33 -98 98 -32 66 -228 66 -98 66 -163 99 0 148 101 65 163 98 131 196 196 65 163 66 98z"/>
<path data-z="345" class="z z345" d="M8341 18804l165 32 98 -32 132 65 33 97 33 98 -66 163 -66 98 -66 228 -98 32 -33 98 33 130 -33 98 99 98 -99 65 -33 97 -99 66c-99,-98 -198,-196 -297,-294l-98 -65 0 -130 -231 -195 -66 -98 132 -163 33 -98 66 -195 33 -65 98 -65 66 -98 66 -65 99 32 99 66z"/>
<path data-z="344" class="z z344" d="M8341 20237l-33 97 -99 65 -329 33 -330 -33c-99,-41 -194,-64 -296,-97l-66 -98c-117,-38 -318,-62 -462,-98l-98 -65 -99 -65 -99 -33 33 -97 0 -196 132 -97 99 32 32 98 99 -65 99 -196 198 -97 99 -65 197 -66 99 196 132 65 66 98 231 195 0 130 98 65c99,98 198,196 297,294z"/>
<path data-z="343" class="z z343" d="M6364 19553l99 97 0 196 -33 97 -132 -65 -99 -32 -99 65 -98 -33 -66 -97 -132 0 -132 32 -99 33 -197 -65 -99 -98 -264 -33 -66 -97 -131 -33 131 -195 -33 -98 132 -195 99 32 231 -65 98 65 165 33 66 97 0 131 33 97 132 33 0 98 99 -66 296 -162 132 0 0 130 -33 98z"/>
<path data-z="342" class="z z342" d="M8984 18643l-66 163 -32 98 15 160 -99 0 -33 -98 -33 -97 -132 -65 -98 32 -165 -32 -99 -66 -99 -32 -66 65 -66 -98 -98 -32 98 -196 99 -32 0 -131 -66 -195 66 -195 99 -33 33 98 66 -98 66 -65 99 -33 99 33 65 -130 99 -66 99 33 198 -65 66 -130 131 -33 80 97 -130 65 -66 196 -32 294 98 65 -66 196 -81 162 -49 165z"/>
<path data-z="341" class="z z341" d="M7913 18641l98 32 66 98 -66 98 -98 65 -33 65 -198 -98 -66 -97 0 -98 66 -98 -99 -32 -99 65 -99 -33 66 -98 -66 -97 66 -196 -33 -97 -197 -163 33 -65 131 -131c119,-78 166,-87 297,-130l99 33 99 -33 33 -98 65 98 99 65 66 98 -33 98 -66 195 66 195 0 131 -99 32 -98 196z"/>
<path data-z="340" class="z z340" d="M7616 18804l66 97 198 98 -66 195 -33 98 -132 163 -132 -65 -99 -196 -197 66 -99 65 -198 97 -99 196 -99 65 -32 -98 -99 -32 -132 97 -99 -97 33 -98 0 -130 -132 0 -296 162 -99 66 0 -98 -132 -33 -33 -97 0 -131 -66 -97 33 -98 99 -65 33 -98 -33 -98 -99 -65 -99 -32 -131 -196 0 -195 230 32 33 98 132 0 99 -65 0 -195 -99 -66 0 -130 132 0 99 65 197 -130 198 293 99 65 132 -65 65 -195 -33 -98 66 -195 132 0 0 -131 99 33 165 293 33 98 197 163 33 97 -66 196 66 97 -66 98 99 33 99 -65 99 32 -66 98 0 98z"/>
<path data-z="339" class="z z339" d="M5442 18445l131 196 99 32 99 65 33 98 -33 98 -99 65 -33 98 -165 -33 -98 -65 -231 65 -99 -32 -132 195 -98 -33 32 -97 -230 -391 -99 -33 -66 98 -99 33 -230 -66 -198 0 -165 -65 0 -97 -33 -98 33 -98 99 -65 132 -98 66 -97 99 97 98 -32 132 0 99 -33 66 -98 0 -32 0 -130 -99 -66 -99 -65 -33 -130 -131 0 -99 -33 -99 -65 -115 -17 181 -178 197 0 231 -130 33 -98 264 -65 98 -33 99 98 33 98 66 32 99 -32 99 65 33 97 197 66 0 97 330 391 0 130 99 66 0 195 -99 65 -132 0 -33 -98 -230 -32 0 195z"/>
<path data-z="338" class="z z338" d="M3860 18315l-99 65 -33 98 33 98 0 97 -132 -32 -131 0 -33 -131 -33 -97 33 -98 66 -98 65 -65 99 -32 132 -131 99 -65 66 -98 66 -97 33 -131 99 33 131 0 33 130 99 65 99 66 0 162 -66 98 -99 33 -132 0 -98 32 -99 -97 -66 97 -132 98z"/>
<path data-z="337" class="z z337" d="M8736 17598l-99 66 -65 130 -99 -33 -99 33 -66 65 -66 98 -33 -98 -99 33 33 -98 66 -163 66 -98 99 -163 99 -32 99 -65 98 -33 99 65 99 -65 33 -97 132 0 66 -98 99 32 98 33 -33 98 -33 195 -131 33 -66 130 -198 65 -99 -33z"/>
<path data-z="336" class="z z336" d="M8374 17370l-99 163 -66 98 -66 163 -66 -98 -99 -65 -65 -98c70,-104 94,-188 164,-293l99 -32 99 -65 -132 -294 99 -195 99 33 99 97 -33 98 33 98 33 97 66 98 33 98 -99 65 -99 32z"/>
<path data-z="335" class="z z335" d="M8275 17143l-99 65 -99 32c-70,105 -94,189 -164,293l-33 98 -99 33 -99 -33c-131,43 -178,52 -297,130l-131 131 -33 65 -33 -98 -165 -293 -99 -33 33 -130 330 0 98 -33 33 -97 -131 -293 -99 32 -33 -97 -99 -33 -132 -33 132 -32 66 -98 99 -32 99 32 131 -32 99 65 33 -98 66 -98 99 -32 99 -33 99 -65 -66 -98 66 -65 98 65 99 33 99 65 33 98 -33 65 0 65 -99 195 132 294z"/>
<path data-z="334" class="z z334" d="M6792 17664l-66 195 33 98 -65 195 -132 65 -99 -65 -198 -293 -197 130 -99 -65 -132 0 -330 -391 0 -97 66 -98 66 -98 66 -97 99 -66 99 66 99 65c124,-82 188,-121 296,-228l99 -196 99 -32 33 -98 66 130 99 33 131 0 99 32 132 33 99 33 33 97 99 -32 131 293 -33 97 -98 33 -330 0 -33 130 0 131 -132 0z"/>
<path data-z="333" class="z z333" d="M5870 16296l165 163 -33 97 98 33 132 -65 99 -65 99 32 33 65 66 98 -33 98 -99 32 -99 196c-108,107 -172,146 -296,228l-99 -65 -99 -66 -99 66 -66 97 -99 0 -98 33 -66 -98 -33 -98 99 -65 -99 -65 -99 33 -66 -98 -99 -33 -99 -65 99 -65 66 -195 -33 -98 99 0 132 -195 197 -33 99 33 231 65z"/>
</g>
<g id="D15-Setubal">
<path data-z="332" class="z z332" d="M3201 22321l-33 98 -99 -33 -99 65 -60 11 33 -195 33 -98 -33 -262 -33 -97 -130 -66 -196 -65 98 -229 120 -228 136 89c45,181 28,192 164,326l99 33c59,58 73,151 99,228 -56,165 -73,244 -99,423z"/>
<path data-z="331" class="z z331" d="M3695 21083l165 0 198 98 66 65 230 98 66 -98 33 -97c123,81 156,149 297,195l98 33 99 130 0 130 -66 130 0 131 -98 195 0 130 -99 -65 -99 -32 -330 0 -131 65 -165 0 -99 65 -33 98 -66 97 -33 228 -99 33 -98 -33 -99 -65 -99 65 -40 -102 -92 -61 -33 -97 33 -98c26,-179 43,-258 99,-423 -26,-77 -40,-170 -99,-228l-99 -33c-136,-134 -119,-145 -164,-326l-136 -89 43 -131 98 -294 60 58 297 98 -33 -98 99 -32 99 32 33 98 197 130z"/>
<path data-z="330" class="z z330" d="M3234 19943l-231 -475 -41 -303c-19,-23 -39,-46 -57,-68l131 -33 99 -163 -22 -49 55 -16 330 -195 131 0 297 97 198 0 230 66 99 -33 66 -98 99 33 230 391 -32 97 98 33 33 98 -131 195 131 33 66 97 264 33 99 98 197 65 -33 65 66 228 0 130 -99 65 -329 163 -99 -65 -263 65 -132 0 -99 33 -363 -326 -98 33 -231 -98 -132 0 -99 -33 -66 -130 -98 -33 -264 0z"/>
<path data-z="329" class="z z329" d="M3860 21083l-165 0 -197 -130 -33 -98 -99 -32 -99 32 33 98 -297 -98 -60 -58 65 -326 0 -425 -27 -239 -5 -87 -66 -229 -32 -130 -98 -163 -261 -262 181 59 205 102 57 68 41 303 231 475 264 0 98 33 66 130 99 33 132 0 231 98 98 -33 363 326 99 -33 132 0 263 -65 99 65 -165 33 -66 97 0 131 -99 -33 -98 -65 -99 228 -99 -33 -99 294 -33 97 -66 98 -230 -98 -66 -65 -198 -98z"/>
<path data-z="328" class="z z328" d="M3399 18152l165 -98 32 98 -65 65 -66 98 -33 98 33 97 33 131 -330 195 -55 16 -77 -146 66 -196 -132 33 -131 65 -66 -32 -99 32 -99 -32 -66 97 -99 -32 -197 97 -99 -65 -99 -97 -99 -66 99 -130 99 -32 99 -66 66 -195 98 -65 297 -33 33 -65 33 -98 33 -97 99 -33 131 0 198 65 -66 98 -230 98 98 97 165 -130 99 33 132 195z"/>
<path data-z="327" class="z z327" d="M3036 18706l77 146 22 49 -99 163 -131 33 -205 -102 -181 -59 -131 -32 -131 0 -98 65 -65 98 -98 65 -98 33 51 -101 -99 -65 -33 -98 33 -97 -33 -163 33 -131 66 0 99 66 99 97 99 65 197 -97 99 32 66 -97 99 32 99 -32 66 32 131 -65 132 -33 -66 196z"/>
<path data-z="326" class="z z326" d="M1768 19165l-98 -33 -91 64 -138 2 -98 65 -131 33 98 -229 66 -196 0 -163 -36 -165 115 -33 99 33 66 98 99 -65 98 65 33 163 -33 97 33 98 99 65 -51 101 -130 0z"/>
<path data-z="325" class="z z325" d="M2188 17764l-140 30 -117 -66 98 -65 0 -131 32 -65 98 -98 0 -32 -54 -98 174 53 49 95 -16 146 32 98 99 33 99 -33 132 -65 99 65 0 98 -66 195 -33 65 -297 33 0 -163 -98 -65 -91 -30z"/>
<path data-z="324" class="z z324" d="M3827 17989l-132 131 -99 32 -32 -98 -165 98 -132 -195 -99 -33 -165 130 -98 -97 230 -98 66 -98 -198 -65 66 -98 0 -130 66 -98 33 -97 99 -98 132 98 99 32 33 -65 98 33 0 130 33 98 215 15 115 17 99 65 -33 131 -66 97 -66 98 -99 65zm-1450 -130l0 163 -98 65 -99 33 -33 -98 -33 -98 -99 -32 -99 32 -51 -32 66 -164 117 66 140 -30 91 30 98 65z"/>
<path data-z="323" class="z z323" d="M1982 18282l-33 -65 -99 -65 0 -130 66 -98 99 -32 99 32 33 98 33 98 99 -33 -66 195 -99 66 -99 32 -33 -98z"/>
<path data-z="322" class="z z322" d="M1916 18510l-66 0 -33 -97 -33 -131 -33 -97 -49 -130 98 -65 65 -98 51 32 -66 98 0 130 99 65 33 65 33 98 -99 130z"/>
<path data-z="321" class="z z321" d="M1577 18013l125 42 49 130 33 97 33 131 33 97 -33 131 -98 -65 -99 65 -66 -98 -99 -33 -35 -85 -21 -93 48 -125 30 -94 100 -100z"/>
<path data-z="320" class="z z320" d="M1447 18207l-48 125 21 93 35 85 -115 33 -128 -292 -32 -98 -66 -98 -16 -49 196 -33 229 -65 -17 82 71 23 -100 100 -30 94z"/>
</g>
<g id="D14-Lisboa">
<path data-z="319" class="z z319" d="M1245 17859l-65 -33 -55 0 54 -101 39 -94 6 -98 99 -65 99 -65 171 17 142 70 -33 173 -98 98 -359 98z"/>
<path data-z="318" class="z z318" d="M1179 17725l-86 -29 -132 0 66 -98 -33 -97 99 -163 -4 -121 168 56 99 65 66 65 -99 65 -99 65 -6 98 -39 94z"/>
<path data-z="317" class="z z317" d="M886 17892l-131 32 -25 -65 33 -163 -66 -98 66 0 99 33 99 65 132 0 86 29 -54 101 -76 0 -163 66z"/>
<path data-z="316" class="z z316" d="M730 17859l25 65 -130 -65 -98 -65 -98 32 -163 0 -131 -65 65 -131 163 -98 93 -32 109 30 132 68 66 98 -33 163z"/>
<path data-z="315" class="z z315" d="M1735 17490l-142 -70 -171 -17 -66 -65 -99 -65 -168 -56 4 -107 32 -98 -32 -97 0 -131 131 0 99 -32 66 -163 165 98 104 47 93 50 -32 98 -99 65 -66 98 66 98 66 -98 65 98 -32 97 16 64 0 186z"/>
<path data-z="314" class="z z314" d="M994 17501l33 97 -66 98 -99 -65 -99 -33 -66 0 -132 -68 -109 -30 -93 32 -163 33 -65 -98 0 -163 65 -98 33 -98 65 -131 33 -163 41 -108 127 46 33 97 99 66 99 32 99 -32 99 -33 66 98 131 32 -32 98 -4 107 4 121 -99 163z"/>
<path data-z="313" class="z z313" d="M1751 17143l-65 -98 -66 98 -66 -98 66 -98 99 -65 32 -98 -93 -50 28 -80 -66 -98 99 -32 98 32 99 -65 0 -228 99 65 99 -65 99 33 99 -65 65 -33 33 98 99 -33 0 -98 99 33 33 98 -99 195 33 98 -99 65 -197 391 -33 98 -141 96 -109 -196 -65 98 -98 65 -98 98 -16 -64 32 -97z"/>
<path data-z="312" class="z z312" d="M1916 16263l0 228 -99 65 -98 -32 -99 32 66 98 -28 80 -104 -47 -165 -98 -99 -33 99 -65 132 -130 99 32 0 -130 66 -32 131 0 99 32z"/>
<path data-z="311" class="z z" d="M1389 16491l-99 65 -99 33 -98 -65 131 -131 -33 -97 99 -33 132 -98 165 0 99 66 -66 32 0 130 -99 -32 -132 130z"/>
<path data-z="310" class="z z310" d="M1093 16784l0 131 32 97 -131 -32 -66 -98 -99 33 -99 32 -99 -32 -99 -66 -33 -97 -127 -46 57 -153 -33 -98 33 -98 -33 -98 33 -130 65 0 -65 -98 169 37 33 97 66 33 66 98 66 -98 99 33 99 65 98 -33 66 33 33 97 -131 131 98 65 99 -33 99 33 -33 98 -33 65 -99 32 -131 0z"/>
<path data-z="309" class="z z309" d="M2114 16263l-99 65 -99 -65 -99 -32 -131 0 -99 -66 -66 -97 -66 -196 -99 -97 99 -66 0 -130 -33 -98 33 -97 198 65 131 0 132 -33 99 -65 132 163 132 65 65 196 -98 32 33 98 -66 163 33 97 66 66 -99 65 -99 -33z"/>
<path data-z="308" class="z z308" d="M1356 15775l99 97 66 196 66 97 -165 0 -132 98 -99 33 -66 -33 -98 33 -99 -65 -99 -33 -66 98 -66 -98 -66 -33 -33 -97 -169 -37 0 -164 98 -195 65 -164 65 -130 73 38 99 -32 132 -33 99 -32 65 -98 99 33 99 0 33 97 99 33 -33 97 33 98 0 130 -99 66z"/>
<path data-z="307" class="z z307" d="M2509 16165l0 98 -99 33 -33 -98 -65 33 -66 -66 -33 -97 66 -163 -33 -98 98 -32 -65 -196 -132 -65 -132 -163 66 -293 99 -32 197 97 165 -65 66 98 99 65 66 98 -66 65 -99 32 -99 -32 -99 65 132 195 99 65 99 33 99 98 66 195 -99 65 -66 98 -132 0 -99 -33z"/>
<path data-z="306" class="z z306" d="M1784 15449l-131 0 -198 -65 -99 -33 -33 -97 132 -98 66 -65 66 -196 99 -65 65 -98 132 0 33 98 165 0 33 98 66 98 -99 32 -66 293 -99 65 -132 33z"/>
<path data-z="305" class="z z305" d="M961 15351l-132 33 -99 32 -73 -38 98 -262 -32 -97 32 -98 0 -53 107 -5 66 -98 66 -130 131 112 99 51 33 97 -33 98 0 130 99 131 -99 0 -99 -33 -65 98 -99 32z"/>
</g>
<g id="D13-Portalegre">
<path data-z="304" class="z z304" d="M9898 16912l-74 198 -57 31 -130 0 -131 196 -98 32 -98 131 -47 -32 -33 -65 33 -195 33 -98 -98 -33 -99 -32 -66 98 -132 0 -33 97 -99 65 -99 -65 -98 33 -33 -98 -66 -98 -33 -97 132 -98 98 -228 -33 -98 132 -293 33 -98 99 -97 99 -65 99 -33 197 98 198 97 122 70 76 93 66 98 33 98 65 97 150 78 -10 50 0 131 -98 32z"/>
<path data-z="303" class="z z303" d="M7056 16263l99 33 99 -33 197 -65 66 98 99 32 66 -97 198 97 66 98 -99 65 -99 33 -99 32 -66 98 -33 98 -99 -65 -131 32 -99 -32 -99 32 -66 98 -132 32 -99 -32 -131 0 -99 -33 -66 -130 -66 -98 -33 -65 132 -130 197 -98 99 65 198 -65z"/>
<path data-z="302" class="z z302" d="M10257 15965l65 98 -130 229 -131 196 -33 98 -22 113 -150 -78 -65 -97 -33 -98 -66 -98 -76 -93 76 -200 -99 -65 -33 -98 -21 -331 65 52 98 79 261 -98 196 98 98 163 0 130z"/>
<path data-z="301" class="z z" d="M9540 15542l20 330 33 98 99 65 -76 200 -122 -70 -198 -97 -197 -98 -99 33 -99 65 -33 -131 -132 0 -99 -195 66 -98 -99 -65 -65 -65 131 -98 33 -97 99 -33 132 0 99 -32 179 -72 65 65 66 0 184 137 33 97 -20 61z"/>
<path data-z="300" class="z z300" d="M8637 16556l33 98 -98 228 -132 98 -33 -98 33 -98 -99 -97 -99 -33 0 -65 33 -65 -33 -98 -99 -65 -99 -33 -98 -65 32 -98 66 -97 -33 -98c-50,-148 -116,-279 -164,-423l99 -98 131 -98 66 0 198 65 198 98 65 65 99 65 -66 98 99 195 132 0 33 131 -99 97 -33 98 -132 293z"/>
<path data-z="299" class="z z299" d="M8011 15970l33 98 -66 97 -32 98 -66 65 -198 -97 -66 97 -99 -32 -66 -98 -197 65 0 -130 33 -98 -99 -65 -165 -228 -66 -130 132 0 99 32 263 -32 99 -33 99 -32 99 -66 99 -32 99 0 -99 98c48,144 114,275 164,423z"/>
<path data-z="298" class="z z298" d="M6562 16361l-132 130 -99 -32 -99 65 -132 65 -98 -33 33 -97 -165 -163 -231 -65 -99 -33 33 -98 132 -163 33 -97 66 -98 99 -33 329 0 33 -97 33 -228 231 -98 33 -98 99 -32 98 195 33 130 132 33 33 98 66 130 165 228 99 65 -33 98 0 130 -99 33 -99 -33 -198 65 -99 -65 -197 98z"/>
<path data-z="297" class="z z297" d="M9114 14888l33 98 0 130 65 66 -179 72 -99 32 -132 0 -99 33 -33 97 -131 98 -198 -98 -198 -65 -33 -130 -99 -65 -33 -98 66 -130 33 -196 -33 -97 -66 -98 -164 -130 132 -98 98 33 198 -98 99 32 66 98 0 130 99 66 66 97 98 -32 33 -98 215 -25 66 49 65 98 131 98 -66 131z"/>
<path data-z="296" class="z z296" d="M7188 15644l-99 -32 -132 0 -33 -98 -132 -33 -33 -130 -98 -195 -99 -65 66 -98 -33 -98 99 -65 65 -98 33 -130 99 33c131,43 184,89 297,163l132 195 98 33c99,65 198,130 297,195l263 65 99 65 -131 98 -99 0 -99 32 -99 66 -99 32 -99 33 -263 32z"/>
<path data-z="295" class="z z295" d="M7814 14407l164 130 66 98 33 97 -33 196 -66 130 33 98 99 65 33 130 -66 0 -99 -65 -263 -65c-99,-65 -198,-130 -297,-195l-98 -33 -132 -195c-113,-74 -166,-120 -297,-163l-99 -33 -164 0 -99 33 33 -98c132,-43 263,-87 395,-130l198 -98 66 -65 33 -98 197 -98 66 196 198 130 99 33z"/>
<path data-z="294" class="z z294" d="M6595 14895l33 98 -66 98 99 65 -99 32 -33 98 -231 98 -33 228 -33 97 -329 0 -99 33 -66 98 -33 97 -132 163 -33 98 -197 33 -132 195 -99 0 -99 -228 0 -130 -99 -65 -33 -98 -98 -65 -95 -39 62 -92 66 -97 32 -98 99 -65 99 -33 99 -32 66 -98 99 -65 66 -98 66 -163 65 -97 99 32 132 0 33 -97 99 -66 33 -97 66 -98 -33 -98 132 0 65 -97 66 32 33 98 99 32 198 131 99 -33 164 0 -33 130 -65 98 -99 65z"/>
<path data-z="293" class="z z293" d="M8918 14512l-215 25 -33 98 -98 32 -66 -97 -99 -66 0 -130 -66 -98 99 -65 0 -130 33 -98 -33 -97 74 -297 45 91 98 65 131 0 130 98 -32 229 -75 186 42 42 0 163 65 49z"/>
<path data-z="292" class="z z292" d="M8514 13589l-71 293 30 101 -33 98 0 130 -99 65 -99 -32 -198 98 -98 -33 -132 98c-128,-42 -82,-22 -198,-98l99 -65c0,-149 11,-99 -33,-228l99 -65 33 -98 -66 -195 66 -131c151,0 100,-10 230,33l66 -65 0 -131 123 -109 65 131 163 98 53 105z"/>
<path data-z="291" class="z z291" d="M7385 12974l33 97 99 33 99 -98c136,-90 189,-95 346,-139l75 225 65 98 131 65 -123 109 0 131 -66 65c-130,-43 -79,-33 -230,-33l-66 131 66 195 -33 98 -99 65c44,129 33,79 33,228l-99 65 -99 -65 -33 -98 -33 -98 -197 98 -33 98 -66 65 -198 98 66 -131 0 -130 -99 -32 -99 -66 -99 -32 -65 -98 -99 -65 -33 -98 66 -97 66 32 65 -98 132 -65 66 -97 99 -66 33 -97 99 -33 33 -98 99 -130 98 -32z"/>
<path data-z="290" class="z z290" d="M6726 14016l99 32 99 66 99 32 0 130 -66 131c-132,43 -263,87 -395,130l-33 98 -198 -131 -99 -32 -33 -98 99 -163 -66 -97 -99 -66 -98 -97 -33 -65 33 -131 98 -65c33,-98 66,-195 99,-293l99 65 99 33 99 65 66 98 -66 97 33 98 99 65 65 98z"/>
</g>
<g id="D12-Santarem">
<path data-z="289" class="z z289" d="M4881 17012l-98 33 -264 65 -33 98 -231 130 -197 0 -66 65 -115 113 -215 -15 -33 -98 0 -130 -98 -33 -33 65 -99 -32 0 -130 -33 -98 66 -196 -33 -97 -198 -65 -66 -98 66 -130 99 32 97 -21 199 -142 165 -195 -66 -196 66 -97 198 -65 99 65 99 -33 164 0 99 33 33 97 132 -65 103 -71 95 39 98 65 33 98 99 65 0 130 99 228 33 98 -66 195 -99 65 99 65 99 33 66 98 99 -33 99 65 -99 65 33 98 66 98 98 -33 99 0 -66 98 -66 98 -197 -66 -33 -97 -99 -65 -99 32 -66 -32 -33 -98 -99 -98z"/>
<path data-z="288" class="z z288" d="M3432 16849l-66 196 33 98 0 130 -132 -98 -99 98 -33 97 -66 98 0 130 -66 98 -131 0 -99 33 0 -98 -99 -65 -132 65 -99 33 -99 -33 -32 -98 16 -146 -49 -95 -174 -53 141 -96 33 -98 197 -391 99 -65 -33 -98 99 -195 -33 -98 132 0 66 -98 66 228 98 65 231 66 -66 130 66 98 198 65 33 97z"/>
<path data-z="287" class="z z287" d="M3397 16470l-97 21 -99 -32 -231 -66 -98 -65 -66 -228 99 -65 98 -65 132 -195 99 -98 99 65 198 0 98 -33 33 98 99 33 -66 97 66 196 -165 195 -199 142z"/>
<path data-z="286" class="z z286" d="M4255 15449l33 98 -33 97 66 163 -164 0 -99 33 -99 -65 -198 65 -99 -33 -33 -98 -98 33 -198 0 -99 -65 -33 -98 66 -98 33 -97 33 -98 0 -130 99 -65 99 0 33 97 98 66 132 162 99 -32 66 -98 132 0 164 163z"/>
<path data-z="285" class="z z285" d="M3267 15481l-66 98 33 98 -99 98 -132 195 -98 65 -66 -195 -99 -98 -99 -33 -99 -65 -132 -195 99 -65 99 32 99 -32 66 -65 197 -65 33 97 99 65 66 -97 99 162z"/>
<path data-z="284" class="z z284" d="M4848 15514l-32 98 -66 97 -62 92 -103 71 -132 65 -33 -97 -99 -33 -66 -163 33 -97 -33 -98 -164 -163 -79 0 -20 -195 -99 -65 -33 -163 -66 -98 33 -65 99 -33 66 -130 205 -145 25 -50 33 -98 0 -130 66 -83 157 -24 74 -56 132 -33 33 98 66 163 9 116 56 112 24 101 75 127 33 97 66 98 33 98c99,65 198,130 297,195l-66 98 -99 65 -66 98 -99 32 -99 33 -99 65z"/>
<path data-z="283" class="z z283" d="M3794 14765l66 98 33 163 99 65 20 195 -53 0 -66 98 -99 32 -132 -162 -98 -66 -33 -97 33 -131 32 -130 198 -65z"/>
<path data-z="282" class="z z282" d="M3992 14537l-66 130 -99 33 -33 -130 -33 -98 33 -98 33 -98 66 0 99 -32 66 -98 99 -98 164 -17 -66 83 0 130 -33 98 -25 50 -205 145z"/>
<path data-z="281" class="z z281" d="M3564 14960l-33 131 -99 0 -99 65 0 130 -33 98 -33 97 -99 -162 -66 97 -99 -65 -33 -97 -197 65 -66 -98 -99 -65 -66 -98 99 33 99 -33 33 -98 99 -32 -33 -98 -99 -65 99 -130 33 -98 -132 0 -33 -98 -66 -97 -198 -66 66 -97 0 -163 -33 -98 99 -32 297 0 131 32 99 65 66 98 -165 65 0 130 198 -65 99 33 99 -33 99 -32 66 -65 164 97 99 65 -33 98 -33 98 33 98 33 130 -33 65 -198 65 -32 130z"/>
<path data-z="280" class="z z280" d="M2740 14765l99 65 33 98 -99 32 -33 98 -99 33 -99 -33 -165 65 -197 -97 -66 -98 -33 -98 0 -130 -33 -65 0 -359 99 33 99 33 66 -163 65 -131 99 -130 33 98 0 130 0 33 -66 97 198 66 66 97 33 98 132 0 -33 98 -99 130z"/>
<path data-z="279" class="z z279" d="M4931 13995l115 314 33 98 -33 163 -99 65 -75 -127 -24 -101 -56 -112 -9 -116 -66 -163 -33 -98 33 -195 99 32 98 33 33 98 -16 109z"/>
<path data-z="278" class="z z278" d="M4478 14007l-157 24 -164 17 33 -130 59 -108 -27 -120 132 0 66 98 66 98 94 -66 137 -97 -33 195 -132 33 -74 56z"/>
<path data-z="277" class="z z277" d="M4249 13810l-59 108 -33 130 -191 -17 9 -162 94 -106 180 47z"/>
<path data-z="276" class="z z276" d="M5606 13560l-80 118 -183 -20 -33 -98 -33 -98 33 -98 62 -243 102 48 132 0 66 65 66 98 -33 98 0 97 -99 33z"/>
<path data-z="275" class="z z275" d="M5936 14439l33 98 -66 98 -33 97 -99 66 -33 97c-151,0 -100,11 -231,-32 -91,136 -66,99 -131,260l-297 -195 -33 -98 -66 -98 -33 -97 99 -65 33 -163 -148 -412 16 -109 -33 -98 -197 -65 -99 -65 99 -98 99 -33 65 -97 99 -33 66 -98 -33 -97 33 -98 33 -98c193,48 126,20 293,115l-62 243 -33 98 33 98 33 98 183 20 80 -118 99 -33 99 65 0 261 99 65 99 -32 33 65 98 97c113,92 50,-8 165,163l-99 163 -66 -32 -65 97 -132 0z"/>
<path data-z="274" class="z z274" d="M4816 13527l-99 33 -99 98 99 65 -137 97 -94 66 -66 -98 -66 -98 -132 0 -32 -65 -99 -65 33 -98 33 -98 -66 -97 -33 -98 -66 -195 33 -98 33 -98 90 -59 107 27 66 0 198 65 99 -65 99 32 -32 124 32 104 99 -65 263 65 -33 98 -33 98 33 97 -66 98 -99 33 -65 97z"/>
<path data-z="273" class="z z273" d="M3893 14276l-66 0 -99 -65 -164 -97 -33 -131 33 -65 -66 -98 -99 -65 101 -165 195 -193 66 -130 99 -33 132 -260 66 195 33 98 66 97 -33 98 -33 98 99 65 32 65 27 120 -180 -47 -94 106 -9 162 191 17 -99 98 -66 98 -99 32z"/>
<path data-z="272" class="z z272" d="M3003 14146l165 -65 -66 -98 -99 -65 99 -98 -33 -97 198 -131 -33 -97 66 -98 200 193 -101 165 99 65 66 98 -33 65 33 131 -66 65 -99 32 -99 33 -99 -33 -198 65 0 -130z"/>
<path data-z="271" class="z z271" d="M6496 12941l66 98 99 65 33 98 65 97 -33 293 -65 98 -66 -32 -66 -98 -99 -65 -99 -33 -99 -65c-33,98 -66,195 -99,293l-98 65 -33 131 -99 32 -99 -65 0 -261 -99 -65 0 -97 33 -98 -66 -98 66 -98 33 -97 -33 -98 66 -98 0 -130 33 -98 0 -97 132 -33 99 65 98 -32c83,122 66,68 66,228l0 130 264 65z"/>
<path data-z="270" class="z z270" d="M4816 12941l-99 65 -32 -104 32 -124 -99 -32 -99 65 -198 -65 0 -224 99 -102 132 0 99 -65 33 -163 197 0 99 195 99 -65 103 190 -70 103 33 98 -66 293 -263 -65z"/>
<path data-z="269" class="z z269" d="M3500 13590l-200 -193 0 -195 -66 -98 66 -98 99 -32 99 -196 -198 -130 33 -98 -33 -97 33 -98 198 -65 98 32 198 -65 66 -98 198 -97 66 97 33 228 32 98 99 37 0 126 0 98 -66 0 -107 -27 -90 59 -33 98 -33 98 -132 260 -99 33 -66 130 -195 193z"/>
</g>
<g id="D11-Leiria">
<path data-z="268" class="z z268" d="M1323 15254l-99 -131 0 -130 33 -98 -33 -97 -99 -51 33 -80 99 -65 99 33 66 97 99 -65 132 0 0 65 33 98 -99 65 -66 196 -66 65 -132 98z"/>
<path data-z="267" class="z z267" d="M1620 14407l131 130 33 98 -131 32 -132 0 -99 65 -66 -97 -99 -33 -99 65 -33 80 -131 -112 -33 -98 -33 -98 -173 -139 131 0 131 -98 108 -23 66 97 132 0 198 98 99 33z"/>
<path data-z="266" class="z z266" d="M657 14594l0 -131 -130 -32 65 -98 98 65 65 -98 173 139 33 98 33 98 -66 130 -66 98 -107 5 0 -78 -32 -98 27 -36 -93 -62zm-565 -545c120,0 120,191 0,191 -120,0 -120,-191 0,-191z"/>
<path data-z="265" class="z z265" d="M2048 14635l33 65 0 130 -165 0 -33 -98 -132 0 -65 98 -33 -98 0 -65 131 -32 -33 -98 -131 -130 -99 -33 -198 -98 -132 0 -66 -97 -108 23 195 -196 164 -261 130 -98 -51 141 132 195 197 -65 297 98 0 130 -99 33 66 97 0 359z"/>
<path data-z="264" class="z z264" d="M2081 13006l33 98 -66 130 40 102 -77 79 -103 -35 -94 68 -28 68 59 199 -143 -25 -98 -141 164 -261 65 -98 -65 -130 49 11 99 -32 165 -33z"/>
<path data-z="263" class="z z263" d="M3201 13006l33 98 66 98 0 195 -66 98 -132 -261 -197 -130 -132 0 -198 -65 0 -65 -33 -98 99 -65 132 0 99 65 98 -33 198 66 33 97z"/>
<path data-z="262" class="z z262" d="M2575 12974l0 65 198 65 132 0 197 130 132 261 33 97 -198 131 33 97 -99 98 -131 -32 -297 0 -99 32 -33 -98 33 -97 0 -131 66 -97 -33 -131 -99 66 -66 -196 27 -145 105 -83 99 -32z"/>
<path data-z="261" class="z z261" d="M2371 13089l-27 145 66 196 99 -66 33 131 -66 97 0 131 -33 97 33 98 -99 130 -65 131 -66 163 -99 -33 -99 -33 -66 -97 99 -33 0 -130 -297 -98 -197 65 -132 -195 51 -141 98 -98 98 141 143 25 -59 -199 28 -68 94 -68 103 35 77 -79 -40 -102 66 -130 -33 -98 -165 33 -99 32 -49 -11 97 -229 74 -258 76 75 99 33 192 97 38 131 27 180z"/>
<path data-z="260" class="z z260" d="M2344 12681l-38 97 -192 -97 -99 -33 -76 -75 57 -199 221 -588 62 15 98 -32 66 97 -66 131 66 65 -33 228 99 32 33 98 -33 98 -66 97 -99 66z"/>
<path data-z="259" class="z z259" d="M3234 13104l-66 -195 -198 -66 -98 33 -99 -65 -132 0 -99 65 33 98 -99 32 -105 83 -27 -180 -38 -131 38 -97 99 -66 66 -97 33 -98 -33 -98 -99 -32 33 -228 -66 -65 66 -131 -66 -97 -98 32 -62 -15 73 -196 60 -197 126 50 396 195 131 131 99 195 99 98 132 0 165 163 33 65 -198 65 -33 98 33 97 -33 98 198 130 -99 196 -99 32 -66 98z"/>
<path data-z="258" class="z z258" d="M5343 11834c-130,85 -82,58 -234,114l36 -82 -66 -130 -66 -98 0 -130 66 -130 99 32c128,-84 87,-38 132,-163l99 -260 65 195 66 98 33 130 -99 261c-46,126 0,76 -131,163z"/>
<path data-z="257" class="z z257" d="M5409 10987l-99 260c-45,125 -4,79 -132,163l-99 -32 0 -131 0 -130 66 -98 33 -97 132 -196 99 66 33 97 -33 98z"/>
<path data-z="256" class="z z256" d="M4914 12029l-33 163 -197 0 33 -163 99 -293 -99 -33 -99 66 -33 -66 99 -162 -33 -66 33 -97 66 -98 131 -65 -33 -98c78,-114 57,-69 99,-195 127,-42 72,-39 231,0l-33 97 -66 98 0 261 -66 130 0 130 66 98 66 130 -36 82c-19,21 -160,70 -195,81z"/>
<path data-z="255" class="z z255" d="M4684 12192l-33 163 -99 65 -132 0 -99 102 -99 -37 -32 -98 -33 -228 -66 -97 0 -131 99 -32 98 -33 99 65 198 -65 33 -97 99 -66 99 33 -99 293 -33 163z"/>
<path data-z="254" class="z z254" d="M4453 11443l0 130 99 -32 99 -66 33 66 -99 162 33 66 -33 97 -198 65 -99 -65 -98 33 -66 -163 -198 -228 0 -130 33 -98 198 -98 230 -32 33 97 66 98 -33 98z"/>
<path data-z="253" class="z z253" d="M3893 12159l-66 98 -198 65 -98 -32 -33 -65 -165 -163 -132 0 -99 -98 -99 -195 -131 -131 -396 -195 -126 -50 122 -397 136 89 132 0 99 32 66 -98 98 -32 165 65 102 74 129 -9 66 98 99 32 98 -195 165 0 0 358 99 98 198 228 66 163 -99 32 0 131 -198 97z"/>
</g>
<g id="D10-Castelo_Branco">
<path data-z="252" class="z z252" d="M7287 13006c-103,135 -86,91 -132,228l-99 33 -33 97 -99 66 -66 97 -132 65 33 -293 101 -71 31 -92 -33 -97 66 -228 66 -98c-41,-121 -41,-74 0,-195l118 -47 47 47 197 -65 33 -98 231 -33 -33 98 330 98 131 0 33 97 -11 183 -127 0 23 69c-157,44 -210,49 -346,139l-99 98 -99 -33 -33 -97 -98 32z"/>
<path data-z="251" class="z z251" d="M6924 12811l-66 228 33 97 -31 92 -101 71 -65 -97 -33 -98 -99 -65 -66 -98 -264 -65 0 -261 -66 -97 -98 32 -99 -65 -33 11 33 -76 197 -98 33 -97 99 -33 36 -106 96 41 99 -33 99 -65 66 -163 263 65 66 196 -33 98 66 195 52 51 -118 47c-41,121 -41,74 0,195l-66 98z"/>
<path data-z="250" class="z z2520" d="M5837 12518l0 97 -33 98 0 130 -66 98 33 98 -33 97 -66 98 -66 -65 -132 0 -102 -48 -131 -74 -162 -41 66 -293 -33 -98 70 -103 95 -59 66 -33 197 130 99 33 198 -65z"/>
<path data-z="249" class="z z249" d="M10257 11917l-98 33 -65 130 65 131 -65 98 32 130 -98 131 -32 163 -196 65 -98 -32 -131 0 -98 65 -391 -65c27,-135 37,-165 116,-281l98 -195 33 -98 -99 -33 -131 33 -198 -98 -66 -97 -99 32 -99 -65 66 -98 66 -228c-33,-97 -66,-195 -99,-293l-66 -98 0 -65 0 -130 33 -98 99 -65 66 -97 198 -98 33 98 99 65 98 -65 33 -98 99 -33c99,33 198,65 297,98l99 -65 98 32c99,-32 198,-65 297,-97l151 -93 47 158 102 15 65 196 0 130 -32 98 0 131 -66 196 0 130 -32 164 -98 65 -33 98z"/>
<path data-z="248" class="z z248" d="M8044 12518l-131 0 -330 -98 33 -98 -231 33 -33 98 -197 65 -99 -98 -66 -195 33 -98 -66 -196 -263 -65 -33 -97 98 -33 110 33 104 -25 83 57 33 -98 -33 -97 198 -98 -99 -98 33 -97 -33 -98 99 -33 -33 -130 33 -98 66 -97 197 -131 231 66 198 -66 98 196 0 130 33 98 103 45 62 -110 132 -33 99 33 33 97 98 65 66 98c33,98 66,196 99,293l-66 228 -66 98 99 65 99 -32 66 97 198 98 131 -33 99 33 -33 98 -98 195c-79,116 -89,146 -116,281l-164 32 -130 66 -196 0 -131 32 -98 -32 -98 -66 -199 0 11 -183 -33 -97z"/>
<path data-z="247" class="z z247" d="M6661 11769l33 97 -66 163 -99 65 -99 33 -96 -41 30 -89 -33 -98 -99 -33 -99 -32 -65 -98 -99 -65 -132 -33 -99 -65 -99 -98 132 -65 99 -32 132 -65 98 -66 99 -32 99 -33 99 -32 0 -196 198 -97 99 65 98 65 99 32 99 66 99 -33 132 0 33 130 -99 33 33 98 -33 97 99 98 -198 98 33 97 -33 98 -83 -57 -104 25 -110 -33 -98 33z"/>
<path data-z="246" class="z z246" d="M6331 11899l33 98 -30 89 -36 106 -99 33 -33 97 -197 98 -33 76 -99 22 -198 65 -99 -33 -197 -130 -161 92 -103 -190 -99 65 -99 -195 33 -163c148,-49 86,-33 195,-81 156,-67 62,-1 234,-114 131,-87 85,-37 131,-163l67 -166 98 -30 99 98 99 65 132 33 99 65 65 98 198 65z"/>
<path data-z="245" class="z z245" d="M9263 10694l-33 98 -98 65 -99 -65 -33 -98 -198 98 -33 -131 99 -130 0 -130 -33 -98 33 -33 132 -195 -99 -33 33 -97 -33 -131 165 -32 66 -130 98 32 99 65 99 -65 33 -163 132 33 33 130 99 33 99 -33 98 -65 99 65 7 78 -97 196 -33 131 33 97 32 131 33 98 261 33 47 88 -151 93c-99,32 -198,65 -297,97l-98 -32 -99 65c-99,-33 -198,-65 -297,-98l-99 33z"/>
<path data-z="244" class="z z244" d="M8180 11195l-103 -45 -33 -98 0 -130 -98 -196 -198 66 -231 -66 -197 131 -66 97 -33 98 -132 0 -99 33 -99 -66 -99 -32 33 -65 -33 -98 33 -98 66 98 99 -65 66 -98 33 -97 -33 -98 99 32 99 -32 197 -130 99 32 132 -32 0 -131 395 -130 165 -33 330 -162 98 -33 99 -33 69 -5 63 5 33 131 -33 97 99 33 -132 195 -33 33 33 98 0 130 -99 130 33 131 -66 97 -99 65 -33 98 0 130 0 65 -98 -65 -33 -97 -99 -33 -132 33 -62 110z"/>
<path data-z="243" class="z z243" d="M8604 9228l0 -130 99 -65 99 -33 99 33 0 130 -33 98 33 97 -132 196 -99 65 66 98 33 97 -99 33 -98 33 -99 -33 0 -98 0 -325 33 -98 98 -98z"/>
<path data-z="242" class="z z242" d="M7155 10498l-99 -32 -66 32 -66 -97 -99 -65 -33 -98 33 -98 66 -163 165 -32 198 -163 131 -33 99 -65 33 -98 49 -92 83 27 132 0 99 -32 98 -293 99 -98 99 32 132 0 99 66 197 -98 0 130 -98 98 -33 98 0 325 0 98 99 33 -330 162 -165 33 -395 130 0 131 -132 32 -99 -32 -197 130 -99 32z"/>
</g>
<g id="D09-Coimbra">
<path data-z="241" class="z z241" d="M6002 11313l-132 65 -99 32c-108,44 -70,45 -231,98l33 -98 165 -195 33 -98 99 -32 33 -98 -33 -98 0 -130 -66 -98 198 -65 98 33 99 -33 -66 -130 66 -98 198 -130 231 -33 103 -97 94 32 -33 98 33 98 99 65 66 97 66 -32 33 98 -33 97 -66 98 -99 65 -66 -98c-41,122 -41,74 0,196l-33 65 -197 -130 -198 97 0 196 -297 97 -98 66z"/>
<path data-z="240" class="z z240" d="M5804 10661l66 98 0 130 33 98 -33 98 -99 32 -33 98 -165 195 -33 -130 -66 -98 -32 -97 -33 -98 33 -98 -33 -97 -99 -66 33 -97 33 -98 33 -98 -33 -97 -33 -98 0 -130c116,28 216,60 329,97l33 98 264 0 99 -65 65 228 66 130 -99 33 -98 -33 -99 33 -99 32z"/>
<path data-z="239" class="z z239" d="M5376 10531l-33 98 -33 97 -132 196 -132 -33 -132 -163 -98 -65 32 -195 33 -98 -33 -98 99 -32 99 32 99 -32 99 -65 99 -65 0 130 33 98 33 97 -33 98z"/>
<path data-z="238" class="z z238" d="M5046 10889l-99 33 -33 97c-138,-27 -230,-54 -362,-97l-132 -228 165 -98 -33 -228 66 -163 33 0 99 0 98 65 33 98 -33 98 -32 195 98 65 132 163z"/>
<path data-z="237" class="z z237" d="M4750 11280l-66 98 -33 97 -99 66 -99 32 0 -130 33 -98 -66 -98 -33 -97 -230 32 -33 -163 98 -32 99 -33 -66 -97 66 -33 99 -130 132 228c132,43 224,70 362,97l-66 98 33 98 -131 65z"/>
<path data-z="236" class="z z236" d="M4255 10857l66 97 -99 33 -98 32 -66 -65 -165 0 -66 -130 -165 -163 132 -195 33 -65 49 -98 83 65 132 0 -33 98 33 98 99 32 98 -65 99 65 33 98 -99 130 -66 33z"/>
<path data-z="235" class="z z235" d="M3827 11052l-165 0 -98 195 -99 -32 -66 -98 -129 9 -102 -74 -48 -121 -84 -139 -33 -98 66 -65 198 0 99 -33 33 -98 -99 -65 33 -97 99 -33 197 65 165 98 -132 195 165 163 66 130 165 0 66 65 33 163 -198 98 -33 98 0 130 -99 -98 0 -358z"/>
<path data-z="234" class="z z234" d="M6397 10238l-198 130 -66 98 -65 -228 -99 65 -264 0 -33 -98c-113,-37 -213,-69 -329,-97l-66 -98 -99 -130 198 -98c44,-128 9,-80 166,-196l97 261 99 -65 132 163 33 -98 99 -33 33 -97 98 -116 99 18 -33 98 99 -33 494 163 99 130 -66 163 -94 -32 -103 97 -231 33z"/>
<path data-z="233" class="z z233" d="M5178 9880l99 130 66 98 -99 65 -99 65 -99 32 -99 -32 -99 32 -98 -65 -33 -97 66 -163 197 0 198 -65z"/>
<path data-z="232" class="z z232" d="M6694 9098l98 32c41,122 41,74 0,196 81,120 41,89 165,130l-33 98 -99 32c-25,20 -114,193 -131,228l-396 -130 -99 33 33 -98 -99 -18 33 -112 132 32c77,-114 57,-69 99,-195l-99 -65 66 -98 -99 -65c0,-123 -7,-76 33,-196 51,-151 4,-70 165,-162 128,-74 26,-41 198,-98l131 195c-122,81 -83,42 -164,163l66 98z"/>
<path data-z="231" class="z z231" d="M5870 9196l395 -196 0 98 99 65 -66 98 99 65c-42,126 -22,81 -99,195l-132 -32 -33 112 -98 116 -33 97 -99 33 -33 98 -132 -163 -99 65 -145 -391 211 -163 165 -97z"/>
<path data-z="230" class="z z230" d="M4783 9945l-66 163 -132 -98 0 -130 -33 -98 -99 -196 99 -65 -33 -97 132 -131 197 65 0 66c128,42 82,21 198,97l99 -65 99 -32 132 0 118 32 46 130c-155,116 -121,68 -164,196l-198 98 -198 65 -197 0z"/>
<path data-z="229" class="z z229" d="M4717 10108l33 97 -132 0 -66 163 33 228 -165 98 -33 -98 -99 -65 -98 65 -99 -32 -33 -98 33 -98 -132 0 -83 -65 -49 98 -33 -98 0 -130 -33 -98 -66 -195 -33 -98 99 -65 66 195 99 -32 99 32 0 -130 165 -33 32 -130 66 -98 99 -32 33 -98 99 33 33 97 -99 65 99 196 33 98 0 130 132 98z"/>
<path data-z="228" class="z z228" d="M3069 10629l-66 -131 198 -130 33 -65c-44,-130 -88,-261 -132,-391l-66 -260 99 -33 99 33 264 32 66 98 98 0 33 98 66 195 33 98 0 130 33 98 -33 65 -165 -98 -197 -65 -99 33 -33 97 99 65 -33 98 -99 33 -198 0z"/>
<path data-z="227" class="z z227" d="M3036 10792l84 139 48 121 -165 -65 -98 32 -66 98 -99 -32 -132 0 -136 -89 177 -581 -33 -98 -130 -131 33 -163 63 13 100 -470 288 118 66 -32 66 260c44,130 88,261 132,391l-33 65 -198 130 66 131 -66 65 33 98z"/>
<path data-z="226" class="z z226" d="M4091 9293l-33 131 33 97 -99 65 -99 33 33 98 99 65 0 130 -99 -32 -99 32 -66 -195 -99 65 -98 0 -66 -98 -264 -32 -99 -33 -99 33 -66 32 -288 -118 98 -392 223 87 99 32 99 -65 66 -98 33 -97 -33 -98 99 65 132 0 0 -130 66 -163 197 98 -33 97 -33 131 99 97 99 -32 165 -33 0 83 33 145z"/>
<path data-z="225" class="z z225" d="M3267 8935l33 98 -33 97 -66 98 -99 65 -99 -32 -223 -87 147 -608 241 239 99 130z"/>
</g>
<g id="D08-Guarda">
<path data-z="224" class="z z224" d="M10584 8685l65 261 98 98 98 65 -33 196 -183 89 -111 107 33 98 -98 98 -196 0 -131 98 -98 -33 -7 -78 -99 -65 -98 65 -99 33 -99 -33 -33 -130 -132 -33 -33 163 -99 65 -99 -65 -98 -32 -66 130 -165 32 -132 0 -33 -97 -66 -98 99 -65 132 -196 -33 -97 33 -98 0 -130 99 -65 132 32 395 -65 231 -260 -99 -294 33 -97 66 -33 105 91 -7 137 132 163 231 -163 296 130 106 0 -37 76z"/>
<path data-z="223" class="z z223" d="M9527 8935l-395 65 -132 -32 -99 65 -99 -33 -99 33 -99 65 -197 98 -99 -66 -33 0 33 -97 0 -131 -66 -97 -66 -98 -33 -98 33 -130 33 -98 99 -32 99 32 99 -32 33 -98 98 -98 33 -97 66 -98 33 -98 99 -65 99 -163 99 33 66 -98 66 196 32 130 -32 32 32 98 99 -65 66 -98 99 -32 33 97 33 98 99 65 99 -32 66 97 -66 98 -66 33 -33 97 99 294 -231 260z"/>
<path data-z="222" class="z z222" d="M8044 8870l132 0 66 -65 66 97 0 131 -33 97 -99 0 -99 -32 -99 98 -98 293 -99 32 -132 0 -83 -27 50 -103 33 -195 66 -131 33 -97 99 -33 99 -65 98 0z"/>
<path data-z="221" class="z z221" d="M7748 8968l-33 97 -231 -65 -33 -98 -66 -97 -98 -98 -99 -32 -132 -33 66 -195 33 -98 99 -33 98 -32 99 -33 165 -65 99 -33 66 -97 66 65 0 130 99 33 98 32 33 98 99 65 -33 130 33 98 66 98 -66 65 -132 0 -98 0 -99 65 -99 33z"/>
<path data-z="220" class="z z220" d="M7616 9391l-50 103 -49 92 -33 98 -99 65 -131 33 -198 163 -165 32 -99 -130 -98 -33 65 -130 66 -98 99 -32 33 -98 -99 -32 -66 -98 33 -98 -33 -98 -98 -32 -66 -98 66 -98 98 -65 -66 -97 -65 -98 33 -98 98 33 99 -65 99 -65 132 0 -66 195 132 33 99 32 98 98 66 97 33 98 231 65 -66 131 -33 195z"/>
<path data-z="219" class="z z219" d="M8736 7958l-66 98 -33 97 -98 98 -33 98 -99 32 -99 -32 -99 32 -33 98 -99 -65 -33 -98 -98 -32 32 -98 -32 -98 131 -32 -33 -98 99 -65 66 -98 33 -98 33 -97 99 -65 132 0 98 -33 99 33 99 -33 99 33 66 97 -99 163 -99 65 -33 98z"/>
<path data-z="218" class="z z218" d="M7978 8186l-32 98 -99 -33 0 -130 -66 -65 -66 97 -99 33c33,-98 66,-195 99,-293l33 -228 -33 -65 165 -33 131 -32 33 -98 33 -98 99 -32 66 65 -99 65 132 163 -33 97 -33 98 -66 98 -99 65 33 98 -131 32 32 98z"/>
<path data-z="217" class="z z217" d="M8703 7535l-99 -33 -98 33 -132 0 -99 65 -132 -163 99 -65 -66 -65 33 -163 -132 -131 66 -32 66 -98 99 -163 0 -97 -99 -65 33 -66 33 -97 187 57 142 40 -32 98 65 98 99 -33 198 130 231 98 -66 98 -33 98 33 97 99 33 -33 98 -198 65 -66 163 -99 -33 -99 33z"/>
<path data-z="216" class="z z216" d="M7880 7567l-165 33 -99 -98 -33 -98 99 -65 -33 -98 -132 -65 -33 -97 66 -98 33 -98 33 -98 66 -97 165 -33 66 98 98 65 66 65 66 98 -66 32 132 131 -33 163 -99 32 -33 98 -33 98 -131 32z"/>
<path data-z="215" class="z z215" d="M9988 8642l-132 -163 7 -137 -105 -91 66 -98 -66 -97 131 -261 33 -98 0 -260 99 -33 33 -163 99 -32 66 -98 99 33 99 -33 98 -32 101 71 57 71 41 223 -1 91 -129 431 0 131 130 65 65 229 0 0 -97 98 -61 120 -106 0 -296 -130 -231 163z"/>
<path data-z="214" class="z z214" d="M9494 7828l-99 32 -66 98 -99 65 -32 -98 32 -32 -32 -130 -66 -196 -66 98 -99 -33 -66 -97 66 -163 198 -65 33 -98 -99 -33 -33 -97 33 -98 66 -98c33,-98 65,-195 98,-293l66 -98 47 -116 151 -46 -33 228 -66 97 132 196 198 65 98 65 99 98 33 97 66 65 -33 163 -99 33c0,87 0,174 0,260l-33 98 -131 261 -99 32 -99 -65 -33 -98 -33 -97z"/>
<path data-z="213" class="z z213" d="M9198 6330l178 46 -47 116 -66 98c-33,98 -65,195 -98,293l-231 -98 -198 -130 -99 33 -65 -98 32 -98 -142 -40 101 -169 8 -139 -32 -42 -99 -66 -33 -97 132 0 98 -33 231 0 99 33 33 -98 99 -33 99 33 32 98 -32 97 65 98 -65 196z"/>
<path data-z="212" class="z z212" d="M10219 7111l-66 98 -99 32 -66 -65 -33 -97 -99 -98 -98 -65 -198 -65 -132 -196 66 -97 33 -228 -151 46 52 -144 461 -163 -34 -151 100 -175 165 65 72 -29 32 98 131 98 33 98 98 130 32 164 66 97 65 229 0 163 -33 131 0 163 -101 -71 -98 32 -99 33 -99 -33z"/>
<path data-z="211" class="z z211" d="M9428 6232l-52 144 -178 -46 65 -196 -65 -98 32 -97 -32 -98 -99 -33 -99 33 -33 98 -99 -33 -231 0 -65 -98 -33 -97 33 -98 32 -98 33 -130 33 -98 231 -32 99 32 132 65 131 0 99 -97 198 97 -66 98 0 130 99 33 99 65 66 98 131 0 66 -33 -100 175 34 151 -461 163z"/>
</g>
<g id="D07-Viseu">
<path data-z="210" class="z z210" d="M7352 8284l-98 32 -99 33 -33 98 -132 0 -99 -66 -197 -97 -99 -65 -99 -33 -99 -33 66 -97 99 -33 99 -32 230 -98 99 -65 99 65 99 32 99 33 98 -33 198 -97 141 -1 -9 66c-33,98 -66,195 -99,293l-165 65 -99 33z"/>
<path data-z="209" class="z z209" d="M6463 8740l-132 65 -33 -98 -66 -98 -33 -195 99 -65 33 -98 66 -98 99 33 99 33 99 65 197 97 99 66 -99 65 -99 65 -98 -33 -33 98 -99 33 -99 65z"/>
<path data-z="208" class="z z208" d="M5870 9196l-132 -163 33 -98 0 -130 132 0 33 -98 99 -65 65 -98 0 -163 99 33 33 195 66 98 33 98 -33 97 -33 98 -197 98 -198 98z"/>
<path data-z="207" class="z z207" d="M5376 8902l98 -65 103 -31 95 31 99 -32 0 130 -33 98 132 163 -165 97 -211 163c-150,-41 -92,-32 -250,-32l132 -294 -33 -97 33 -131z"/>
<path data-z="206" class="z z206" d="M5244 9424c-128,42 -82,21 -198,97 -116,-76 -70,-55 -198,-97l0 -66 -197 -65 -66 -97 66 -196 99 -65 -66 -195 66 -98 98 -65 107 9 190 -9 99 195 99 33 33 97 -33 131 33 97 -132 294z"/>
<path data-z="205" class="z z205" d="M7287 7958l-99 -33 -99 -32 -99 -65 -132 -65 132 -163 132 0 198 -98 131 0 132 -98 33 98 99 98 33 65 -24 162 -141 1 -198 97 -98 33z"/>
<path data-z="204" class="z z204" d="M5771 8805l-99 32 -95 -31 -103 31 -98 65 -33 -97 -99 -33 -99 -195 -190 9 25 -74 -99 -65 -33 -98 -32 -98 0 -130 98 -33 140 128 91 3 99 65 66 -65 33 -131 66 -97 33 -98 131 0 66 32 198 131 132 32 66 98 -33 98 -33 97 131 0 0 163 -65 98 -99 65 -33 98 -132 0z"/>
<path data-z="203" class="z z203" d="M5705 7828l-66 97 -66 -32 -131 0 -33 98 -66 97 -165 -32 -66 -98 -132 33 -99 -33 66 -98 99 -195 33 -65 99 32 132 -32 99 -33 65 -163 99 33 99 -33 99 -32 139 -64 26 129 -33 130 -33 98 -66 98 -99 65z"/>
<path data-z="202" class="z z202" d="M5178 8056l165 32 -33 131 -66 65 -99 -65 -91 -3 -140 -128 66 -97 132 -33 66 98zm-132 -391l-99 195 -66 98 -65 -98 32 -97 -32 -131 -99 -65 -33 -98 33 -97 99 -33 98 -65 66 -163 33 -65 99 33 -33 97 -33 98 132 65 99 0 99 33 98 32 -65 163 -99 33 -132 32 -99 -32 -33 65z"/>
<path data-z="200" class="z z200" d="M7320 7502l-198 98 -132 0 -66 -64 -66 -164 66 -196 165 -97 33 -98 66 -196 99 -32 98 -65 99 32 132 65 -33 98 -33 98 -66 98 33 97 132 65 33 98 -99 65 -132 98 -131 0z"/>
<path data-z="199" class="z z199" d="M6397 8153l-66 98 -33 98 -99 65 -99 -33 -131 0 33 -97 33 -98 -66 -98 -132 -32 -198 -131 66 -97 99 -65 66 -98 33 -98 33 -130 -26 -129 92 -67 98 33 99 -98 33 -97 132 0 99 65 132 -98 33 -98 66 -97 98 97 99 131 33 97 -66 196 66 164 66 64 -132 163 132 65 -99 65 -230 98 -99 32 -99 33 -66 97z"/>
<path data-z="198" class="z z198" d="M5672 7404l-99 33 -99 -33 -98 -32 -99 -33 -99 0 -132 -65 33 -98 33 -97 -99 -33 0 -130 33 -163 99 32 99 33 132 -33 98 33 99 -33 -66 -130 -33 -97 33 -98 -33 -65 99 32 99 -32 33 97 99 33 33 98 99 97 33 98 99 33 32 97 99 33 33 98 -33 97 -99 98 -98 -33 -92 67 -139 64 -99 32z"/>
<path data-z="197" class="z z197" d="M8563 6283l-101 169 -187 -57 -66 -98 -33 -98 -66 -97 -33 -98 66 -98 -33 -98 33 -97 132 0 99 -33 165 33 33 97 65 98 -98 33 -132 0 33 97 99 66 32 42 -8 139z"/>
<path data-z="196" class="z z196" d="M8308 6720l-99 163 -66 98 -66 -98 -66 -65 -98 -65 -66 -98 -165 33 -66 97 -132 -65 -99 -32 0 -98 66 -98 99 -32 99 -33 99 -32 -33 -98 66 -98 66 -260 230 65 33 98 66 97 33 98 66 98 -33 97 -33 66 99 65 0 97z"/>
<path data-z="195" class="z z195" d="M7385 6688l-98 65 -99 32 -33 -130 -33 -97 66 -131 -33 -97 -132 0 -66 0 0 -131 66 -97 33 -98 66 -98 132 0 131 0 33 -98 33 -97 99 65 99 65 99 98 99 0 -66 260 -66 98 33 98 -99 32 -99 33 -99 32 -66 98 0 98z"/>
<path data-z="194" class="z z194" d="M6924 7176l-33 -97 -99 -131 -98 -97 -33 -66 -33 -97 -99 -130 132 -196 98 -32 99 32 99 -32 66 0 132 0 33 97 -66 131 33 97 33 130 -66 196 -33 98 -165 97z"/>
<path data-z="193" class="z z193" d="M7056 6004l-33 98 -66 97 -99 -32 -99 32 -98 65 -66 -97 -33 -33 33 -98 66 -97 98 -65 99 -33 33 -98 33 -97 33 -98 99 65 66 98 99 97 33 98 -132 0 -66 98z"/>
<path data-z="192" class="z z192" d="M6661 6785l33 66 -66 97 -33 98 -132 98 -99 -65 -132 0 -33 -98 -99 -33 -32 -97 -99 -33 -33 -98 -99 -97 -33 -98 -99 -33 -33 -97 -99 32 -99 -32 -32 -33 65 -98 66 -130 231 0 132 98 99 -65 98 -33 33 -65 -66 -65 132 -65 99 -33 99 33 -33 97 99 33 66 65 33 33 66 97 98 -65 99 -32 99 32 0 131 -99 32 -99 -32 -98 32 -132 196 99 130 33 97z"/>
<path data-z="191" class="z z191" d="M8143 4929l99 -65 231 358 99 33 98 32 -33 98 -33 130 -32 98 -33 98 -165 -33 -99 33 -132 0 -33 97 33 98 -66 98 -230 -65 33 -98 33 -130 -33 -131 -130 -192 31 -133 -66 -131 33 -97 99 0 99 -33 98 -32 99 -33z"/>
<path data-z="190" class="z z190" d="M7913 5711l-33 130 -33 98 -99 0 -99 -98 -99 -65 -99 -65 0 -163 -33 -98 0 -130 -33 -98 132 0 99 -32 99 -66 66 131 -31 133 130 192 33 131z"/>
<path data-z="189" class="z z189" d="M7122 5711l-66 -98 -99 -65 0 -65 0 -196 132 0 99 -32 99 -65 98 32 33 98 0 130 33 98 0 163 -33 97 -33 98 -131 0 -33 -98 -99 -97z"/>
<path data-z="188" class="z z188" d="M6496 6069l-99 -33 33 -97 -99 -33 33 -130 66 -98 33 -98 66 -97 -51 -152 117 -76 66 32 197 -32 99 32 0 131 0 130 -33 98 -33 97 -33 98 -99 33 -98 65 -66 97 -33 98 -66 -65z"/>
<path data-z="187" class="z z187" d="M6331 5906l-99 33 -132 65 -98 -33 33 -97 -66 -131 -99 -130 -33 -65 198 -65 98 -65 99 32 66 -98 66 33 114 -54 51 152 -66 97 -33 98 -66 98 -33 130z"/>
<path data-z="186" class="z z186" d="M6002 5971l98 33 66 65 -33 65 -98 33 -99 65 -132 -98 -132 0 -99 0 33 -65 -33 -98 -131 196 -99 -33 -99 -32 -99 -33 -33 -98 -66 33 0 -163 -33 -98 -99 -32 99 -33 99 -65 99 -33 132 0 99 33 98 -65 33 -98 66 98 198 0 33 65 99 130 66 131 -33 97z"/>
</g>
<g id="D06-Aveiro">
<path data-z="185" class="z z185" d="M4354 9163l264 -65 -33 98 66 97 -132 131 -99 -33 -33 98 -99 32 -66 98 -32 130 -165 33 -99 -65 -33 -98 99 -33 99 -65 -33 -97 33 -131 -33 -145 0 -83 296 98z"/>
<path data-z="184" class="z z184" d="M4651 9000l-33 98 -264 65c-99,-33 -197,-65 -296,-98l-165 33 -99 32 -99 -97 33 -131 33 -97 33 -98 198 -32 165 -66 98 -32 132 32 132 -32 132 0 99 65 -66 98 66 195 -99 65z"/>
<path data-z="183" class="z z183" d="M3794 8707l-33 98 -197 -98 -66 -98 33 -130 33 -98 131 66 99 -98 99 32 99 -65 33 131 99 32 33 130 -165 66 -198 32z"/>
<path data-z="182" class="z z182" d="M3498 8870l0 130 -132 0 -99 -65 -99 -130 -241 -239 84 -347 190 0 99 32 99 33 165 -33 32 33 -32 97 -33 98 -33 130 66 98 -66 163z"/>
<path data-z="181" class="z z181" d="M4255 8577l-98 32 -33 -130 -99 -32 -33 -131 -99 65 -99 -32 132 -196 33 -97 99 -33 33 -98 0 -130 33 -98 131 -32 99 -33 99 33 66 98 33 97 165 33 99 -33 65 98 99 33 -66 97 -98 33 0 130 32 98 33 98 99 65 -25 74 -107 -9 -98 65 -99 -65 -132 0 -132 32 -132 -32z"/>
<path data-z="180" class="z z180" d="M3794 8349l-99 98 -131 -66 32 -97 -32 -33 -66 -98 -99 -65 -33 -97 -54 -78 -78 -53 -128 -57 46 -252 49 -16 132 -33 99 -33 81 12 69 33 80 151 66 98 66 130 33 98 132 65 -33 97 -132 196z"/>
<path data-z="179" class="z z179" d="M3069 8219l-58 0 30 -122 65 -294 128 57 78 53 54 78 33 97 99 65 66 98 -165 33 -99 -33 -99 -32 -132 0z"/>
<path data-z="178" class="z z178" d="M4816 7632l32 131 -32 97 -99 33 -165 -33 -33 -97 -66 -98 -99 -33 0 -65 0 -195 0 -131 66 -130 132 0 187 72 109 -7 66 98 -98 65 -99 33 -33 97 33 98 99 65z"/>
<path data-z="177" class="z z177" d="M3959 8056l-132 -65 -33 -98 -66 -130 -66 -98 -80 -151 146 53 33 98 99 -33 99 -97 -33 -98 0 -163 165 -33 99 -32 98 32 66 0 0 131 0 130 0 130 -99 33 -131 32 -33 98 0 130 -33 98 -99 33z"/>
<path data-z="176" class="z z176" d="M3926 7437l33 98 -99 97 -99 33 -33 -98 -146 -53 -69 -33 -15 -109 66 -163 -99 -65 -99 -33 66 -98 132 0 98 -32 99 -33 66 -65 33 98 -33 98 66 97 33 98 0 163z"/>
<path data-z="175" class="z z175" d="M3498 7372l15 109 -81 -12 -99 33 -132 33 -49 16 52 -270 68 -283 61 15 33 98 99 33 99 65 -66 163z"/>
<path data-z="174" class="z z174" d="M4739 7183l-187 -72 -132 0 -113 -72 60 -133 20 -226 33 -122 165 32 99 33 99 65 98 163 165 -98 -33 163 0 130 -33 65 -66 163 -66 -98 -109 7z"/>
<path data-z="173" class="z z173" d="M4354 7241l-66 0 -98 -32 -99 32 -165 33 -33 -98 -66 -97 33 -98 -33 -98 33 -98 33 -97 99 -33 99 -97 89 -77 108 -86 99 65 33 98 -33 122 -20 226 -60 133 113 72 -66 130z"/>
<path data-z="172" class="z z172" d="M3893 6688l99 -33 99 -97 33 122 -17 98 -116 24 -98 -114z"/>
<path data-z="171" class="z z171" d="M3827 6883l-66 65 -99 33 -98 32 -132 0 -66 98 -33 -98 -61 -15 95 -403 61 -282 168 -114 0 131 33 97 66 98 -33 98 66 97 99 -32 66 0 -33 97 -33 98z"/>
<path data-z="170" class="z z170" d="M5046 6753l-165 98 -98 -163 -99 -65 -99 -33 -66 0 -99 -32 -33 -98 -99 -65 -33 -139 66 -89 99 -65 66 -66 66 0 165 131 33 97 230 -32 33 -130 33 -98 66 -33 33 98 99 33 99 32 99 33 131 -196 33 98 -33 65 -66 130 -65 98 65 98 -33 98 33 97 66 130 -99 33 -98 -33 -132 33 -99 -33 -99 -32z"/>
<path data-z="169" class="z z169" d="M4816 5646l98 65 99 32 33 98 0 163 -33 98 -33 130 -230 32 -33 -97 -165 -131 -66 0 -33 -97 31 -111 165 -50 101 -35 66 -97z"/>
<path data-z="168" class="z z168" d="M3893 6688l-66 0 -99 32 -66 -97 33 -98 -66 -98 -33 -97 0 -131 33 -195 165 -33 132 -32 89 -65 76 32 197 -32 33 97 165 65 -66 66 -99 65 -66 89 33 139 -108 86 -89 77 -99 97 -99 33z"/>
<path data-z="167" class="z z167" d="M3596 6199l-168 114 40 -237 17 -132 46 27 98 33 -33 195z"/>
</g>
<g id="D05-Braganca">
<path data-z="166" class="z z166" d="M10420 5746l-196 -65 -32 98 -72 29 -165 -65 66 -97 -33 -98 -33 -98 99 -32 99 32 132 -32 395 -294 -66 -97 33 -98 99 -33 33 -97 66 -98 99 33 66 97 63 66 -261 262 33 130 -33 98 -65 131 -98 130 -98 66 -131 32z"/>
<path data-z="165" class="z z165" d="M10186 4734l99 97 99 -32 98 32 33 98 132 0 -33 98 66 97 -395 294 -132 32 -99 -32 -99 32 33 98 33 98 -66 97 -66 33 -131 0 -66 -98 -99 -65 -99 -33 0 -130 66 -98 -198 -97 -99 97 -131 0 -132 -65 66 -195 66 -98 -39 -103 -60 -60 165 -130 98 -33 99 33 132 0 0 -98 33 -97 66 -98 99 65 66 98 197 130 198 33z"/>
<path data-z="164" class="z z164" d="M11833 3854l99 65 33 98 121 97 -33 98 -65 98 -131 32 -33 131 -98 -65 -163 196 -98 -66 -228 33 -66 130 -98 196 -63 -66 -66 -97 -99 -33 -66 98 -33 97 -99 33 -132 0 -33 -98 -98 -32 -99 32 -99 -97 132 -66 33 -130 33 -97 98 -66 66 -97 33 -98 -132 0 -98 -33 0 -130 66 -98 32 -65 132 -32 99 32 99 -65 99 -32 99 -33 98 -33 66 -97 165 -33 99 65 99 -32 99 32 131 33 66 98 33 97z"/>
<path data-z="163" class="z z163" d="M10482 4375l-98 66 -33 97 -33 130 -132 66 -198 -33 -197 -130 -66 -98 -99 -65 33 -98 -33 -97 66 -98 -66 -196 99 -65 99 -32 32 -98 99 -98 99 -65 99 65 99 33 0 130 197 65 -32 65 -66 98 0 130 98 33 132 0 -33 98 -66 97z"/>
<path data-z="162" class="z z162" d="M9659 4310l-33 98 -66 98 -33 97 0 98 -132 0 -99 -33 -98 33 -165 130 -99 -195 0 -130 -132 -33 0 -130 -99 -65 66 -98 99 -33 198 -162 230 65 99 -65 33 -98 198 32 66 196 -66 98 33 97z"/>
<path data-z="161" class="z z161" d="M8802 4473l132 33 0 130 99 195 66 65 33 98 -66 98 -66 195 -99 -32 -231 32 -98 -32 -99 -33 -231 -358 -33 -98 99 -65c33,-98 66,-195 99,-293l33 -98 66 0 98 -65 99 33 99 65 0 130z"/>
<path data-z="160" class="z z160" d="M10219 2584l-33 261 33 97 99 33 197 -33 231 98 66 98 198 65 98 -33 33 98 0 130 33 98 -33 98 -66 97 -98 33 -99 33 -99 32 -99 65 -99 -32 -132 32 -197 -65 0 -130 -99 -33 -99 -65 -99 65 -99 98 -32 98 -99 32 -33 -97 0 -131 33 -97 -99 -33 -66 -98 132 -195 -33 -98 33 -98 -132 33 -66 -98 0 -130 -66 -33 -33 -97 -66 -163 0 -130 99 -33 198 65 33 98 99 -33 66 -97 197 65 198 -65 66 97 -66 98z"/>
<path data-z="159" class="z z159" d="M8868 4147l-99 33 -66 98 -99 -33 -98 -32 -66 -98 33 -98 -66 -98 33 -97 33 -131 99 -32 98 -33 0 -130 33 -98 99 -65 66 -195 -33 -98 0 -98 33 -97 0 -131 66 -97 66 -196 33 -97 66 -98 33 65 98 33 99 65 0 130 66 163 33 97 66 33 0 130 66 98 132 -33 -33 98 33 98 -132 195 66 98 99 33 -33 97 0 131 33 97 -99 65 -198 -32 -33 98 -99 65 -230 -65 -198 162z"/>
<path data-z="158" class="z z158" d="M12575 2416l131 131 131 163 98 33 32 97 -163 262 -65 130 -98 98 -66 98 -32 98 0 131 -98 32 65 98 -98 66 -98 -33 -98 98 -32 98 -98 98 -121 -97 -33 -98 -99 -65 -33 -97 -66 -98 33 -65 66 -98 33 -98 -66 -97 66 -98 66 -98 99 65 66 98 33 98 99 32 66 -97 0 -131 -99 -32 -33 -98c44,-87 68,-169 99,-261l-33 -260 61 -70 285 -33z"/>
<path data-z="157" class="z z157" d="M11306 2519l132 32 168 -195 186 93 98 -66 -30 -130 258 0 229 98 -57 98 -61 70 33 260c-31,92 -55,174 -99,261l33 98 99 32 0 131 -66 97 -99 -32 -33 -98 -66 -98 -99 -65 -66 98 -66 98 66 97 -33 98 -66 98 -33 65 -131 -33 -99 -32 -99 32 -99 -65 -165 33 33 -98 -33 -98 0 -130 -33 -98 0 -228 66 -97 66 -196 -33 -98 99 -32z"/>
<path data-z="156" class="z z156" d="M10219 2584l66 -98 -66 -97 -33 -163 -99 0 -66 -196 33 -97 99 -33 -33 -98 132 -293 -66 -97 38 -367 164 -33 98 -33 32 -228 164 33 65 228 98 0 98 33 98 65 163 -98 163 -163 163 130 0 131 33 196 98 33 -33 130 -1 133 -64 96 0 130 -65 196 32 98 76 234 -168 195 -132 -32 -99 32 33 98 -66 196 -66 97 0 228 -98 33 -198 -65 -66 -98 -231 -98 -197 33 -99 -33 -33 -97 33 -261z"/>
<path data-z="155" class="z z155" d="M10087 2226l99 0 33 163 -198 65 -197 -65 -66 97 -99 33 -33 -98 -198 -65 -99 33 -99 -65 -98 -33 -33 -65 33 -98 -66 -195 -66 -131 0 -130 33 -98 -115 -137 98 -66 131 -196 -65 -130 -12 -129 44 -67 131 130 13 -73 147 -51 134 157 228 -33 98 -97 131 97 228 66 -38 367 66 97 -132 293 33 98 -99 33 -33 97 66 196z"/>
</g>
<g id="D04-Vila_Real">
<path data-z="154" class="z z154" d="M6891 4864l33 98 33 97 -66 98 -197 -130 -99 -65 -66 -66 -64 -78 -68 -84 99 -33 99 -33 99 33 131 -33 99 -32 0 130 -33 98z"/>
<path data-z="153" class="z z153" d="M7056 4962l99 32 99 33 66 65 -33 98 -99 65 -99 32 -132 0 -99 -32 -197 32 -66 -32 66 -98 -99 -65 -165 -33 -33 -97 33 -98 68 -46 64 78 66 66 99 65 197 130 66 -98 -33 -97 132 0z"/>
<path data-z="152" class="z z152" d="M6478 5331l-114 54 -66 -33 66 -195 33 -98 165 33 99 65 -66 98 -117 76z"/>
<path data-z="151" class="z z151" d="M8341 4213l99 97 -33 98c-33,98 -66,195 -99,293l-99 65 33 98 -99 65 -99 33 -98 32 -99 33 -99 0 0 -98 33 -98 -33 -97 -33 -98 -33 -98 -33 -97 -33 -98 -66 -130 -33 -98 -33 -98 99 -65 99 33 132 0 132 32 296 98 99 98z"/>
<path data-z="150" class="z z150" d="M7748 4734l33 97 -33 98 0 98 -33 97 -99 66 -99 32 -132 0 -98 -32 33 -98 32 -98 -32 -98 0 -130 32 -98 33 -97 66 -98 60 -181 -93 -145 -98 -162 164 32 33 98 33 98 66 130 33 98 33 97 33 98 33 98z"/>
<path data-z="149" class="z z149" d="M7418 4147l93 145 -60 181 -66 98 -33 97 -32 98 0 130 32 98 -32 98 -66 -65 -99 -33 -99 -32 -132 0 -33 -98 33 -98 0 -130 -99 32 -131 33 -99 -33 -99 33 -99 33 -66 -98 -33 -163 99 -65 198 -130 66 -98 0 -163 65 -32 99 -66 99 33 66 -98 99 65 99 33 132 33 98 162z"/>
<path data-z="148" class="z z148" d="M6661 4017l0 163 -66 98 -198 130 -99 65 -99 -65 -99 -33 33 -97 -65 -98 0 -261 98 -65 -33 -97 66 -131 33 -97 66 0 0 130 66 98 132 0 132 97 197 65 -99 66 -65 32z"/>
<path data-z="147" class="z z147" d="M8407 3919l66 98 -33 98 66 98 98 32 -98 65 -66 0 -99 -97 -99 -98 -296 -98 -132 -32 -132 0 -99 -33 33 -98 33 -97 132 0 99 -33 98 -65 33 -98 33 -65 99 -98 99 -65 33 65 66 98 -66 98 99 65 99 32 -33 131 -33 97z"/>
<path data-z="146" class="z z146" d="M7781 3757l-132 0 -33 97 -33 98 -99 65 -164 -32 -132 -33 -99 -33 -99 -65 33 -97 -99 -98 -99 -65 -33 -98 165 -130 99 -33 -132 -195 99 -65 99 -33 -33 -98 99 -32 99 -131 98 -32 132 130 66 98 99 -98 99 -32 33 97 33 98 0 130 33 98 66 98 98 130 -33 65 -33 98 -98 65 -99 33z"/>
<path data-z="145" class="z z145" d="M6825 3594l99 65 99 98 -33 97 -66 98 -99 -33 -197 -65 -132 -97 -132 0 -66 -98 0 -65 0 -65 33 -66 99 -32 33 -98 165 -260 98 -66 99 -65 33 -97 33 -98 99 -33 66 65 -33 98 -33 98 33 98 -99 65 132 195 -99 33 -165 130 33 98z"/>
<path data-z="144" class="z z144" d="M8934 2617l-66 97 0 131 -33 97 0 98 33 98 -66 195 -99 65 -33 98 0 130 -98 33 -99 32 -99 -32 -99 -65 66 -98 -66 -98 -33 -65 -99 65 -99 98 -98 -130 -66 -98 -33 -98 0 -130 197 -130 132 -261 -33 -98 33 -97 99 -65 99 32 66 -97 99 -66 131 -195 99 -65 99 32 99 -32 99 -65 66 195 -33 98 -66 98 -33 97 -66 196z"/>
<path data-z="143" class="z z143" d="M8526 1567l131 -32 33 0 130 -98 98 0 115 137 -33 98 0 130 66 131 -99 65 -99 32 -99 -32 -99 65 -131 195 -99 66 -66 97 -99 -32 -99 65 -33 97 33 98 -132 261 -197 130 -33 -98 -33 -97 -99 32 -99 98 -66 -98 -132 -130 99 -65 0 -261 132 -195 -99 -293 33 -98 -99 -33 14 -137 147 0 196 -65 33 -131 98 33 130 -33 98 261 98 -32 66 -66 65 -97 130 32z"/>
<path data-z="142" class="z z142" d="M7155 2324l99 -66 33 -97 131 -196 99 -32 99 293 -132 195 0 261 -99 65 -98 32 -99 131 -99 32 33 98 -99 33 -33 -98 33 -98 33 -98 -66 -65 -99 33 -33 98 -33 97 -99 65 -98 66 -33 -98 -33 -98 -231 -65 -66 -98 66 -97 0 -131 33 -97 99 32 198 -97 131 32 99 -32 264 0z"/>
<path data-z="141" class="z z141" d="M6331 2486l0 131 -66 97 66 98 231 65 -99 98 -231 32c-127,-41 -207,-70 -329,-130l33 -98 0 -130 66 -98 -99 -32 -99 -65 -99 32 -132 0 -99 33 33 -98 99 -65 66 -260 79 -333 65 -98 98 33 33 -98 65 -131 98 -32 131 0 130 98 131 -33 65 -98 196 -33 359 -98 98 66 196 65 131 0 -82 261 -14 137 99 33 -33 98 -99 32 -131 196 -33 97 -99 66 -264 0 -99 32 -131 -32 -198 97 -99 -32 -33 97z"/>
</g>
<g id="D03-Porto">
<path data-z="140" class="z z140" d="M3794 5971l-165 33 -98 -33 -46 -27 13 -100 -65 -228 0 -196 -29 -87 102 26 222 -7 66 66 66 97 66 98 66 98 132 -33 98 98 66 98 -197 32 -76 -32 -89 65 -132 32z"/>
<path data-z="139" class="z z139" d="M4453 5939l33 97 -165 -65 -33 -97 -66 -98 -98 -98 -132 33 -66 -98 -66 -98 -66 -97 -66 -66 118 -81 -68 -91 -103 -72 119 -49 66 -32 115 55 56 202 93 68 33 98 33 98 98 32 165 33 31 212 -31 114z"/>
<path data-z="138" class="z z138" d="M3728 5352l-222 7 -102 -26 -37 -109 -57 -115 114 13 140 2 111 -16 103 72 68 91 -118 81z"/>
<path data-z="137" class="z z137" d="M6035 4929l65 98 99 -33 66 -98 132 -162 68 84 -68 46 -33 98 33 97 -33 98 -66 195 -66 98 -99 -32 -98 65 -198 65 -198 0 -66 -98 -66 -98 99 -32 99 -98 33 -98 99 -97 198 -98z"/>
<path data-z="136" class="z z136" d="M5145 4929l132 -98 33 65 99 33 98 -33 165 0 66 98 99 33 -99 97 -33 98 -99 98 -99 32 66 98 -33 98 -98 65 -99 -33 -132 0 -99 33 -99 65 -99 33 -98 -65 65 -98 99 -65 99 -98 33 -98 99 -65 -22 -111 -143 -19 0 -98 99 -65z"/>
<path data-z="135" class="z z135" d="M5046 4994l0 98 143 19 22 111 -99 65 -33 98 -99 98 -99 65 -65 98 -66 97 -99 33 -167 52 -31 -215 0 -98 -43 -102 17 -171 59 -36 77 -125 38 -62 107 -29 75 -94 131 -65 117 -44 81 -86 139 33 26 97 -132 98 -99 65z"/>
<path data-z="134" class="z z134" d="M4717 4799l66 97 -75 94 -107 29 -38 62 -77 125 -59 36 -17 171 43 102 0 98 -165 -33 -98 -32 -33 -98 -33 -98 76 -156 -43 -137 33 -97 65 -196 99 -32 99 65 99 -65 165 65z"/>
<path data-z="133" class="z z133" d="M3728 4831l99 33 33 -130 65 -33 34 98 99 32 132 -130 65 65 -98 293 43 137 -76 156 -93 -68 -56 -202 -115 -55 -66 32 -33 -130 -33 -98z"/>
<path data-z="132" class="z z132" d="M3827 4864l-99 -33 33 98 33 130 -119 49 -60 -58 -12 -108 -99 -65 -171 -13 -66 -130 99 0 33 -98 165 -65 32 65 99 65 88 -30 77 63 -33 130z"/>
<path data-z="131" class="z z131" d="M3333 4864l171 13 99 65 12 108 60 58 -111 16 -140 -2 -114 -13 -96 -193 -34 -248 87 66 66 130z"/>
<path data-z="130" class="z z130" d="M5639 4310l165 65 99 -32 99 -65 66 -98 65 98 -33 97 99 33 99 65 33 163 66 98 -132 162 -66 98 -99 33 -65 -98 -198 98 -99 -33 -66 -98 -165 0 -98 33 -99 -33 -33 -65 -26 -97 -139 -33 33 -98 66 -97 99 -65 132 0 65 -131 132 0z"/>
<path data-z="129" class="z z129" d="M5442 4213l65 97 -65 131 -132 0 -99 65 -99 -33 -132 -32 -66 -98 -66 -98 33 -98 33 -97 132 0 33 -98 132 0 99 33 33 97 131 33 -32 98z"/>
<path data-z="128" class="z z128" d="M4914 4343l66 98 132 32 99 33 -66 97 -33 98 -81 86 -117 44 -131 65 -66 -97 -165 -65 99 -163 33 -98 -33 -98 99 -97 98 -33 66 98z"/>
<path data-z="127" class="z z127" d="M4453 4799l-99 -65 -99 32 -65 -65 65 -163 99 -65 33 -98 99 -32 165 32 33 98 -33 98 -99 163 -99 65z"/>
<path data-z="126" class="z z126" d="M4354 4082l99 0 -66 131 264 -33 99 98 -99 97 -165 -32 -99 32 -33 98 -99 65 -65 163 -132 130 -99 -32 -33 -98 0 -130 33 -98 0 -130 -33 -98 99 -65 99 -33 230 -65z"/>
<path data-z="125" class="z z125" d="M3465 4375l79 -41 85 -56 132 0 99 0 66 -33 33 98 0 130 -33 98 -1 130 -65 33 -77 -63 -88 30 -99 -65 -32 -65 -66 -98 -33 -98z"/>
<path data-z="124" class="z z124" d="M3629 4278l-85 56 -79 41 33 98 66 98 -165 65 -33 98 -99 0 -84 -56 -77 -303 0 -131 -32 -98 58 -64 36 -97 132 -33 198 130 33 98 98 98z"/>
<path data-z="123" class="z z123" d="M3132 4082l-58 64 -66 -98 -65 -195 33 -196 60 2 99 65 231 65 33 98 165 65 32 98 -98 32 -198 -130 -132 33 -36 97z"/>
</g>
<g id="D02-Braga">
<path data-z="122" class="z z122" d="M6002 3691l131 66 33 97 -98 65 0 261 -66 98 -99 65 -99 32 -165 -65 -132 0 -65 -97 32 -98 33 -98 33 -98 0 -130 99 -32 33 -98 33 -98 99 33 99 32 99 65z"/>
<path data-z="121" class="z z121" d="M4651 4180l33 -130 99 -65 51 68 80 -3 -33 97 -33 98 -98 33 -99 -98z"/>
<path data-z="120" class="z z120" d="M6199 3626l-66 131 -131 -66 -99 -65 -99 -32 -99 -33 0 -260 -33 -131 33 -65 33 -98 99 -32 66 -98c122,60 202,89 329,130l231 -32 99 -98 33 98 33 98 -165 260 -33 98 -99 32 -33 66 -66 0 -33 97z"/>
<path data-z="119" class="z z119" d="M5507 4017l-33 98 -131 -33 -33 -97 -99 -33 -132 0 0 -65 -66 -98 33 -98 33 -97 -33 -98 -33 -98 33 -97 99 -66 99 33 99 -33 131 0 99 -32 99 -33 33 98 0 293 -33 98 -33 98 -99 32 0 130 -33 98z"/>
<path data-z="118" class="z z118" d="M4651 4180l-264 33 66 -131 -33 -97 33 -98 -99 -33 -33 -97 -66 -66 165 -195 0 -130 99 -65 132 0 99 -33 98 65 99 33 66 32 33 98 33 98 -33 97 -33 98 66 98 0 65 -33 98 -132 0 -80 3 -51 -68 -99 65 -33 130z"/>
<path data-z="117" class="z z117" d="M4354 3854l99 33 -33 98 33 97 -99 0 -230 65 -99 33 -99 65 -66 33 -132 0 -99 0 -98 -98 -33 -98 98 -32 -32 -98 0 -98 98 33 99 -33 66 -130 -33 -98 99 -130 33 98 329 97 66 66 33 97z"/>
<path data-z="116" class="z z116" d="M5244 2584l230 -65 99 -33 132 0 99 -32 99 65 99 32 -66 98 0 130 -33 98 -66 98 -99 32 -33 98 -33 65 -99 33 -99 32 -131 0 -33 -130 33 -98 -132 0 -99 -65 33 -97 -99 -33 -99 -33 66 -65 132 -32 99 -98z"/>
<path data-z="115" class="z z115" d="M4848 3333l-98 -65 33 -98 -99 -97 -99 -66 33 -97 66 -65 66 -131 197 65 99 33 99 33 -33 97 99 65 132 0 -33 98 33 130 -99 33 -99 -33 -99 66 -33 97 -66 -32 -99 -33z"/>
<path data-z="114" class="z z114" d="M4255 3691l-329 -97 -33 -98 66 -98 33 -97 -33 -98 66 -98 66 -98 99 -32 65 -65 99 32 99 -32 165 0 -33 97 99 66 99 97 -33 98 -99 33 -132 0 -99 65 0 130 -165 195z"/>
<path data-z="113" class="z z113" d="M5145 2682l-132 32 -66 -130 -99 -33 -65 -32 -99 32 -99 -32 33 -98 99 -65 -33 -98 33 -97 33 -98 98 33 99 -66 99 -32 66 -98 99 -32 116 -138 98 33 97 0 131 33 98 -33 -79 333 -66 260 -99 65 -33 98 -230 65 -99 98z"/>
<path data-z="112" class="z z112" d="M4750 2714l-66 131 -66 65 -165 0 -99 32 -99 -32 33 -98 33 -98 99 -97 33 -98 132 0 99 32 99 -32 65 32 99 33 66 130 -66 65 -197 -65z"/>
<path data-z="111" class="z z111" d="M3827 2682l99 -261 -33 -97 132 0 99 -33 197 -130 99 -33 99 33 99 -33 99 33 -33 97 33 98 -99 65 -33 98 -132 0 -33 98 -99 97 -33 98 -33 98 -65 65 -99 32 -66 98 -66 -65 -99 33 -66 -98 33 -163 0 -130z"/>
<path data-z="110" class="z z110" d="M3366 3789l-231 -65 -99 -65 179 -156 0 -105 -65 -114 0 -116 -48 -193 51 -153 114 -43 132 0 82 -48 148 48 66 33 132 0 -33 163 66 98 99 -33 66 65 -66 98 33 98 -33 97 -66 98 -99 130 33 98 -66 130 -99 33 -98 -33 0 98 -165 -65 -33 -98z"/>
<path data-z="109" class="z z109" d="M3102 2975l48 193 0 116 65 114 0 105 -179 156 -60 -2 0 -131 -66 -131 0 -261 -56 -224 51 0 98 -65 150 -23 -51 153z"/>
</g>
<g id="D01-Viana_do_Castelo">
<path data-z="108" class="z z108" d="M4124 2291l-66 -228 0 -98c113,-37 213,-69 329,-97l99 32 99 -32 198 -131 65 -97 99 -33 132 0 66 -98 -66 -97 52 -73 196 196 0 195 -116 138 -99 32 -66 98 -99 32 -99 66 -98 -33 -33 98 -99 -33 -99 33 -99 -33 -99 33 -197 130z"/>
<path data-z="107" class="z z107" d="M3827 2682l0 130 -132 0 -66 -33 -148 -48 -82 -180 33 -97 -99 -98 -66 -195 -66 -98 33 -98 33 -130 33 -98 66 -97 99 65 99 -65 131 0 132 0 99 -33 -66 195 33 98 66 98 99 -33 0 98 66 228 -99 33 -132 0 33 97 -99 261z"/>
<path data-z="106" class="z z106" d="M4387 1868c-116,28 -216,60 -329,97l-99 33 -66 -98 -33 -98 66 -195 33 -98 66 -97 -66 -196 -66 -130 198 -33 263 0 297 -97 132 97 98 -65 33 -98 165 -32 99 32 -66 196 -33 130 52 123 -52 73 66 97 -66 98 -132 0 -99 33 -65 97 -198 131 -99 32 -99 -32z"/>
<path data-z="105" class="z z105" d="M3564 1640l-99 65 -99 -65 -33 -98 33 -98 66 -130 66 -98 164 -65 66 -98 165 33 66 130 66 196 -66 97 -33 98 -99 33 -132 0 -131 0z"/>
<path data-z="104" class="z z104" d="M3153 2822l-150 23 -98 65 -51 0 -107 -429 -131 -228 -34 -128 1 -117 91 -43 99 -32 99 32 98 -32 99 -98 132 33 66 -33 -33 130 -33 98 66 98 66 195 99 98 -33 97 82 180 -82 48 -132 0 -114 43z"/>
<path data-z="103" class="z z103" d="M3300 1737l-33 98 -66 33 -132 -33 -99 98 -98 32 -99 -32 -99 32 -91 43 1 -147 32 -98 -32 -131 32 -97 91 -123 105 -139 60 73 66 163 98 65 99 33 165 130z"/>
<path data-z="102" class="z z102" d="M3366 1444l-33 98 33 98 -66 97 -165 -130 -99 -33 -98 -65 -66 -163 -60 -73 229 -98 33 -163 130 -98 136 -68 0 55 -40 120 33 97 0 98 99 98 -66 130z"/>
<path data-z="101" class="z z101" d="M3432 1314l-99 -98 0 -98 -33 -97 40 -120 0 -55 60 -30 65 -196 196 -98 196 33 -63 173 66 97 -33 98 -99 130 -66 98 -164 65 -66 98z"/>
<path data-z="100" class="z z100" d="M3893 1086l-165 -33 99 -130 33 -98 -66 -97 33 -98 30 -75 66 -131 163 -32 261 32 196 -65 131 33 -56 173 0 97 99 66 33 97 33 228 -132 -97 -297 97 -263 0 -198 33z"/>
<path data-z="99" class="z z99" d="M5079 858l-165 32 -33 98 -98 65 -33 -228 -33 -97 -99 -66 0 -97 56 -173 32 -98 294 -196 196 -98 33 98 -33 131 65 228 98 -65 131 0 98 32 32 98 0 131 -65 98 -98 33 -32 98 -98 65 -33 98 -98 65 -65 229 -52 -123 33 -130 66 -196 -99 -32z"/>
</g>
</svg>