<!-- cc-by-sa-4.0 Por: Afonso Gomes http://afonsogomes.com https://github.com/AfonsoFG/PortugalSVG -->
<svg width="375" height="550" viewBox="0 0 12969 26676">
<path data-z="26" class="z z26" d="M3470 6075c30 4 77 44 116 43 8 0 126-37 126-37 59 30 19 95 16 106-18 70 96 218 101 256 2 20-21 66 21 124 25 36 45 38 77 21 39-20 133-124 127-80l-26 126c-9 47-102 54-80 96 56 109 65 67 76 80 2 3-14 66-16 69-15 21-95 34-58 78 3 3 6 76 10 80 22 27 87 11 105 55 6 16-10 26-14 41-8 33 47 93 76 53 20-28-11-94 39-94 97 0 104 12 195-18 34-11 15 38 18 41 37 44 73 20 73 18 138-359 219-14 291-57 76-46 126-28 216 0 14 4 42 76 57 71 25-8 54-152 94-186 59-49 13-151-5-199-60-161 65-118 140-46 31 29 98 20 124-41 32-76 97 49 165 48 7 0 82-25 115-30 8-77 6-120-48-185-50-59-7-112-17-147-12-46-74-103-45-142 39-54 44-138 107-124 6 1 23 8 23 0 4-48 7-42 37-85 6-8 68 68 140 23 29-18 12-30 89 60 35 41 240 2 241 2 106-75 30-200 130-238 4-2 219-33 211-23-29 38-92 90-87 137 3 24 149 19 197 74 18 20 103 177 145 110 21-35 31-65 71-90 19-12 210 23 128 101-4 4 25 71 28 71 60-2 88-24 137 14 41 32 101 149 53 197-46 46-43 60-35 73 19 28 88 205 145 161 60-47 109-42 190-35 28 3 62 38 55 67-13 50 35 63 67 94 24 25 7-93 20-110 3-5 84-104 89-110 5-4 139 25 152 30 106 34 245 327 307 256 26-30 122-227 140-272 22-58 5-51-58-113-51-51-21-130 12-139 71-21 147 28 174 50 26 21 133-126 151-144 6-6 24-168 23-172-6-22-187-104-195-117-7-13 4-92 7-94 9-6 168-30 186-30 118-1 311 48 328 48 44 0 19-88 55-114 38-28 86-14 137-3 59 13 72 27 99 80 6 13 15 40-3 46-90 34-68-52-50 113 2 22 55 25 55 64 0 34-37 158-66 172-8 3 146 84 185 89s76-213 151-273c14-10 340 53 385-52 17-38 36-227 72-246 27-14 101 18 144 23 22 3 66 4 82-11l33-98 196 65 131-32 98-66 97-130v-196l66 65 32-98-32-130 261-262v-130l98-66 65-130c150 0 99 10 229-33l98 66c83-126 53-87 163-196l98 65 33-131 130-32 65-98 33-98 98-98 33-98 98-98 98 33 98-66-66-98 98-32v-131l33-98 65-98 98-98 65-130c81-163 53-114 164-262l-33-97-98-33-131-163-130-131c-100 14-189 33-286 33l57-98c-170 0-122 8-282-24l54-74h-258l29 130-98 66-196-98-65-229-33-98 66-196v-130l65-98v-131l33-130-98-33-145-218 112 22V979c-105-70-77-44-163-130l-162 165-1-2-164 98-98-65-98-33h-98l-65-228-163-33c0 149 10 99-33 228l-98 33-163 33-228-66-131-97-98 97c-150 0-99-10-229 33-72-108-41-77-133-157l3 89-65 35-33-97-52 24-46-57 33 130-131-130-45 67 12 129 66 130-131 196-98 66-33 98-65-98-130 98h-33l-131 32-130-32-66 97-65 66-98 32-98-261-130 33-98-33-33 131-196 65h-163l98-261h-131l-196-65-98-66-359 98-196 33-65 98-130 33 32-131v-131l-32-98c-91 137-67 100-131 262h-131l-98 32-65 131-33 98-98-33-65 98-98 33-130-33h-98l-98-33v-195c-145-109-108-64-196-196l65-229 98-65 33-98 98-65 32-98 98-33 66-98V522l-33-98-98-32h-131l-98 65-65-228 33-131-33-98-196 98-294 196-32 98-131-33-196 65-261-32-163 32-65 131-196-33-196 98-66 196-195 98-131 98-33 163-228 98-196 262-33 97 33 131-33 98-1 264 34 128 130 228 164 653v261l65 131v131l-33 196 66 195 65 98 33 98v131c56 170 92 361 107 541l154 308 65 196v196l65 228c23 79-20 158-30 231z"/>
<path data-z="27" class="z z27" d="M434 16559l-35-104 32-98-32-98 32-130h66l-66-98v-164l98-195 66-164 65-130 98-262-33-97 33-98v-131l-33-98 27-36-92-62v-131l-131-32 66-98 98 65 65-98h130l131-98 196-196 163-261 131-98 98-98 163-261 65-98-65-130 98-229 131-457 293-784 229-685 131-490-33-98-131-131 33-163 64 13 99-470 98-392 261-1077 66-294 98-522 163-686c45-188 75-347 100-520 30 4 77 44 116 43 8 0 126-37 126-37 59 30 19 95 16 106-18 70 96 218 101 256 2 20-21 66 21 124 25 36 45 38 77 21 39-20 133-124 127-80l-26 126c-9 47-102 54-80 96 56 109 65 67 76 80 2 3-14 66-16 69-15 21-95 34-58 78 3 3 6 76 10 80 22 27 87 11 105 55 6 16-10 26-14 41-8 33 47 93 76 53 20-28-11-94 39-94 97 0 104 12 195-18 34-11 15 38 18 41 37 44 73 20 73 18 138-359 219-14 291-57 76-46 126-28 216 0 14 4 42 76 57 71 25-8 54-152 94-186 59-49 13-151-5-199-60-161 65-118 140-46 31 29 98 20 124-41 32-76 97 49 165 48 7 0 82-25 115-30 8-77 6-120-48-185-50-59-7-112-17-147-12-46-74-103-45-142 39-54 44-138 107-124 6 1 23 8 23 0 4-48 7-42 37-85 6-8 68 68 140 23 29-18 12-30 89 60 35 41 240 2 241 2 106-75 30-200 130-238 4-2 219-33 211-23-29 38-92 90-87 137 3 24 149 19 197 74 18 20 103 177 145 110 21-35 31-65 71-90 19-12 210 23 128 101-4 4 25 71 28 71 60-2 88-24 137 14 41 32 101 149 53 197-46 46-43 60-35 73 19 28 88 205 145 161 60-47 109-42 190-35 28 3 62 38 55 67-13 50 35 63 67 94 24 25 7-93 20-110 3-5 84-104 89-110 5-4 139 25 152 30 106 34 245 327 307 256 26-30 122-227 140-272 22-58 5-51-58-113-51-51-21-130 12-139 71-21 147 28 174 50 26 21 133-126 151-144 6-6 24-168 23-172-6-22-187-104-195-117-7-13 4-92 7-94 9-6 168-30 186-30 118-1 311 48 328 48 44 0 19-88 55-114 38-28 86-14 137-3 59 13 72 27 99 80 6 13 15 40-3 46-90 34-68-52-50 113 2 22 55 25 55 64 0 34-37 158-66 172-8 3 146 84 185 89s76-213 151-273c14-10 340 53 385-52 17-38 36-227 72-246 27-14 101 18 144 23 22 3 66 4 82-11l33 98 131 98 32 98 98 130 33 164 65 97 131 131-65 98v163l-33 131v163l56 71 42 223v326l-131 196v131l131 65 65 229-98 98-98 196 66 261 97 98 98 65-32 196c-13 79-119 28-183 89l-111 107 33 98-71 143-27-45h-196l-131 98-98-33-98 196-32 131 32 97 33 131 33 98c51 155 123-53 261 33 113 70-32 185 98 228l98 33 65 196v130l-33 98v131l-65 196v130l-33 164-98 65-32 98-98 33-66 130 66 131-66 98 33 130-98 131-32 163-196 65-98-32h-131l-98 65-392-65-163 32-130 66h-196l-131 32-98-32-98-66h-326c-112 62-208 2-238 102-19 60-97 95-154 123-78 39-95-153-186-116-193 78-119 167-137 214-36 95-47 43-132 81-103 46-311 281-388 395-30 43-382-236-430-223-59 15-25 64-73 158-212 415-109 291 149 530 114 105-277 283-311 284-24 0-188 376-221 420-75 99-120 0-158-28-62-45-178 65-160 133 17 68-9 171-68 142l-5-3c-386-192-303-103-509-874-34-130-100-234-141-283-16-19-527-4-591 100-310 501-279 43-413 181-49 50-13 15-105-67-141-127-206 179-388 30-52-43-210 143-191 42 87-465 187-561-546-323-51 16-145 357-179 374-162 81-134-8-200 151-43 105 30 194 35 223 9 49-52 126-42 135 123 98 39 433-53 546-7 8 198 149 241 163 75 24-17 73 89 197 49 58-24 107-91 107-60 0 54 273-23 212-102-82 57 105 70 125-8 51-1 103-33 147-23 31-45-33-91-58-57-33-70 24-95 51-32 37-122-50-142-68-53-18-77 2-62 31 17 34 126 263 48 251-75-13-50-14-113 39-19 15-101-51-128-67 0 0-62 36-47 67 77 54 99 40 72 133-8 29-58 37-88 30-89-23-56-86-107-93-109-16-109 19-121 44-8 18-116 126-146 128-6 0-86-49-110-54-64-12-7 129-6 142 1 64-31 170-54 126l-21-40c-4-6-40-1-44 0-249 36-80-109-172-74-102 38-109 51-186 0-20-13-65-91-119-91-23 0 20-183-193-134zM95 14045c126 0 126 199 0 199s-126-199 0-199z"/>
<path data-z="28" class="z z28" d="M2249 17358c39 2 100 42 162 78 15 8 139 118 205 67 59-45 132-108 216-27 45 44 280 140 293 96 22-73 100-90 29-170-54-61 48-147 90-207 35-51 57-181 87-168 40 18 226 258 261 100 12-53 90-125 139-96 26 15-74 245-67 305 5 46 333 99 366 99 116 2 1 123 36 182 38 64 157 178 86 214-71 37-153 19-230 21-84 2-277 230-354 305-143 139-58 154-20 297 16 58-161 124-264 214-148 129-176-115-216 0-23 69 110 114-27 235-30 26-78 38-112 22-121-57-213-164-322-242-119-87-130 48-151 90l-66 131h-130l-98 65-66 98-97 65-98 33h-131l-98-33-98 66h-130l-98 65-131 33c-133 33 56-102 98-229l65-196v-163l-32-163-131-294-33-98-65-98-16-49 196-33 228-65-16 82 196 65 98-65 65-98 65-164 98-65v-131h131l-98-65 98-98 87-11zm-316-217l-98 65-98 98v228l-32 131-98 98c-24 24-356 100-359 98l-66-33h-130l-164 66-130 32-131-65-98-65-98 32H268l-130-65 65-131 163-98-163 33-65-98v-163l65-98 32-98 66-131 32-163 101-255c213-49 170 134 193 134 54 0 99 78 119 91 77 51 84 38 186 0 92-35-77 110 172 74 4-1 40-6 44 0l21 40c23 44 55-62 54-126-1-13-58-154 6-142 24 5 104 54 110 54 30-2 138-110 146-128 12-25 12-60 121-44 51 7 18 70 107 93 30 7 80-1 88-30 27-93 5-79-72-133-15-31 47-67 47-67 27 16 109 82 128 67 63-53 38-52 113-39 78 12-31-217-48-251-15-29 9-49 62-31 20 18 110 105 142 68 25-27 38-84 95-51 46 25 68 89 91 58 32-44 25-96 33-147 30-33 212 15 258 22 41 6 86 22 103 60 0 0-31 242-32 279-1 48-86 60-131 73-53 15-26 77-31 115-7 49-83 68-80 125 4 64-211 364-216 364-49 4-89-120-91-157-2-19 38-24 39-42 7-104-62-69-62-100 1-123 37-117 0-225-11-33-48 53-59 85-15 44-3 96-25 136-31 54-88 88-133 130-19 18-47 26-59 53-66 143 92 111 60 174z"/>
<path data-z="29" class="z z29" d="M7941 12798l98 294 65 98 131 65 65 131 163 98 98 196 98 65h131l130 98-33 229-74 186 42 42v163l130 98 66 98 130 98-65 131 33 98v130l130 131h66l228 65c144 41-139 144-33 229l164 131 261-98 196 98 98 163v130l65 98-131 229-130 196-33 98-98 65 66 98v131l-98 32c-135 45 9 229-131 229h-131c-162 0-2 153-130 196l-98 32-98 131-131 65-65 196-33 294 98 65-65 196-98 163-33 164-65 163-33 98 98-33c128-43-284 145-130 196l98 33 98 65 65 163 98 131 196 196 65 163 65 98 98 33 33 195 229 327 65-98h163c166 0 32-83 196-131 128-37 282-115 196 0l-98 131-33 98v130l-130 556c-126 42-81 21-196 97l-98-97-98-33-98 33-33 130-130 98-98-33h-131l-130 33v131l-33 98v130l-33 98-65 131-65 196-98 130-98 66-65 97-196 131-98 294c-70 168-85 73-33 228l-131 196-32 98-65 98-33 98-369 5-30-20-201 203h-36l-9-36-73 9-28-34c-159 12-254 28-387 126l-35-14c-124 69-274 139-390 215l9 37-82 12-69 38 20 75-38-1-52 53c-53-24-171 5-226 28l-147 47-3 79 63 50 1 37-186 61c2 63-99 142-163 153-53-48-207-39-267-21-89-27-131-32-209-84-3-7-188-154-233-198h-81c-8-29-28-183-31-218l-183-17-12 43c-88-53-312 36-396 82l20 104-57 58-32-20c-49 20-45 38-87 72-183-60-136-14-251-32-46-46-99-87-141-135-51-4-210 36-273 49l-48 107-43-9-66-99c-74 22-220 49-285 8l-74-145-34-15-75 33 32-98v-131l33-98v-130l-65-229-66-130 98-294v-425l-32-130v-164l32-195 33-98-33-262-32-97-131-66-196-65c33-98 45-133 98-229 128-232 67-68 163-359l98-294 66-326v-425l-33-326-65-229-33-130-98-163-261-262-65-163c21-42 32-177 151-90 109 78 201 185 322 242 34 16 82 4 112-22 137-121 4-166 27-235 40-115 68 129 216 0 103-90 280-156 264-214-38-143-123-158 20-297 77-75 270-303 354-305 77-2 159 16 230-21 71-36-48-150-86-214-35-59 80-180-36-182-33 0-361-53-366-99-7-60 93-290 67-305-49-29-127 43-139 96-35 158-221-82-261-100-30-13-52 117-87 168-42 60-144 146-90 207 71 80-7 97-29 170-13 44-248-52-293-96-84-81-157-18-216 27-66 51-190-59-205-67-62-36-123-76-162-78l-87-21-163-294-66 98s-126-31-60-174c12-27 40-35 59-53 45-42 102-76 133-130 22-40 10-92 25-136 11-32 48-118 59-85 37 108 1 102 0 225 0 31 69-4 62 100-1 18-41 23-39 42 2 37 42 161 91 157 5 0 220-300 216-364-3-57 73-76 80-125 5-38-22-100 31-115 45-13 130-25 131-73 1-37 32-279 32-279-17-38-62-54-103-60-46-7-228-55-258-22-13-20-172-207-70-125 77 61-37-212 23-212 67 0 140-49 91-107-106-124-14-173-89-197-43-14-248-155-241-163 92-113 176-448 53-546-10-9 51-86 42-135-5-29-78-118-35-223 66-159 38-70 200-151 34-17 128-358 179-374 733-238 633-142 546 323-19 101 139-85 191-42 182 149 247-157 388-30 92 82 56 117 105 67 134-138 103 320 413-181 64-104 575-119 591-100 41 49 107 153 141 283 206 771 123 682 509 874l5 3c59 29 85-74 68-142-18-68 98-178 160-133 38 28 83 127 158 28 33-44 197-420 221-420 34-1 425-179 311-284-258-239-361-115-149-530 48-94 14-143 73-158 48-13 400 266 430 223 77-114 285-349 388-395 85-38 96 14 132-81 18-47-56-136 137-214 91-37 108 155 186 116 57-28 135-63 154-123 30-100 126-40 238-102z"/>
<path data-z="30" class="z z30" d="M2913 24291v130l-131 229-65 131-98 163 65 228-32 131-98 196-98 32 32 131-65 196-98 163v131l-131 98v163l98 33 71 37 118-32 73-103h130l98-98 229-33 130-33 164-65 97-98 35 70 31-70 98-65 228-33h131l130 66 392 130 294-98 98 33 163 130 163-32 196-65h131l294 97 130 66 555 359v65h327l196-130 98-98 326-262 261-130 196-196 392-196 229-65 178 51-48-312-65-98c49-198 34-91 0-229l-33-196v-326l-32-131-66-163-32-163-66-98-97-98-33-98v-131l-369 5-30-20-201 203h-36l-9-36-73 9-28-34c-159 12-254 28-387 126l-35-14c-124 69-274 139-390 215l9 37-82 12-69 38 20 75-38-1-52 53c-53-24-171 5-226 28l-147 47-3 79 63 50 1 37-186 61c2 63-99 142-163 153-53-48-207-39-267-21-89-27-131-32-209-84-3-7-188-154-233-198h-81c-8-29-28-183-31-218l-183-17-12 43c-88-53-312 36-396 82l20 104-57 58-32-20c-49 20-45 38-87 72-183-60-136-14-251-32-46-46-99-87-141-135-51-4-210 36-273 49l-48 107-43-9-66-99c-74 22-220 49-285 8l-74-145-34-15-75 33z"/>
</svg>